<svg width="50" height="50" viewBox="0 0 50 50" fill="none" xmlns="http://www.w3.org/2000/svg">
<g id="fi_2165693" clip-path="url(#clip0_0_1)">
<path id="Vector" d="M10.1677 43.9499C9.68028 43.9499 9.5052 43.5965 9.29751 43.2421C9.07967 42.8698 9.20475 42.3912 9.57697 42.1733C9.94939 41.9553 10.4279 42.0806 10.6458 42.4527C10.7152 42.5714 10.7721 42.6651 10.8251 42.7479C11.1601 43.272 10.7759 43.9499 10.1677 43.9499Z" fill="#D4AF37"/>
<path id="Vector_2" d="M23.8596 49.9969H21.0913C17.5118 49.9969 14.127 48.6221 11.5605 46.1257C11.2512 45.8249 11.2444 45.3303 11.5452 45.021C11.8459 44.7119 12.3404 44.7048 12.6499 45.0058C14.923 47.2168 17.921 48.4345 21.0914 48.4345H23.8597C27.4038 48.4345 30.7359 47.0557 33.2435 44.5516L47.7998 29.2145C49.1755 27.7545 48.0977 25.7811 46.4515 25.7811C44.4217 25.7811 42.5131 26.5671 41.0733 27.9951L36.8533 32.9923C35.5932 34.4907 32.8087 33.6168 32.8087 31.383V27.2302C32.8087 27.0702 32.4698 28.3918 37.9537 7.92687C38.4174 6.19495 37.109 4.485 35.3112 4.485C34.1761 4.485 33.0525 5.19449 32.6681 6.52519L27.3103 25.2153C27.0621 26.0818 25.7783 25.9002 25.7783 25.0001V4.29948C25.7783 1.85515 22.8189 0.660077 21.1101 2.36622C20.5945 2.88256 20.3102 3.56939 20.3102 4.29948V24.3947C20.3102 25.3041 19.0094 25.4739 18.7744 24.5968L14.1685 7.40555C13.9793 6.70036 13.5269 6.11088 12.8944 5.74569C11.064 4.68928 8.79195 6.02827 8.79195 8.11054C8.79195 8.6223 8.43057 7.12043 13.6105 26.451C13.8458 27.3293 12.6335 27.83 12.1795 27.0437L5.93604 16.2296C4.75523 14.1859 1.56245 14.9921 1.56245 17.4052C1.56245 17.8132 1.67103 18.2169 1.87667 18.573L6.26091 26.1669C8.04194 29.2525 8.98343 32.7657 8.98343 36.3269C8.98343 37.495 9.14942 38.6503 9.47692 39.7607C9.59888 40.1745 9.36239 40.6089 8.94857 40.731C8.53544 40.8534 8.10043 40.6165 7.97828 40.2027C7.60859 38.9487 7.42112 37.6448 7.42112 36.3269C7.42112 33.0396 6.55208 29.7964 4.90795 26.9481L0.523711 19.3543C-0.57225 17.4556 0.121904 15.0774 1.95391 14.0192C3.81784 12.9422 6.2115 13.5831 7.289 15.4483L10.5658 21.1238L7.37747 9.22545C6.75743 6.92143 8.13968 4.57191 10.4164 3.96349C12.7083 3.34852 15.0626 4.70734 15.6776 7.00081L18.7479 18.4603V4.29928C18.7479 1.94195 20.653 0.00292969 23.0442 0.00292969C25.4133 0.00292969 27.3406 1.93024 27.3406 4.29928V19.4401L31.1645 6.10063C31.6693 4.22918 33.3733 2.9226 35.3113 2.9226C38.1417 2.9226 40.1894 5.6169 39.4629 8.33092L34.3711 27.3329V31.383C34.3711 32.0731 35.1939 32.4175 35.6841 31.9555C38.6239 28.4744 39.9094 26.9499 39.9459 26.913C41.6834 25.1757 43.9938 24.2187 46.4516 24.2187C49.5326 24.2187 51.2424 27.9683 48.9265 30.2969C33.8768 46.1538 34.3685 45.6359 34.3551 45.6496C31.5516 48.453 27.8241 49.9969 23.8596 49.9969Z" fill="#D4AF37"/>
<path id="Vector_3" d="M21.0912 45.2125C20.6598 45.2125 20.3101 44.8627 20.3101 44.4313C20.3101 38.1915 24.9672 32.8658 31.143 32.0432C31.5721 31.9869 31.9636 32.2867 32.0205 32.7143C32.0775 33.1419 31.7769 33.5348 31.3493 33.5917C25.9466 34.3113 21.8723 38.9714 21.8723 44.4313C21.8724 44.8627 21.5226 45.2125 21.0912 45.2125Z" fill="#D4AF37"/>
</g>
<defs>
<clipPath id="clip0_0_1">
<rect width="50" height="50" fill="white"/>
</clipPath>
</defs>
</svg>
