<svg width="50" height="50" viewBox="0 0 50 50" fill="none" xmlns="http://www.w3.org/2000/svg">
<path d="M49.9298 27.8304C49.9297 27.8302 49.9297 27.83 49.9296 27.8298L40.4894 4.12625C40.289 3.62261 39.7182 3.37674 39.2145 3.57709C39.2142 3.57721 39.2138 3.57734 39.2134 3.57758L0.915752 18.8274C0.759569 18.8948 0.62412 19.0026 0.523147 19.1395C0.204645 19.305 0.0034353 19.6326 0 19.9914V45.5108C0 46.0528 0.439472 46.4923 0.981513 46.4923H42.2051C42.7471 46.4923 43.1866 46.0528 43.1866 45.5108V31.5733L49.3819 29.1058C49.8854 28.9049 50.1307 28.3339 49.9298 27.8304ZM41.2236 44.5293H1.96303V20.9729H41.2236V44.5293ZM16.3765 19.0148L32.811 12.4662C34.2778 14.0079 36.3101 14.8841 38.438 14.8925L40.0771 19.0148H16.3765ZM43.1866 29.465V19.9914C43.1866 19.4494 42.7471 19.0099 42.2051 19.0099H42.1894L40.1095 13.7863C40.0865 13.7427 40.0596 13.7013 40.0291 13.6626C39.9238 13.1899 39.486 12.8674 39.0034 12.9069C37.0234 13.0873 35.0865 12.2533 33.8573 10.6906C33.5514 10.3131 33.0138 10.2192 32.598 10.4708C32.5514 10.4763 32.5051 10.4849 32.4596 10.4963L12.3955 18.4858C12.1527 18.581 11.9585 18.7698 11.8567 19.0099H5.76345L39.0289 5.76439L47.7437 27.6472L43.1866 29.465Z" fill="#D4AF37"/>
<path d="M4.62658 37.9031C6.53219 38.4664 8.02335 39.9557 8.58895 41.8606C8.71299 42.2764 9.09541 42.5613 9.52924 42.5614C9.58016 42.5582 9.6307 42.5506 9.68039 42.5388C9.72444 42.5513 9.76947 42.5605 9.81486 42.5663H33.3712C33.4117 42.561 33.4517 42.5528 33.4909 42.5418C33.9813 42.661 34.4755 42.3603 34.5949 41.8699C34.5952 41.8681 34.5957 41.8664 34.5961 41.8645C35.1602 39.9577 36.6516 38.4663 38.5585 37.9021C39.0209 37.7608 39.3082 37.3 39.2318 36.8225C39.2449 36.7749 39.2544 36.7263 39.2603 36.6772V28.8251C39.2545 28.7759 39.2447 28.7273 39.2308 28.6799C39.3077 28.2022 39.0203 27.7412 38.5575 27.6002C36.6507 27.0362 35.1596 25.5442 34.5971 23.6368C34.455 23.1712 33.9897 22.8832 33.5096 22.9635C33.4642 22.9509 33.4179 22.9417 33.3712 22.936H9.81486C9.76542 22.9419 9.71646 22.9517 9.66862 22.9655C9.19123 22.8894 8.73066 23.1766 8.58895 23.6388C8.02446 25.5453 6.53317 27.0362 4.62658 27.6002C4.16417 27.7415 3.87683 28.2023 3.95326 28.6799C3.9405 28.7276 3.9313 28.776 3.92578 28.8251V36.6772C3.93142 36.7234 3.94063 36.769 3.95326 36.8137C3.87278 37.2942 4.16073 37.7602 4.62658 37.9031ZM5.88881 29.2236C7.85969 28.432 9.42176 26.8699 10.2134 24.8991H32.9717C33.7637 26.8699 35.3261 28.432 37.2972 29.2236V36.2787C35.327 37.0712 33.7651 38.633 32.9727 40.6033H10.2134C9.42091 38.633 7.85907 37.0712 5.88881 36.2787V29.2236Z" fill="#D4AF37"/>
<path d="M21.5942 38.64C24.8466 38.64 27.4832 36.0034 27.4832 32.7509C27.4832 29.4984 24.8466 26.8618 21.5942 26.8618C18.3417 26.8618 15.7051 29.4984 15.7051 32.7509C15.7083 36.002 18.343 38.6368 21.5942 38.64ZM21.5942 28.8248C23.7624 28.8248 25.5202 30.5826 25.5202 32.7509C25.5202 34.9192 23.7624 36.6769 21.5942 36.6769C19.4259 36.6769 17.6681 34.9192 17.6681 32.7509C17.6681 30.5826 19.4259 28.8248 21.5942 28.8248Z" fill="#D4AF37"/>
<path d="M10.7965 34.2233C11.6095 34.2233 12.2688 33.5641 12.2688 32.7511C12.2688 31.938 11.6095 31.2788 10.7965 31.2788C9.98343 31.2788 9.32422 31.938 9.32422 32.7511C9.32422 33.5643 9.98343 34.2233 10.7965 34.2233ZM10.7965 32.2603C11.0675 32.2603 11.2872 32.4801 11.2872 32.7511C11.2872 33.0221 11.0675 33.2418 10.7965 33.2418C10.5255 33.2418 10.3057 33.0221 10.3057 32.7511C10.3057 32.4801 10.5255 32.2603 10.7965 32.2603Z" fill="#D4AF37"/>
<path d="M32.3902 34.2233C33.2033 34.2233 33.8625 33.5641 33.8625 32.7511C33.8625 31.938 33.2033 31.2788 32.3902 31.2788C31.5772 31.2788 30.918 31.938 30.918 32.7511C30.918 33.5643 31.5772 34.2233 32.3902 34.2233ZM32.3902 32.2603C32.6613 32.2603 32.881 32.4801 32.881 32.7511C32.881 33.0221 32.6613 33.2418 32.3902 33.2418C32.1192 33.2418 31.8995 33.0221 31.8995 32.7511C31.8995 32.4801 32.1192 32.2603 32.3902 32.2603Z" fill="#D4AF37"/>
</svg>
