<svg width="50" height="50" viewBox="0 0 50 50" fill="none" xmlns="http://www.w3.org/2000/svg">
<path d="M36.9792 14.9815C38.5757 14.9796 40.1061 14.3446 41.235 13.2158C42.3638 12.0869 42.9987 10.5564 43.0005 8.95995V7.52944C43.0005 7.45984 42.9868 7.39091 42.9602 7.3266C42.9336 7.26229 42.8946 7.20385 42.8453 7.15464C42.7961 7.10542 42.7377 7.06639 42.6734 7.03977C42.6091 7.01315 42.5401 6.99947 42.4705 6.99951H7.5296C7.46 6.99947 7.39107 7.01315 7.32676 7.03977C7.26245 7.06639 7.20401 7.10542 7.1548 7.15464C7.10558 7.20385 7.06655 7.26229 7.03993 7.3266C7.01331 7.39091 6.99963 7.45984 6.99967 7.52944V8.95995C7.00144 10.5564 7.63637 12.0869 8.76518 13.2158C9.89399 14.3446 11.4245 14.9796 13.0209 14.9815H21.9719V18.4094H14.2125C13.1679 18.4064 12.1565 18.7758 11.3596 19.4513C10.5628 20.1267 10.0328 21.064 9.86463 22.095L7.00664 39.3099C6.99406 39.3858 6.99817 39.4635 7.01866 39.5376C7.03916 39.6118 7.07555 39.6806 7.12532 39.7393C7.17508 39.7979 7.23702 39.8451 7.30684 39.8774C7.37665 39.9097 7.45267 39.9264 7.5296 39.9264H9.32985V42.4701C9.32981 42.5397 9.34349 42.6086 9.37011 42.6729C9.39673 42.7372 9.43576 42.7957 9.48498 42.8449C9.5342 42.8941 9.59263 42.9331 9.65694 42.9597C9.72125 42.9864 9.79018 43 9.85979 43H40.141C40.2106 43 40.2795 42.9864 40.3438 42.9597C40.4081 42.9331 40.4665 42.8941 40.5158 42.8449C40.565 42.7957 40.604 42.7372 40.6306 42.6729C40.6572 42.6086 40.6709 42.5397 40.6709 42.4701V39.9264H42.4711C42.5481 39.9264 42.6241 39.9097 42.6939 39.8774C42.7637 39.8451 42.8257 39.7979 42.8754 39.7393C42.9252 39.6806 42.9616 39.6118 42.9821 39.5376C43.0026 39.4635 43.0067 39.3858 42.9941 39.3099L40.1361 22.095C39.968 21.0639 39.4378 20.1265 38.6409 19.4511C37.8439 18.7756 36.8323 18.4063 35.7876 18.4094H28.0298V14.9815H36.9792ZM8.05953 8.95995V8.05937H41.9406V8.95995C41.9394 10.2754 41.4163 11.5367 40.4861 12.4669C39.556 13.3972 38.2947 13.9203 36.9792 13.9216H13.0209C11.7054 13.9203 10.4442 13.3972 9.51399 12.4669C8.58383 11.5367 8.06074 10.2754 8.05953 8.95995ZM39.6104 41.9404H10.3885V39.9264H39.6104V41.9404ZM39.0899 22.2685L41.8455 38.8665H8.15462L10.9103 22.2685C11.0379 21.4855 11.4405 20.7735 12.0457 20.2605C12.6509 19.7475 13.4191 19.467 14.2125 19.4692H35.7876C36.581 19.467 37.3492 19.7475 37.9544 20.2605C38.5596 20.7735 38.9622 21.4855 39.0899 22.2685ZM26.9699 18.4094H23.0318V14.9815H26.9714L26.9699 18.4094Z" fill="#2C2C2C"/>
<path d="M17.2217 29.1678C17.2216 30.7062 17.6778 32.21 18.5324 33.4892C19.387 34.7683 20.6018 35.7653 22.0231 36.3541C23.4443 36.9428 25.0083 37.0969 26.5171 36.7968C28.026 36.4967 29.4119 35.756 30.4998 34.6682C31.5876 33.5804 32.3284 32.1945 32.6286 30.6856C32.9287 29.1768 32.7747 27.6129 32.186 26.1916C31.5973 24.7703 30.6003 23.5555 29.3212 22.7008C28.0421 21.8461 26.5382 21.3899 24.9999 21.3899C22.9377 21.3922 20.9607 22.2124 19.5025 23.6705C18.0444 25.1287 17.2241 27.1056 17.2217 29.1678ZM31.6964 28.6378H30.8085C30.668 28.6378 30.5332 28.6937 30.4338 28.7931C30.3344 28.8924 30.2786 29.0272 30.2786 29.1678C30.2786 29.3083 30.3344 29.4431 30.4338 29.5425C30.5332 29.6419 30.668 29.6977 30.8085 29.6977H31.6952C31.5672 31.2902 30.8765 32.7851 29.7468 33.9147C28.6171 35.0444 27.1222 35.7351 25.5298 35.8631V34.9764C25.5298 34.8359 25.474 34.7011 25.3746 34.6017C25.2752 34.5023 25.1404 34.4465 24.9999 34.4465C24.8593 34.4465 24.7245 34.5023 24.6251 34.6017C24.5258 34.7011 24.4699 34.8359 24.4699 34.9764V35.8631C22.8775 35.7351 21.3826 35.0444 20.2529 33.9147C19.1232 32.7851 18.4326 31.2902 18.3046 29.6977H19.1912C19.3318 29.6977 19.4665 29.6419 19.5659 29.5425C19.6653 29.4431 19.7211 29.3083 19.7211 29.1678C19.7211 29.0272 19.6653 28.8924 19.5659 28.7931C19.4665 28.6937 19.3318 28.6378 19.1912 28.6378H18.3046C18.4327 27.0454 19.1234 25.5506 20.253 24.4209C21.3827 23.2913 22.8775 22.6006 24.4699 22.4725V23.3591C24.4699 23.4997 24.5258 23.6345 24.6251 23.7338C24.7245 23.8332 24.8593 23.889 24.9999 23.889C25.1404 23.889 25.2752 23.8332 25.3746 23.7338C25.474 23.6345 25.5298 23.4997 25.5298 23.3591V22.4725C27.1222 22.6006 28.617 23.2913 29.7467 24.4209C30.8763 25.5506 31.567 27.0454 31.6952 28.6378H31.6964Z" fill="#2C2C2C"/>
<path d="M25.6928 27.7251C25.4771 27.6192 25.2402 27.5635 25 27.5622C24.6825 27.5622 24.3722 27.6564 24.1083 27.8327C23.8444 28.0091 23.6387 28.2597 23.5172 28.553C23.3957 28.8462 23.3639 29.1689 23.4259 29.4803C23.4878 29.7916 23.6406 30.0776 23.8651 30.302C24.0895 30.5265 24.3755 30.6793 24.6868 30.7413C24.9982 30.8032 25.3209 30.7714 25.6141 30.6499C25.9074 30.5285 26.1581 30.3227 26.3344 30.0588C26.5108 29.7949 26.6049 29.4846 26.6049 29.1672C26.6036 28.9269 26.5477 28.6901 26.4414 28.4746L28.5287 26.387C28.5779 26.3378 28.6169 26.2794 28.6435 26.2151C28.6701 26.1509 28.6838 26.082 28.6838 26.0124C28.6838 25.9428 28.6701 25.874 28.6435 25.8097C28.6169 25.7454 28.5779 25.687 28.5287 25.6378C28.4795 25.5886 28.4211 25.5496 28.3568 25.523C28.2926 25.4964 28.2237 25.4827 28.1541 25.4827C28.0845 25.4827 28.0157 25.4964 27.9514 25.523C27.8871 25.5496 27.8287 25.5886 27.7795 25.6378L25.6928 27.7251ZM25 29.7134C24.8921 29.7134 24.7868 29.6815 24.6971 29.6216C24.6075 29.5617 24.5376 29.4766 24.4964 29.377C24.4551 29.2774 24.4443 29.1678 24.4654 29.062C24.4864 28.9563 24.5383 28.8592 24.6145 28.783C24.6908 28.7067 24.7879 28.6548 24.8936 28.6338C24.9993 28.6127 25.1089 28.6235 25.2085 28.6648C25.3081 28.7061 25.3933 28.7759 25.4532 28.8656C25.5131 28.9552 25.545 29.0606 25.545 29.1684C25.545 29.3129 25.4876 29.4516 25.3854 29.5538C25.2832 29.656 25.1445 29.7134 25 29.7134Z" fill="#2C2C2C"/>
<path d="M17.7517 9.25708H12.2404C12.1708 9.25708 12.1019 9.27079 12.0376 9.29742C11.9733 9.32405 11.9149 9.36308 11.8657 9.41229C11.8165 9.4615 11.7774 9.51992 11.7508 9.58422C11.7242 9.64851 11.7104 9.71742 11.7104 9.78701C11.7104 9.8566 11.7242 9.92551 11.7508 9.98981C11.7774 10.0541 11.8165 10.1125 11.8657 10.1617C11.9149 10.2109 11.9733 10.25 12.0376 10.2766C12.1019 10.3032 12.1708 10.3169 12.2404 10.3169H17.7517C17.8922 10.3169 18.027 10.2611 18.1264 10.1617C18.2258 10.0623 18.2816 9.92756 18.2816 9.78701C18.2816 9.64646 18.2258 9.51167 18.1264 9.41229C18.027 9.31291 17.8922 9.25708 17.7517 9.25708Z" fill="#2C2C2C"/>
<path d="M21.6371 9.25708H20.0158C19.8752 9.25708 19.7404 9.31291 19.6411 9.41229C19.5417 9.51167 19.4858 9.64646 19.4858 9.78701C19.4858 9.92756 19.5417 10.0623 19.6411 10.1617C19.7404 10.2611 19.8752 10.3169 20.0158 10.3169H21.6371C21.7066 10.3169 21.7756 10.3032 21.8399 10.2766C21.9041 10.25 21.9626 10.2109 22.0118 10.1617C22.061 10.1125 22.1 10.0541 22.1266 9.98981C22.1533 9.92551 22.167 9.8566 22.167 9.78701C22.167 9.71742 22.1533 9.64851 22.1266 9.58422C22.1 9.51992 22.061 9.4615 22.0118 9.41229C21.9626 9.36308 21.9041 9.32405 21.8399 9.29742C21.7756 9.27079 21.7066 9.25708 21.6371 9.25708Z" fill="#2C2C2C"/>
</svg>
