<svg width="50" height="50" viewBox="0 0 50 50" fill="none" xmlns="http://www.w3.org/2000/svg">
<path d="M46.8282 22.2065C46.2086 21.3455 45.9931 20.2584 46.2373 19.2222C46.7098 17.221 45.8517 15.1501 44.1011 14.0687C43.197 13.51 42.5802 12.588 42.4079 11.5325C42.0768 9.50683 40.4942 7.92422 38.4621 7.59176C37.413 7.42086 36.4911 6.80333 35.9317 5.89858C34.8517 4.14866 32.7801 3.2913 30.776 3.76306C29.7442 4.00792 28.6563 3.79178 27.7838 3.16491C26.1187 1.96863 23.8812 1.97006 22.2074 3.17138C21.345 3.79178 20.2571 4.00577 19.2253 3.76306C19.2174 3.76091 19.2095 3.75947 19.2016 3.75803C17.2054 3.29704 15.1453 4.1544 14.0689 5.89857C13.5095 6.80333 12.5875 7.42014 11.5334 7.59247C9.50705 7.92278 7.92373 9.50539 7.59198 11.5382C7.42037 12.5866 6.80284 13.5086 5.8988 14.0679C4.1496 15.1479 3.2908 17.2195 3.76329 19.2251C4.0067 20.2576 3.79129 21.3448 3.16514 22.2158C1.96813 23.881 1.96813 26.1192 3.1716 27.793C3.79128 28.6553 4.0067 29.7425 3.76184 30.7779C3.29008 32.7799 4.14888 34.8508 5.89879 35.9315C6.80212 36.4901 7.41965 37.4121 7.59198 38.4676C7.92301 40.4933 9.50561 42.0759 11.5377 42.4084C12.5868 42.5793 13.5088 43.1968 14.0682 44.1015C15.1481 45.85 17.2197 46.7074 19.2246 46.2371C20.2586 45.9908 21.345 46.2091 22.216 46.8352C23.8635 48.0189 26.101 48.0434 27.7925 46.8288C28.6549 46.2091 29.742 45.9951 30.7774 46.2371C32.778 46.7117 34.851 45.8515 35.931 44.1015C36.4903 43.1968 37.4123 42.58 38.4679 42.4084C40.4928 42.0773 42.0761 40.4947 42.4079 38.4619C42.5795 37.4128 43.197 36.4915 44.1018 35.9322C45.851 34.8515 46.7091 32.7806 46.2373 30.7758C45.9932 29.7425 46.2086 28.6553 46.8038 27.8245L46.811 27.8159C46.8196 27.8059 46.8275 27.7951 46.8354 27.7843C48.0317 26.1184 48.0317 23.881 46.8282 22.2065ZM45.9393 27.141L45.9321 27.1496C45.1272 28.2705 44.8464 29.6843 45.1638 31.0314C45.5264 32.5709 44.8665 34.1636 43.5209 34.9944C42.3454 35.7211 41.5426 36.9202 41.3186 38.291C41.0644 39.8485 39.8473 41.0656 38.2833 41.3205C36.9197 41.5431 35.7198 42.3452 34.9932 43.5214C34.1617 44.867 32.569 45.5262 31.0295 45.1643C29.6845 44.8462 28.2707 45.1277 27.1405 45.9391C25.8602 46.8604 24.1397 46.8582 22.85 45.9326C21.7324 45.1297 20.3184 44.8443 18.9689 45.1643C17.4244 45.5248 15.836 44.8663 15.0052 43.5214C14.2793 42.3445 13.0801 41.5424 11.7093 41.3184C10.1519 41.0642 8.93474 39.8471 8.67983 38.2831C8.45651 36.9181 7.65372 35.7196 6.47826 34.9937C5.13333 34.1622 4.47271 32.5702 4.83677 31.0286C5.15343 29.6843 4.87267 28.2705 4.06126 27.141C3.14071 25.8607 3.14071 24.1395 4.06773 22.8506C4.87339 21.7282 5.15343 20.3144 4.83605 18.9687C4.47271 17.4292 5.13333 15.8365 6.47969 15.0057C7.65515 14.2791 8.45723 13.0799 8.68126 11.7099C8.93545 10.1517 10.1533 8.93455 11.7172 8.67964C13.0808 8.45704 14.28 7.65497 15.0067 6.47878C15.8382 5.13314 17.4272 4.47467 18.9696 4.83586C18.9768 4.83801 18.9847 4.83944 18.9926 4.84089C20.3282 5.15181 21.7349 4.86889 22.8594 4.06107C24.1404 3.1398 25.8601 3.14195 27.1498 4.06753C28.2714 4.87176 29.6824 5.15539 31.0316 4.83586C32.5733 4.47467 34.1638 5.13314 34.9946 6.47878C35.7206 7.65569 36.9197 8.45776 38.2905 8.68179C39.848 8.93598 41.0651 10.1531 41.3207 11.717C41.5433 13.0813 42.3454 14.2805 43.5216 15.0065C44.8672 15.838 45.5271 17.4306 45.1631 18.9716C44.8464 20.3165 45.1271 21.7304 45.9393 22.8599C46.8591 24.1402 46.8598 25.8599 45.9393 27.141Z" fill="#D4AF37"/>
<path d="M32.1899 8.7067C32.3084 8.67941 32.4764 8.73758 32.5503 8.8575C33.5348 10.453 35.1619 11.5423 37.0267 11.8468C37.1653 11.8726 37.2709 11.9789 37.2974 12.129C37.6005 13.9794 38.689 15.6058 40.2838 16.5917C40.5447 16.7532 40.8843 16.6699 41.0428 16.4129C41.203 16.1537 41.1233 15.8141 40.864 15.6539C39.5407 14.8354 38.6373 13.4861 38.381 11.9179C38.2726 11.3269 37.8209 10.8738 37.1919 10.7568C35.6759 10.5088 34.3423 9.62631 33.5221 8.33122C33.2501 7.90183 32.7979 7.60425 32.2897 7.59608C32.1667 7.5941 32.0486 7.60616 31.8883 7.6447C30.0535 8.06027 28.6369 7.42247 27.9709 7.03017C27.7271 6.88658 27.4176 6.95792 27.2553 7.18972C27.2522 7.19427 27.249 7.19882 27.2458 7.20336C27.0598 7.46922 27.1503 7.83082 27.43 7.99519C28.812 8.80713 30.4755 9.09855 32.1899 8.7067Z" fill="#D4AF37"/>
<path d="M41.0895 22.4946C40.7854 22.0966 35.0486 14.5887 34.6959 14.1271C34.6186 14.026 34.4621 13.9202 34.2773 13.9141C34.2036 13.9116 24.9437 13.901 24.8699 13.9095C24.7962 13.9095 15.648 13.9167 15.7216 13.914C15.5451 13.9204 15.3882 14.0205 15.3074 14.1237C15.0561 14.4443 8.95971 22.4272 8.91034 22.4946C8.76981 22.6783 8.76089 22.9777 8.91752 23.1732L24.4391 42.5946C24.6904 42.91 25.309 42.8766 25.4645 42.433C49.3374 12.9932 37.8052 27.2146 41.0795 23.1768C41.2421 22.9777 41.23 22.6768 41.0895 22.4946ZM19.0185 23.3807H30.9771L24.9482 40.5718L19.0185 23.3807ZM24.8778 15.3399L30.5864 22.2778H19.3854L24.8778 15.3399ZM34.4783 15.6585L39.5363 22.2778H32.5193L34.4783 15.6585ZM33.5174 15.0124L31.5292 21.6581L26.0397 15.0124H33.5174ZM18.4699 21.6558L16.4825 15.0124H23.7297L18.4699 21.6558ZM15.5227 15.6571L17.5036 22.2778H10.4635L15.5227 15.6571ZM17.8522 23.3807L23.438 39.5755L10.4951 23.3807H17.8522ZM26.568 39.2865L32.1459 23.3807H39.4925L26.568 39.2865Z" fill="#D4AF37"/>
</svg>
