<svg width="16" height="16" viewBox="0 0 16 16" fill="none" xmlns="http://www.w3.org/2000/svg">
<path d="M12.9948 1.12H3.00765C2.54991 1.12042 2.11104 1.30244 1.78737 1.62611C1.4637 1.94978 1.28167 2.38866 1.28125 2.8464V13.1536C1.28167 13.6113 1.4637 14.0502 1.78737 14.3739C2.11104 14.6975 2.54991 14.8796 3.00765 14.88H12.9948C13.4526 14.8796 13.8915 14.6975 14.2151 14.3739C14.5388 14.0502 14.7208 13.6113 14.7212 13.1536V2.8464C14.7208 2.38866 14.5388 1.94978 14.2151 1.62611C13.8915 1.30244 13.4526 1.12042 12.9948 1.12ZM7.68125 14.24H3.00765C2.71965 14.2396 2.44356 14.125 2.23992 13.9213C2.03627 13.7177 1.92167 13.4416 1.92125 13.1536V2.8464C1.92167 2.55839 2.03627 2.28231 2.23992 2.07866C2.44356 1.87501 2.71965 1.76042 3.00765 1.76H7.68125V14.24ZM14.0812 13.1536C14.0808 13.4416 13.9662 13.7177 13.7626 13.9213C13.5589 14.125 13.2829 14.2396 12.9948 14.24H8.32125V8.31999H14.0812V13.1536ZM14.0812 7.68H8.32125V1.76H12.9948C13.2829 1.76042 13.5589 1.87501 13.7626 2.07866C13.9662 2.28231 14.0808 2.55839 14.0812 2.8464V7.68Z" fill="#6B6B6B"/>
</svg>
