<svg width="50" height="50" viewBox="0 0 50 50" fill="none" xmlns="http://www.w3.org/2000/svg">
<g id="fi_18759261">
<path id="Vector" fill-rule="evenodd" clip-rule="evenodd" d="M40.0338 23.4558C40.0338 32.821 32.3357 38.9983 22.9548 45.481C13.574 38.9983 5.87611 32.8209 5.87611 23.4558V10.0365C5.88811 10.0264 5.91731 10.0073 5.96691 9.99609C10.8487 8.90699 16.6731 7.39579 22.9549 4.44709C27.3108 6.49409 31.6727 7.99959 37.2249 9.36139C35.4896 10.3439 33.7459 11.455 32.049 12.6664C32.0352 12.676 32.0216 12.686 32.0078 12.6956C29.4994 10.4999 26.3065 9.29629 22.9549 9.29629C15.3697 9.29629 9.19861 15.467 9.19861 23.0522C9.19861 30.6375 15.3697 36.8087 22.9549 36.8087C30.5401 36.8087 36.7109 30.6375 36.7109 23.0522C36.7109 20.7376 36.129 18.4661 35.0249 16.45C36.6028 14.7784 38.2792 13.1181 40.0338 11.5115V23.4558ZM14.7069 24.8687C14.5191 24.6717 14.47 24.3811 14.5828 24.1336L16.9415 18.955C17.1306 18.5399 17.673 18.4346 18.0039 18.7474L21.7336 22.2718C24.0993 19.2513 27.2403 16.2487 30.9044 13.5031C28.6748 11.6435 25.8817 10.6268 22.9547 10.6268C16.1031 10.6268 10.5291 16.201 10.5291 23.0523C10.5291 29.9042 16.1031 35.4784 22.9547 35.4784C29.8063 35.4784 35.3803 29.9042 35.3803 23.0523C35.3803 21.1108 34.9268 19.203 34.0638 17.4826C29.0742 22.9182 25.1663 28.3678 23.0336 32.3316C22.8185 32.732 22.2769 32.801 21.9663 32.4764L14.7069 24.8687ZM22.3043 30.9024C25.6885 24.9478 32.5632 16.1903 40.9509 8.91199C33.9378 12.2535 26.5798 18.0072 22.3457 23.6606C22.108 23.9782 21.6447 24.0183 21.3563 23.7453L17.7667 20.3539L15.9803 24.2756L22.3043 30.9024ZM45.3743 6.29999C45.22 6.01379 44.8816 5.88079 44.5741 5.98629C42.7943 6.59339 40.9031 7.41599 38.9784 8.41199C32.6929 6.95079 27.9736 5.35999 23.2404 3.11049C23.0596 3.02469 22.85 3.02469 22.6692 3.11049C16.3978 6.09129 10.5601 7.60799 5.67681 8.69769C5.00021 8.84859 4.54541 9.38229 4.54541 10.0259V23.4558C4.54541 34.2008 14.0961 40.9875 22.5774 46.8367C22.8042 46.9932 23.1057 46.9932 23.3323 46.8367C31.813 40.9814 41.3643 34.2075 41.3643 23.4558V10.3171C42.609 9.22239 43.8887 8.15849 45.1972 7.14109C45.4538 6.94139 45.5288 6.58559 45.3743 6.29999Z" fill="#D4AF37"/>
</g>
</svg>
