<svg width="35" height="35" viewBox="0 0 35 35" fill="none" xmlns="http://www.w3.org/2000/svg">
<path d="M17.5266 19.1772C15.4785 19.1772 13.8125 17.5112 13.8125 15.4631C13.8125 13.4153 15.4785 11.749 17.5266 11.749C19.5747 11.749 21.2407 13.4153 21.2407 15.4631C21.2407 17.5112 19.5747 19.1772 17.5266 19.1772ZM17.5266 13.1162C16.2323 13.1162 15.1797 14.1688 15.1797 15.4631C15.1797 16.7574 16.2323 17.81 17.5266 17.81C18.8209 17.81 19.8735 16.7574 19.8735 15.4631C19.8735 14.1688 18.8206 13.1162 17.5266 13.1162Z" fill="#2C2C2C"/>
<path d="M32.4246 13.0489L29.8721 10.7741V2.99264C29.8721 2.61506 29.5661 2.30905 29.1885 2.30905H25.2645C24.8869 2.30905 24.5809 2.61506 24.5809 2.99264V6.05866L17.9768 0.173357C17.7175 -0.0576228 17.3266 -0.0576228 17.0673 0.173357L2.61947 13.0489C2.47394 13.1787 2.39062 13.3643 2.39062 13.5592V19.2453C2.39062 19.5145 2.54897 19.7588 2.79464 19.8691C3.0403 19.9791 3.32789 19.9348 3.52923 19.7556L5.0059 18.4391V32.9463C5.0059 34.0787 5.92741 35 7.05988 35H27.9842C29.1164 35 30.0379 34.0787 30.0379 32.9463V27.8292C30.0379 27.4519 29.7319 27.1456 29.3543 27.1456C28.9767 27.1456 28.6707 27.4519 28.6707 27.8292V32.9463C28.6707 33.3249 28.3628 33.6328 27.9842 33.6328H25.0349V23.1092C25.0349 22.0766 24.1948 21.2368 23.1625 21.2368H11.8816C10.8493 21.2368 10.0092 22.0766 10.0092 23.1092V33.6328H7.05988C6.68123 33.6328 6.37308 33.3246 6.37308 32.946V17.2204L17.522 7.28245L28.6707 17.2202V21.6462C28.6707 22.0237 28.977 22.3298 29.3543 22.3298C29.7319 22.3298 30.0379 22.0237 30.0379 21.6462V18.4389L31.5148 19.7556C31.6425 19.8694 31.8054 19.9286 31.9699 19.9286C32.0644 19.9286 32.1597 19.9091 32.2494 19.8688C32.4951 19.7588 32.6535 19.5145 32.6535 19.245V13.5592C32.6535 13.3643 32.5701 13.1787 32.4246 13.0489ZM19.07 22.604V26.8826L17.8427 26.2308C17.7423 26.1774 17.6323 26.1509 17.522 26.1509C17.4118 26.1509 17.3017 26.1774 17.2013 26.2308L15.9741 26.8826V22.604H19.07ZM11.3764 23.1092C11.3764 22.8304 11.6028 22.604 11.8816 22.604H14.6069V28.0196C14.6069 28.2596 14.7327 28.4818 14.9383 28.6054C15.1439 28.7291 15.3992 28.7358 15.6112 28.6233L17.522 27.6084L19.4329 28.6233C19.5333 28.6767 19.6433 28.7032 19.7536 28.7032C19.8756 28.7032 19.9977 28.6706 20.1058 28.6054C20.3114 28.4818 20.4372 28.2596 20.4372 28.0196V22.604H23.1625C23.441 22.604 23.6677 22.8304 23.6677 23.1092V33.6328H11.3764V23.1092ZM25.9481 3.67623H28.5049V9.55566L25.9481 7.27711V3.67623ZM31.2863 17.72L17.9768 5.85652C17.8473 5.74089 17.6847 5.68322 17.522 5.68322C17.3594 5.68322 17.1968 5.74089 17.0673 5.85652L3.75781 17.72V13.8658L17.522 1.59929L31.2863 13.8658V17.72Z" fill="#2C2C2C"/>
<path d="M29.3544 25.4213C29.0679 25.4213 28.8086 25.236 28.7114 24.9679C28.6156 24.7035 28.6983 24.3986 28.9122 24.2168C29.136 24.0266 29.4655 24.0021 29.7152 24.1569C29.9544 24.3057 30.0789 24.5951 30.0244 24.8712C29.9619 25.1866 29.6762 25.4213 29.3544 25.4213Z" fill="#2C2C2C"/>
</svg>
