<svg width="35" height="35" viewBox="0 0 35 35" fill="none" xmlns="http://www.w3.org/2000/svg">
<path d="M31.0555 17.6783L27.2477 11.7981C26.9526 11.3424 26.4522 11.0703 25.9092 11.0703H9.10871C8.56655 11.0703 8.06664 11.3417 7.77139 11.7963L3.95175 17.6773C3.56141 18.2781 3.62171 19.0715 4.09838 19.6065L16.3116 33.318C16.6139 33.6574 17.0478 33.852 17.5023 33.852C17.5022 33.852 17.5024 33.852 17.5023 33.852C17.9567 33.852 18.3908 33.6574 18.6931 33.3181L30.9077 19.6057C31.3837 19.0714 31.4445 18.2788 31.0555 17.6783ZM25.1378 12.4374L21.9355 17.3893L18.7312 12.4374H25.1378ZM20.6791 17.9644H14.3255L17.5023 13.0549L20.6791 17.9644ZM16.2734 12.4375L13.0779 17.3759L9.88356 12.4375H16.2734ZM8.61953 13.0004L11.8304 17.9644H5.3955L8.61953 13.0004ZM5.68425 19.3316H12.5643L16.2021 31.1396L5.68425 19.3316ZM17.5023 30.7163L13.9948 19.3316H21.0097L17.5023 30.7163ZM18.8024 31.14L22.4404 19.3316H29.321L18.8024 31.14ZM23.1918 17.9644L26.3997 13.0039L29.6119 17.9644H23.1918Z" fill="#2C2C2C"/>
<path d="M2.07354 17.9644H0.683594C0.306113 17.9644 0 18.2704 0 18.6479C0 19.0255 0.306113 19.3315 0.683594 19.3315H2.07354C2.45103 19.3315 2.75714 19.0255 2.75714 18.6479C2.75714 18.2704 2.45103 17.9644 2.07354 17.9644Z" fill="#2C2C2C"/>
<path d="M34.3157 17.9644H32.9258C32.5483 17.9644 32.2422 18.2704 32.2422 18.6479C32.2422 19.0255 32.5483 19.3315 32.9258 19.3315H34.3157C34.6932 19.3315 34.9993 19.0255 34.9993 18.6479C34.9993 18.2704 34.6932 17.9644 34.3157 17.9644Z" fill="#2C2C2C"/>
<path d="M29.883 6.27717C29.616 6.01023 29.1833 6.01023 28.9162 6.27717L26.6455 8.54787C26.3786 8.81481 26.3786 9.24766 26.6455 9.5146C26.7791 9.64811 26.954 9.71483 27.129 9.71483C27.304 9.71483 27.4788 9.64804 27.6123 9.5146L29.883 7.24391C30.15 6.97697 30.15 6.54418 29.883 6.27717Z" fill="#2C2C2C"/>
<path d="M8.38295 8.53567L6.11233 6.2649C5.84545 5.99796 5.41274 5.99796 5.14552 6.2649C4.87858 6.53185 4.87858 6.9647 5.14552 7.23164L7.41621 9.50234C7.54972 9.63584 7.72465 9.70256 7.89958 9.70256C8.07451 9.70256 8.24945 9.63577 8.38295 9.50234C8.64989 9.23546 8.64989 8.80254 8.38295 8.53567Z" fill="#2C2C2C"/>
<path d="M17.5195 1.14795C17.1421 1.14795 16.8359 1.45399 16.8359 1.83154V6.28639C16.8359 6.66394 17.142 6.96998 17.5195 6.96998C17.897 6.96998 18.2031 6.66394 18.2031 6.28639V1.83154C18.2031 1.45406 17.897 1.14795 17.5195 1.14795Z" fill="#2C2C2C"/>
<path d="M18.0028 8.11564C17.8757 7.98849 17.6993 7.91534 17.5195 7.91534C17.3397 7.91534 17.1634 7.98849 17.0362 8.11564C16.9091 8.24279 16.8359 8.41915 16.8359 8.59894C16.8359 8.77941 16.909 8.95509 17.0362 9.08224C17.1634 9.21007 17.3397 9.28253 17.5195 9.28253C17.6993 9.28253 17.8757 9.21007 18.0028 9.08224C18.1306 8.95509 18.2031 8.77872 18.2031 8.59894C18.2031 8.41915 18.1306 8.24285 18.0028 8.11564Z" fill="#2C2C2C"/>
</svg>
