<svg width="50" height="50" viewBox="0 0 50 50" fill="none" xmlns="http://www.w3.org/2000/svg">
<path d="M6.78909 37.096C4.02894 32.9804 2.76175 27.9835 3.22347 23.0202C3.318 21.9296 3.50862 20.7859 3.78831 19.6296C4.04534 18.6187 4.36722 17.6452 4.74847 16.7312C5.83909 14.0366 7.45081 11.6163 9.53909 9.53587C11.3391 7.72883 13.3961 6.27493 15.6539 5.21477C16.6922 4.72571 17.7735 4.31712 18.8688 3.99993C19.8719 3.70618 20.8735 3.49133 21.8469 3.36008C21.8821 3.3554 21.9164 3.34837 21.95 3.33821C27.6063 2.54602 33.2438 3.94446 37.8242 7.2804C38.2727 7.6054 38.7086 7.94758 39.1305 8.30462L37.4813 8.3929C37.0508 8.41555 36.7196 8.78352 36.743 9.21477C36.7657 9.63196 37.111 9.95461 37.5227 9.95461C37.5367 9.95461 37.5508 9.95461 37.5657 9.95383L41.0571 9.76711C41.1321 9.76321 41.2024 9.73586 41.2727 9.71008C41.2914 9.70383 41.3117 9.70305 41.3297 9.69524C41.3821 9.67102 41.425 9.6343 41.4711 9.59915C41.5094 9.57102 41.55 9.54836 41.5821 9.51477C41.5867 9.51008 41.5938 9.50774 41.5985 9.50227C41.6227 9.47571 41.6321 9.44055 41.6516 9.41086C41.6867 9.36008 41.7219 9.31087 41.7446 9.25227C41.7586 9.21477 41.7594 9.17649 41.768 9.13743C41.7797 9.08352 41.8008 9.03352 41.8008 8.97649C41.8008 8.96633 41.7953 8.95696 41.7946 8.94602C41.7946 8.94055 41.7969 8.93586 41.7969 8.9304L41.5977 5.45071C41.5735 5.02024 41.1899 4.68899 40.7727 4.71555C40.3422 4.74055 40.0125 5.1093 40.0383 5.54055L40.1274 7.10305C39.6797 6.72571 39.2196 6.36087 38.7446 6.01712C33.8117 2.42415 27.7391 0.929615 21.6414 1.80462C21.6102 1.8093 21.5797 1.81555 21.5492 1.82415C20.5274 1.96633 19.4797 2.19368 18.4344 2.49993C17.2625 2.83977 16.1039 3.27727 14.9922 3.80071C12.5696 4.93743 10.3633 6.49602 8.43597 8.43118C6.20081 10.6593 4.47347 13.2538 3.30628 16.1374C2.89925 17.1148 2.55316 18.1601 2.27581 19.2538C1.97503 20.4952 1.77112 21.7171 1.67112 22.8804C1.17737 28.196 2.53519 33.5531 5.49612 37.9663C5.64612 38.1913 5.89378 38.3124 6.14534 38.3124C6.29456 38.3124 6.44612 38.2695 6.57972 38.1804C6.93831 37.9398 7.03362 37.4546 6.793 37.096H6.78909Z" fill="#D4AF37"/>
<path d="M43.4242 11.8196C43.0656 12.0603 42.9703 12.5454 43.2109 12.904C45.9711 17.0196 47.2382 22.0165 46.7765 26.9798C46.682 28.0704 46.4914 29.2142 46.2117 30.3704C45.9547 31.3814 45.6328 32.3548 45.2515 33.2689C44.1609 35.9634 42.5492 38.3837 40.4609 40.4642C38.6609 42.2712 36.6039 43.7251 34.3461 44.7853C33.3078 45.2743 32.2265 45.6829 31.1312 46.0001C30.1281 46.2939 29.1265 46.5087 28.1531 46.6399C28.1179 46.6446 28.0836 46.6517 28.05 46.6618C22.3914 47.4517 16.7562 46.0556 12.1757 42.7196C11.7203 42.3899 11.2875 42.0485 10.8687 41.6946L12.5187 41.6032C12.95 41.579 13.2804 41.211 13.2554 40.7798C13.232 40.3493 12.8546 40.0142 12.4328 40.0431L8.94606 40.236C8.51481 40.2603 8.18434 40.6282 8.20934 41.0595L8.40152 44.5462C8.42418 44.9626 8.76871 45.2845 9.18043 45.2845C9.19528 45.2845 9.20934 45.2845 9.22418 45.2837C9.65543 45.2603 9.9859 44.8915 9.9609 44.4603L9.87496 42.9001C10.3187 43.2743 10.7757 43.636 11.257 43.9845C15.2695 46.9064 20.0351 48.4415 24.9539 48.4415C26.0828 48.4415 27.2211 48.3603 28.3593 48.197C28.3906 48.1923 28.4211 48.186 28.4515 48.1775C29.4734 48.0353 30.5211 47.8079 31.5664 47.5017C32.7382 47.1618 33.8968 46.7243 35.0086 46.2009C37.4312 45.0642 39.6375 43.5056 41.5648 41.5704C43.8 39.3423 45.5273 36.7478 46.6945 33.8642C47.1015 32.8868 47.4476 31.8415 47.725 30.7478C48.0257 29.5064 48.2296 28.2845 48.3297 27.1212C48.8234 21.8056 47.4656 16.4485 44.5047 12.0353C44.2648 11.6767 43.7789 11.5798 43.4211 11.822L43.4242 11.8196Z" fill="#D4AF37"/>
<path d="M37.5625 18.0703C37.5625 17.9844 37.5469 17.9062 37.5156 17.8359C37.5078 17.8047 37.5 17.7812 37.4844 17.7578C37.4531 17.6797 37.4063 17.6172 37.3516 17.5547C37.3438 17.5469 37.3359 17.5391 37.3203 17.5313C37.2812 17.4844 37.2344 17.4453 37.1797 17.4141L25.4297 10.6406C25.1953 10.5 24.8906 10.5 24.6484 10.6406L12.8203 17.4688C12.5781 17.6094 12.4297 17.8672 12.4297 18.1406V31.4062C12.4297 31.4375 12.4453 31.4688 12.4453 31.5C12.4531 31.5547 12.4609 31.6094 12.4844 31.6641C12.5 31.7109 12.5156 31.75 12.5469 31.7891C12.5703 31.8359 12.5938 31.875 12.6328 31.9141C12.6641 31.9531 12.7031 31.9844 12.7422 32.0156C12.7734 32.0391 12.7891 32.0703 12.8203 32.0859L24.5703 38.8672C24.5859 38.8828 24.6094 38.8828 24.625 38.8984C24.6484 38.9062 24.6641 38.9141 24.6875 38.9219C24.7734 38.9531 24.8672 38.9766 24.9609 38.9766C25.0547 38.9766 25.1406 38.9531 25.2344 38.9219C25.25 38.9141 25.2734 38.9062 25.2891 38.8984C25.3125 38.8906 25.3281 38.8828 25.3516 38.875L37.1797 32.0391C37.2109 32.0234 37.2266 31.9922 37.2578 31.9687C37.2969 31.9375 37.3359 31.9141 37.3672 31.875C37.4063 31.8359 37.4297 31.7891 37.4609 31.7422C37.4844 31.7031 37.5 31.6641 37.5156 31.6172C37.5391 31.5625 37.5469 31.5078 37.5547 31.4531C37.5547 31.4219 37.5703 31.3984 37.5703 31.3594V18.0938C37.5703 18.0859 37.5625 18.0781 37.5625 18.0703ZM25.0391 12.2188L35.2266 18.0938L31.3359 20.3438L21.1484 14.4609L25.0391 12.2188ZM24.1797 36.8438L13.9922 30.9609V19.5L24.1797 25.375V36.8438ZM24.9531 24.0234L14.7734 18.1406L19.5859 15.3672L29.7734 21.2422L24.9531 24.0234ZM36.0078 30.9141L25.7422 36.8438V25.375L30.5547 22.5938V24.7266C30.5547 25.1562 30.8984 25.5078 31.3359 25.5078C31.7656 25.5078 32.1172 25.1562 32.1172 24.7266V21.6953L36.0078 19.4453V30.9141Z" fill="#D4AF37"/>
</svg>
