<svg width="50" height="50" viewBox="0 0 50 50" fill="none" xmlns="http://www.w3.org/2000/svg">
<g clip-path="url(#clip0_988_6789)">
<path d="M26.0301 28.325C24.1621 28.3164 22.3063 28.0237 20.5264 27.4571C17.6823 26.5056 15.5699 24.0979 14.9965 21.1543C14.3691 18.1322 15.5125 14.9368 18.1329 12.3876C18.4141 12.1138 18.7063 11.8515 19.0094 11.6007C21.6925 9.35448 25.3097 8.57387 28.6803 9.5137C31.9434 10.5552 34.1981 13.5373 34.3109 16.9608C34.4331 18.9314 33.7908 20.8733 32.5177 22.3824C31.5358 23.6193 29.9448 24.2035 28.3958 23.896C27.7623 23.7646 27.2095 23.3809 26.8649 22.8334C26.5556 22.3015 26.4763 21.6666 26.6452 21.075C27.3739 18.3204 28.1149 14.1341 28.1222 14.0917C28.1739 13.7984 28.3782 13.5551 28.6581 13.4533C28.9379 13.3515 29.2508 13.4067 29.4789 13.5981C29.707 13.7896 29.8156 14.0882 29.7639 14.3814C29.7329 14.5556 29.0034 18.6791 28.2567 21.501C28.2034 21.6574 28.2168 21.8288 28.2937 21.975C28.4089 22.1345 28.5828 22.2416 28.777 22.2729C29.7253 22.4311 30.6832 22.0507 31.2644 21.285C32.2531 20.1022 32.7485 18.5841 32.6478 17.0459C32.5663 14.3209 30.7793 11.9418 28.1849 11.1042C25.353 10.3253 22.3191 10.9907 20.0732 12.8834C19.8054 13.1056 19.545 13.3383 19.2952 13.5816C17.9997 14.8418 15.9309 17.4566 16.628 20.8149C17.0964 23.1612 18.7721 25.084 21.0323 25.8687C24.9406 27.1154 30.5566 27.2655 33.5156 23.5864C33.8063 23.2362 34.3242 23.1841 34.6788 23.4692C35.0335 23.7543 35.0939 24.2713 34.8144 24.6304C32.6264 27.3515 29.2967 28.325 26.0301 28.325Z" fill="#D4AF37"/>
<path d="M23.1775 24.0044C22.2967 24.0195 21.4375 23.7307 20.7447 23.1865C19.1452 21.9064 19.1012 19.6826 19.5496 18.1682C19.7006 17.6639 19.9034 17.1765 20.1547 16.7139C20.7799 15.4523 21.7797 14.4147 23.0173 13.7431C24.5584 12.9435 26.4413 13.2467 27.6534 14.4898C28.2548 15.1488 28.7078 15.9292 28.9818 16.7782C29.1269 17.2091 28.8999 17.6767 28.4716 17.8292C28.0433 17.9818 27.5718 17.7629 27.4119 17.3373C27.2144 16.71 26.886 16.1318 26.4484 15.6409C25.7417 14.9182 24.6406 14.7537 23.7536 15.2385C22.8255 15.7618 22.0797 16.5565 21.6161 17.5159C21.4213 17.8753 21.2639 18.2538 21.1465 18.6455C20.8227 19.7409 20.8938 21.1705 21.7874 21.886C22.7643 22.6705 24.4124 22.3389 25.3397 21.539C26.0307 20.9168 26.6245 20.1946 27.1011 19.3962C27.2554 19.1376 27.5373 18.9824 27.8384 18.9902C28.1395 18.9981 28.4129 19.1678 28.5536 19.4341C28.6942 19.7005 28.6802 20.022 28.5169 20.275C27.9524 21.2157 27.2495 22.0662 26.4319 22.7978C25.5207 23.5666 24.3697 23.9934 23.1775 24.0044Z" fill="#D4AF37"/>
<path d="M47.5 50H2.5C1.11992 49.9985 0.00151559 48.88 0 47.5V16.6666C1.31e-05 16.3435 0.186847 16.0495 0.479403 15.9122C0.771958 15.775 1.11749 15.8192 1.366 16.0258L21.8136 33.0195C23.6637 34.5475 26.3381 34.547 28.1877 33.0184L48.6333 16.0258C48.8818 15.8188 49.2276 15.7743 49.5205 15.9116C49.8133 16.0489 50.0002 16.3432 50 16.6666V47.5C49.9985 48.88 48.8801 49.9985 47.5 50ZM1.66667 18.4427V47.5C1.66726 47.96 2.04001 48.3327 2.5 48.3333H47.5C47.9601 48.3329 48.3329 47.96 48.3333 47.5V18.4427L29.2517 34.301C26.7846 36.34 23.2173 36.3405 20.7495 34.3023L1.66667 18.4427Z" fill="#D4AF37"/>
<path d="M0.834149 17.5C0.471174 17.5003 0.149737 17.2657 0.039454 16.9199C-0.0708286 16.5741 0.055414 16.1966 0.351566 15.9868L7.85157 10.6701C8.22706 10.4098 8.74209 10.5005 9.00622 10.8732C9.27034 11.246 9.18508 11.7619 8.81507 12.0299L1.31507 17.3466C1.17463 17.4465 1.00651 17.5002 0.834149 17.5Z" fill="#D4AF37"/>
<path d="M49.1693 17.5C48.9969 17.5002 48.8288 17.4465 48.6883 17.3466L41.1883 12.0299C40.8183 11.7619 40.7331 11.246 40.9972 10.8732C41.2613 10.5005 41.7763 10.4098 42.1518 10.6701L49.6518 15.9868C49.948 16.1966 50.0742 16.5741 49.964 16.9199C49.8537 17.2657 49.5322 17.5003 49.1693 17.5Z" fill="#D4AF37"/>
<path d="M32.7014 5.83332C32.5289 5.83341 32.3606 5.77979 32.22 5.6799L28.2366 2.8549C26.3876 1.29239 23.6856 1.27611 21.8178 2.81623L17.7845 5.67998C17.5415 5.85225 17.2252 5.88183 16.9545 5.7576C16.6839 5.63336 16.5001 5.37418 16.4724 5.07768C16.4447 4.78118 16.5772 4.49241 16.8201 4.32015L20.8035 1.49515C23.2648 -0.517378 26.8077 -0.50137 29.2508 1.53332L33.1841 4.31982C33.4805 4.52963 33.6069 4.90724 33.4966 5.25322C33.3862 5.5992 33.0645 5.83387 32.7014 5.83332Z" fill="#D4AF37"/>
<path d="M1.37317 49.55C1.02197 49.5503 0.70828 49.3304 0.588808 49.0002C0.469336 48.6699 0.569729 48.3002 0.839832 48.0758L19.8565 32.2758C20.085 32.0815 20.4003 32.025 20.6821 32.1278C20.9638 32.2307 21.1686 32.477 21.2182 32.7728C21.2678 33.0687 21.1546 33.3683 20.9217 33.5574L1.90508 49.3574C1.75578 49.4819 1.56754 49.5501 1.37317 49.55Z" fill="#D4AF37"/>
<path d="M48.6216 49.5499C48.4274 49.5501 48.2393 49.4819 48.0902 49.3574L29.0736 33.5574C28.8407 33.3683 28.7275 33.0687 28.7771 32.7728C28.8267 32.477 29.0315 32.2307 29.3132 32.1278C29.595 32.025 29.9103 32.0815 30.1388 32.2758L49.155 48.0758C49.4251 48.3002 49.5255 48.6699 49.406 49.0002C49.2865 49.3304 48.9728 49.5502 48.6216 49.5499Z" fill="#D4AF37"/>
<path d="M41.6667 23.7334C41.2064 23.7334 40.8333 23.3603 40.8333 22.9V5.83985C40.8309 5.85735 40.7975 5.83377 40.7417 5.83335H9.25833C9.2215 5.83109 9.18535 5.84405 9.15833 5.86919L9.16667 22.9C9.16667 23.3603 8.79357 23.7334 8.33333 23.7334C7.8731 23.7334 7.5 23.3603 7.5 22.9V5.83335C7.52688 4.88827 8.31316 4.14298 9.25833 4.16669H40.7417C41.6868 4.14307 42.473 4.88831 42.5 5.83335V22.9C42.5 23.3603 42.1269 23.7334 41.6667 23.7334Z" fill="#D4AF37"/>
</g>
<defs>
<clipPath id="clip0_988_6789">
<rect width="50" height="50" fill="white"/>
</clipPath>
</defs>
</svg>
