<svg width="50" height="50" viewBox="0 0 50 50" fill="none" xmlns="http://www.w3.org/2000/svg">
<path d="M37.4224 31.5588L38.7205 29.9966L39.9223 30.9952L38.6241 32.5574L37.4224 31.5588Z" fill="#2C2C2C"/>
<path d="M39.3781 28.9522L42.8394 24.7515C43.0263 24.5204 43.054 24.1984 42.9017 23.9463L38.7482 16.9452C38.6236 16.7351 38.3951 16.6021 38.1528 16.6021H29.8942L32.1925 15.5869L31.6387 14.3057L26.5368 16.5601L29.6727 12.8635L28.6205 11.9533L25.6853 15.4189V13.8086H26.3776C26.7583 13.8086 27.0698 13.4936 27.0698 13.1085V11.0082H31.9156C32.2964 11.0082 32.6079 10.6931 32.6079 10.3081V8.2077H38.1459C38.5267 8.2077 38.8382 7.89265 38.8382 7.50758V4.70012C38.8382 4.31505 38.5267 4 38.1459 4H11.8472C11.4664 4 11.1549 4.31505 11.1549 4.70012V7.50058C11.1549 7.88565 11.4664 8.2007 11.8472 8.2007H17.3852V10.3011C17.3852 10.6861 17.6967 11.0012 18.0774 11.0012H22.9232V13.1015C22.9232 13.4866 23.2347 13.8016 23.6155 13.8016H24.3077V15.4119L21.3726 11.9463L20.3204 12.8565L23.4563 16.5531L18.3544 14.2987L17.8005 15.5799L20.0988 16.5951H11.8472C11.6049 16.5951 11.3764 16.7211 11.2518 16.9382L7.09828 23.9393C6.94599 24.1914 6.97368 24.5204 7.16059 24.7445L24.467 45.748C24.5985 45.909 24.7923 46 25 46C25.2077 46 25.4015 45.909 25.533 45.748L35.9169 33.1459L34.8508 32.2497L26.8137 42.0023L32.421 24.9965H40.825L38.3121 28.049L39.3781 28.9452V28.9522ZM25.6923 12.4014H24.3077V11.0012H25.6923V12.4014ZM12.5394 6.80047V5.40023H37.4606V6.80047H12.5394ZM18.7697 9.60093V8.2007H31.2303V9.60093H18.7697ZM11.9579 18.4714L16.5199 23.6033H8.91891L11.9648 18.4714H11.9579ZM9.16813 25.0035H17.5721L23.1794 42.0093L9.17505 25.0035H9.16813ZM24.9931 43.0945L19.0328 25.0035H30.9534L24.9931 43.0945ZM20.0435 23.6033L24.9931 19.5986L29.9427 23.6033H20.0435ZM31.8395 23.3442L25.4292 18.1564C25.1731 17.9533 24.82 17.9533 24.5639 18.1564L18.1536 23.3442L13.3978 18.0023H36.5953L31.8395 23.3442ZM33.4732 23.6033L38.0352 18.4714L41.0811 23.6033H33.4732Z" fill="#2C2C2C"/>
<path d="M12.1851 12.4358L12.8116 11.0045L15.9389 12.3736L15.3123 13.8048L12.1851 12.4358Z" fill="#2C2C2C"/>
<path d="M34.0596 12.3657L37.1869 10.9967L37.8134 12.4279L34.6861 13.797L34.0596 12.3657Z" fill="#2C2C2C"/>
</svg>
