<svg width="35" height="35" viewBox="0 0 35 35" fill="none" xmlns="http://www.w3.org/2000/svg">
<g clip-path="url(#clip0_0_1)">
<path d="M34.8057 11.2205L30.6407 7.05546C30.5381 6.95292 30.399 6.89529 30.254 6.89529H21.9243C21.9242 6.89529 21.9241 6.89529 21.9239 6.89529H13.5941C13.4491 6.89529 13.31 6.95292 13.2074 7.05546L9.04244 11.2205C8.93956 11.3234 8.88193 11.4631 8.88228 11.6085C8.88262 11.754 8.94093 11.8934 9.04429 11.9958L21.5995 24.4304C21.7062 24.5359 21.8453 24.5887 21.9844 24.5887C22.1244 24.5887 22.2643 24.5353 22.371 24.4285L34.8056 11.9939C35.0192 11.7803 35.0192 11.4341 34.8057 11.2205ZM25.3303 12.154L21.9293 22.3571L18.5186 12.154H25.3303ZM19.0794 11.0603L21.9242 8.21552L24.7689 11.0603H19.0794ZM23.2443 7.98904H28.9337L26.089 10.8338L23.2443 7.98904ZM17.7591 10.8338L14.9144 7.98904H20.6039L17.7591 10.8338ZM17.3653 12.154L20.6352 21.9359L10.7585 12.154H17.3653ZM26.4832 12.154H33.0987L23.1754 22.0774L26.4832 12.154ZM27.4092 11.0603L30.2539 8.21552L33.0987 11.0603H27.4092ZM13.5942 8.21559L16.4389 11.0604H10.7494L13.5942 8.21559ZM21.3772 4.82797V0.740967C21.3772 0.438955 21.622 0.194092 21.9241 0.194092C22.2261 0.194092 22.471 0.438955 22.471 0.740967V4.82797C22.471 5.12998 22.2261 5.37484 21.9241 5.37484C21.622 5.37484 21.3772 5.13005 21.3772 4.82797ZM25.9344 5.26567L27.9664 1.96487C28.1248 1.70771 28.4616 1.62752 28.7189 1.78584C28.9761 1.94416 29.0562 2.28104 28.8978 2.5382L26.8658 5.839C26.7625 6.00683 26.5832 6.09925 26.3996 6.09925C26.3018 6.09925 26.2028 6.07307 26.1134 6.01804C25.8562 5.85972 25.776 5.52291 25.9344 5.26567ZM14.9503 2.53827C14.7919 2.2811 14.8721 1.94423 15.1293 1.78591C15.3865 1.62766 15.7233 1.70771 15.8817 1.96494L17.9137 5.26574C18.072 5.52291 17.992 5.85979 17.7347 6.01811C17.6453 6.07314 17.5463 6.09932 17.4485 6.09932C17.2649 6.09932 17.0856 6.00689 16.9823 5.83907L14.9503 2.53827ZM32.2543 25.2775C31.5621 24.8778 30.7581 24.7709 29.9906 24.9767L20.9139 27.4086C21.0038 26.9376 20.988 26.4476 20.8616 25.9682C20.64 25.1276 20.1074 24.4255 19.362 23.9912L11.2254 19.2507C11.2043 19.2384 11.1824 19.2275 11.1598 19.2181C9.89926 18.6949 8.6208 18.6938 7.36025 19.2147L4.44015 20.4209V19.9282C4.44015 19.3305 3.95391 18.8443 3.35631 18.8443H1.11802C0.52042 18.8443 0.0341797 19.3305 0.0341797 19.9282V32.0385C0.0341797 32.6362 0.52042 33.1224 1.11802 33.1224H3.35624C3.95384 33.1224 4.44008 32.6362 4.44008 32.0385V31.5278C5.97475 30.9017 7.21731 30.9408 8.55107 31.6473L13.2695 34.1469C14.1005 34.5871 14.9177 34.8059 15.7418 34.8059C16.1648 34.8059 16.5898 34.7482 17.0192 34.6332L31.5358 30.7437C33.1255 30.3177 34.0722 28.6776 33.6464 27.0877C33.4409 26.32 32.9466 25.6772 32.2543 25.2775ZM1.12793 32.0287V19.9381H3.3464V32.0287H1.12793ZM31.2528 29.6872L16.7362 33.5767C15.7502 33.8409 14.7837 33.7113 13.7816 33.1804L9.06322 30.6809C7.55686 29.8828 6.1062 29.7764 4.44022 30.3585V21.6044L7.77793 20.2256C8.76367 19.8182 9.72234 19.8146 10.7075 20.2148L18.8115 24.9363C19.3043 25.2235 19.6569 25.689 19.8041 26.2472C19.9512 26.8053 19.8741 27.3841 19.587 27.877C19.2993 28.3707 18.8339 28.7236 18.2765 28.8706C17.7192 29.0175 17.1402 28.94 16.6464 28.6524L12.3 26.1201C12.039 25.9682 11.7042 26.0564 11.5522 26.3174C11.4002 26.5784 11.4884 26.9131 11.7494 27.0652L16.0958 29.5974C16.5956 29.8886 17.1525 30.0375 17.7181 30.0375C17.997 30.0375 18.278 30.0013 18.5554 29.9282C19.2937 29.7334 19.9253 29.298 20.3626 28.6887L30.2737 26.0332C30.7591 25.9032 31.2682 25.9711 31.7075 26.2247C32.1467 26.4783 32.4601 26.8853 32.5901 27.3706C32.8598 28.3781 32.2599 29.4173 31.2528 29.6872Z" fill="#D4AF37"/>
</g>
<defs>
<clipPath id="clip0_0_1">
<rect width="35" height="35" fill="white"/>
</clipPath>
</defs>
</svg>
