<svg width="50" height="50" viewBox="0 0 50 50" fill="none" xmlns="http://www.w3.org/2000/svg">
<path fill-rule="evenodd" clip-rule="evenodd" d="M45.7031 20.9961C45.5078 20.9961 45.3125 20.8984 45.2148 20.8008L38.7695 13.2812C38.4766 12.9883 38.4766 12.5 38.7695 12.3047C39.0625 12.0117 39.5508 12.0117 39.7461 12.3047L46.1914 19.8242C46.4844 20.1172 46.4844 20.6055 46.1914 20.8008C45.9961 20.8984 45.8984 20.9961 45.7031 20.9961Z" fill="#D4AF37"/>
<path fill-rule="evenodd" clip-rule="evenodd" d="M25 50.0001C24.8047 50.0001 24.6094 49.9024 24.4141 49.7071L3.71099 20.7032C3.51568 20.4102 3.61333 20.0196 3.9063 19.7266C4.19927 19.5313 4.58989 19.629 4.88286 19.9219L25 48.1446L45.1172 19.9219C45.3126 19.629 45.8008 19.5313 46.0938 19.7266C46.3868 20.0196 46.4844 20.4102 46.2891 20.7032L25.586 49.7071C25.3907 49.9024 25.1954 50.0001 25 50.0001Z" fill="#D4AF37"/>
<path fill-rule="evenodd" clip-rule="evenodd" d="M25 50C24.707 50 24.5117 49.8047 24.4141 49.6094L13.2813 24.414C13.0859 24.0234 13.2813 23.6328 13.5742 23.5351C13.9648 23.3398 14.3555 23.5351 14.4531 23.8281L25 47.6562L35.4492 23.9258L33.1055 15.8203C33.0078 15.4297 33.2031 15.039 33.5938 14.9414C33.9844 14.8437 34.375 15.039 34.4727 15.4297L36.8164 23.8281C36.8164 24.0234 36.8164 24.1211 36.7188 24.3164L25.5859 49.6094C25.4883 49.8047 25.293 50 25 50Z" fill="#D4AF37"/>
<path fill-rule="evenodd" clip-rule="evenodd" d="M13.8672 24.8047C13.7695 24.8047 13.7695 24.8047 13.6719 24.8047C13.2812 24.707 13.0859 24.3164 13.1836 23.9258L15.5273 15.4297C15.625 15.039 16.0156 14.8437 16.4062 14.9414C16.6992 15.039 16.9922 15.4297 16.8945 15.8203L14.5508 24.3164C14.4531 24.6094 14.1601 24.8047 13.8672 24.8047Z" fill="#D4AF37"/>
<path fill-rule="evenodd" clip-rule="evenodd" d="M13.8672 24.8047C13.7695 24.8047 13.6719 24.8047 13.5742 24.8047L4.00392 20.9961C3.71095 20.8008 3.51564 20.4102 3.61329 20.0195C3.80861 19.7266 4.19923 19.5313 4.58986 19.7266L14.1602 23.5352C14.4531 23.6328 14.6485 24.0234 14.4531 24.4141C14.3555 24.6094 14.1602 24.8047 13.8672 24.8047Z" fill="#D4AF37"/>
<path fill-rule="evenodd" clip-rule="evenodd" d="M36.1328 24.8047H13.8672C13.4766 24.8047 13.1836 24.5117 13.1836 24.1211C13.1836 23.7305 13.4766 23.4375 13.8672 23.4375H36.0352L45.4102 19.7266C45.8008 19.5313 46.1914 19.7266 46.3867 20.0195C46.4844 20.4102 46.2891 20.8008 45.9961 20.9961L36.4258 24.8047C36.3281 24.8047 36.2305 24.8047 36.1328 24.8047Z" fill="#D4AF37"/>
<path fill-rule="evenodd" clip-rule="evenodd" d="M33.7891 16.3086H16.2109C15.8203 16.3086 15.5273 16.0156 15.5273 15.625C15.5273 15.2344 15.8203 14.9414 16.2109 14.9414H33.7891C34.1797 14.9414 34.4727 15.2344 34.4727 15.625C34.4727 16.0156 34.1797 16.3086 33.7891 16.3086Z" fill="#D4AF37"/>
<path fill-rule="evenodd" clip-rule="evenodd" d="M16.2109 16.3086C16.1133 16.3086 16.0156 16.3086 15.918 16.2109L10.4492 13.3789C10.0586 13.1836 9.96094 12.793 10.1562 12.5C10.3516 12.1094 10.7422 12.0117 11.0352 12.207L16.5039 15.0391C16.8945 15.2344 16.9922 15.625 16.7969 15.918C16.6992 16.2109 16.4062 16.3086 16.2109 16.3086Z" fill="#D4AF37"/>
<path fill-rule="evenodd" clip-rule="evenodd" d="M4.29687 20.9961C4.10156 20.9961 4.00391 20.8984 3.80859 20.8008C3.51563 20.6055 3.51563 20.1172 3.80859 19.8242L10.2539 12.3047C10.2539 12.3047 10.3516 12.207 10.4492 12.207L15.4297 10.1562C15.5273 10.0586 15.625 10.0586 15.7227 10.0586H34.2773C34.375 10.0586 34.4727 10.0586 34.5703 10.1562L39.5508 12.207C39.8437 12.3047 40.0391 12.6953 39.8437 13.0859C39.7461 13.3789 39.3555 13.5742 38.9648 13.3789L34.1797 11.4258H15.8203L11.1328 13.3789L4.78516 20.7031C4.6875 20.8984 4.49219 20.9961 4.29687 20.9961Z" fill="#D4AF37"/>
<path fill-rule="evenodd" clip-rule="evenodd" d="M33.7891 16.3086C33.4961 16.3086 33.3008 16.2109 33.2031 15.918C33.0078 15.625 33.1055 15.2344 33.4961 15.0391L38.9648 12.207C39.2578 12.0117 39.6484 12.1094 39.8438 12.5C40.0391 12.793 39.9414 13.2812 39.5508 13.3789L34.082 16.2109C33.9844 16.3086 33.8867 16.3086 33.7891 16.3086Z" fill="#D4AF37"/>
<path fill-rule="evenodd" clip-rule="evenodd" d="M25 6.44531C24.6094 6.44531 24.3164 6.15234 24.3164 5.76172V0.683594C24.3164 0.292969 24.6094 0 25 0C25.3906 0 25.6836 0.292969 25.6836 0.683594V5.76172C25.6836 6.15234 25.3906 6.44531 25 6.44531Z" fill="#D4AF37"/>
<path fill-rule="evenodd" clip-rule="evenodd" d="M30.7617 7.22668C30.664 7.22668 30.664 7.22668 30.5664 7.22668C30.1758 7.12902 29.9805 6.73839 30.0781 6.34777L31.3476 1.46496C31.4453 1.17199 31.8359 0.879019 32.2265 0.976675C32.5195 1.07433 32.8125 1.46496 32.7148 1.85558L31.4453 6.73839C31.3476 7.03136 31.0547 7.22668 30.7617 7.22668Z" fill="#D4AF37"/>
<path fill-rule="evenodd" clip-rule="evenodd" d="M36.1329 9.375C36.0352 9.375 35.9376 9.375 35.7422 9.27734C35.4493 9.08203 35.3516 8.69141 35.5469 8.39844L38.086 4.00391C38.2813 3.61328 38.6719 3.51562 38.9649 3.71094C39.3555 3.90625 39.4532 4.29688 39.2579 4.6875L36.7188 9.08203C36.6211 9.27734 36.3282 9.375 36.1329 9.375Z" fill="#D4AF37"/>
<path fill-rule="evenodd" clip-rule="evenodd" d="M13.8672 9.375C13.6719 9.375 13.379 9.27734 13.2813 9.08203L10.7422 4.6875C10.5469 4.29688 10.6446 3.90625 10.9376 3.71094C11.3282 3.51562 11.7188 3.61328 11.9141 4.00391L14.4532 8.39844C14.6485 8.69141 14.5508 9.08203 14.1602 9.27734C14.0626 9.375 13.9649 9.375 13.8672 9.375Z" fill="#D4AF37"/>
<path fill-rule="evenodd" clip-rule="evenodd" d="M19.2383 7.22668C18.9453 7.22668 18.6523 7.03136 18.5547 6.73839L17.2851 1.85558C17.1875 1.46496 17.3828 1.07433 17.7734 0.976675C18.164 0.879019 18.5547 1.17199 18.6523 1.46496L19.9219 6.34777C20.0195 6.73839 19.7265 7.12902 19.4336 7.22668C19.3359 7.22668 19.3359 7.22668 19.2383 7.22668Z" fill="#D4AF37"/>
</svg>
