<svg width="50" height="50" viewBox="0 0 50 50" fill="none" xmlns="http://www.w3.org/2000/svg">
<path d="M11.1455 12.9272C11.5539 12.9272 11.8853 12.5962 11.8853 12.1875C11.8853 11.7789 11.5539 11.4478 11.1455 11.4478H6.57568C6.16729 11.4478 5.83594 11.7788 5.83594 12.1875C5.83594 12.5961 6.16729 12.9272 6.57568 12.9272H11.1455Z" fill="#D4AF37"/>
<path d="M11.1696 16.0571H8.87479C8.46639 16.0571 8.13504 16.3882 8.13504 16.7969C8.13504 17.2056 8.46639 17.5366 8.87479 17.5366H11.1696C11.578 17.5366 11.9094 17.2056 11.9094 16.7969C11.9094 16.3882 11.578 16.0571 11.1696 16.0571Z" fill="#D4AF37"/>
<path d="M0.58905 21.4062C0.58905 21.8148 0.920398 22.146 1.3288 22.146H11.0815C11.4899 22.146 11.8213 21.8149 11.8213 21.4062C11.8213 20.9977 11.4899 20.6665 11.0815 20.6665H1.3287C0.9203 20.6665 0.58905 20.9977 0.58905 21.4062Z" fill="#D4AF37"/>
<path d="M8.22656 25.2759C7.81816 25.2759 7.48682 25.6069 7.48682 26.0156C7.48682 26.4243 7.81816 26.7554 8.22656 26.7554H11.1099C11.5183 26.7554 11.8496 26.4243 11.8496 26.0156C11.8496 25.6069 11.5183 25.2759 11.1099 25.2759H8.22656Z" fill="#D4AF37"/>
<path d="M11.8525 30.625C11.8525 30.2164 11.5212 29.8853 11.1128 29.8853H7.04715C6.63875 29.8853 6.3074 30.2163 6.3074 30.625C6.3074 31.0337 6.63875 31.3647 7.04715 31.3647H11.1128C11.5212 31.3647 11.8525 31.0337 11.8525 30.625Z" fill="#D4AF37"/>
<path d="M49.4109 31.1325V11.6882C49.4109 11.4446 49.2651 11.1747 49.0357 11.0409L32.3511 1.31465C32.1209 1.18027 31.8357 1.18027 31.6056 1.31465L14.9213 11.0409C14.7027 11.1683 14.5461 11.4092 14.5461 11.6882V31.1325C14.5461 31.3957 14.6857 31.6392 14.9136 31.7716L17.7265 33.4105C17.6647 33.8962 17.7074 33.5204 17.6942 41.0533C17.6942 43.0466 19.3157 44.6682 21.3091 44.6682H28.1877L30.7878 48.0742C31.1331 48.527 31.6575 48.7865 32.2272 48.7865C32.7965 48.7865 33.3214 48.5267 33.6672 48.0735L36.263 44.6682H43.1411C45.1345 44.6682 46.7559 43.0444 46.7559 41.0485C46.7313 33.5559 46.8116 33.7785 46.6835 33.1467L49.0435 31.7716C49.2713 31.6392 49.4109 31.3957 49.4109 31.1325ZM47.1942 11.68L40.8785 15.3616L25.6627 6.4917L31.9783 2.80996L47.1942 11.68ZM31.9783 20.55L16.7629 11.68L24.1936 7.34814L39.4095 16.2181L31.9783 20.55ZM16.0255 30.7075V12.9629L31.2385 21.8314V30.2485H21.3139C20.0064 30.2485 18.8621 30.9478 18.2259 31.9896L16.0255 30.7075ZM45.2765 41.0485C45.2765 42.2287 44.3185 43.1888 43.1411 43.1888H35.8965C35.6658 43.1888 35.4481 43.2964 35.308 43.4802L32.4907 47.1767C32.404 47.2903 32.2885 47.3071 32.2268 47.3071C32.1657 47.3071 32.0506 47.2902 31.9639 47.1769L29.1417 43.4797C29.0016 43.2965 28.7844 43.1888 28.5537 43.1888H21.3091C20.1315 43.1888 19.1737 42.2309 19.1737 41.0534V33.8683C19.1737 32.6881 20.134 31.728 21.314 31.728H43.1412C44.3187 31.728 45.2765 32.6881 45.2765 33.8683L45.2765 41.0485ZM46.0891 31.7808C45.4338 30.8554 44.3578 30.2485 43.1411 30.2485H32.718V21.8314L40.1668 17.4893V21.4063C40.1668 21.8149 40.4981 22.1461 40.9065 22.1461C41.3149 22.1461 41.6463 21.815 41.6463 21.4063V16.6269L47.9315 12.9629V30.7072L46.0891 31.7808Z" fill="#D4AF37"/>
<path d="M25.2147 34.2168H22.3641C21.9557 34.2168 21.6244 34.5478 21.6244 34.9565V39.9603C21.6244 40.3688 21.9557 40.7 22.3641 40.7C22.7725 40.7 23.1039 40.3689 23.1039 39.9603V38.6378H24.8116C25.22 38.6378 25.5513 38.3067 25.5513 37.898C25.5513 37.4894 25.22 37.1583 24.8116 37.1583H23.1039V35.6962H25.2147C25.6231 35.6962 25.9545 35.3651 25.9545 34.9564C25.9545 34.5478 25.6231 34.2168 25.2147 34.2168Z" fill="#D4AF37"/>
<path d="M36.4412 35.6963C36.8496 35.6963 37.1809 35.3652 37.1809 34.9565C37.1809 34.5478 36.8496 34.2168 36.4412 34.2168H33.5906C33.1822 34.2168 32.8509 34.5478 32.8509 34.9565V39.9603C32.8509 40.3688 33.1822 40.7 33.5906 40.7H36.4412C36.8496 40.7 37.1809 40.3689 37.1809 39.9603C37.1809 39.5517 36.8496 39.2205 36.4412 39.2205H34.3304V38.198H36.0381C36.4465 38.198 36.7778 37.867 36.7778 37.4583C36.7778 37.0496 36.4465 36.7186 36.0381 36.7186H34.3304V35.6961H36.4412V35.6963Z" fill="#D4AF37"/>
<path d="M42.0854 35.6963C42.4938 35.6963 42.8252 35.3652 42.8252 34.9565C42.8252 34.5478 42.4938 34.2168 42.0854 34.2168H39.2349C38.8265 34.2168 38.4951 34.5478 38.4951 34.9565V39.9603C38.4951 40.3688 38.8265 40.7 39.2349 40.7H42.0854C42.4938 40.7 42.8252 40.3689 42.8252 39.9603C42.8252 39.5517 42.4938 39.2205 42.0854 39.2205H39.9746V38.198H41.6823C42.0907 38.198 42.4221 37.867 42.4221 37.4583C42.4221 37.0496 42.0907 36.7186 41.6823 36.7186H39.9746V35.6961H42.0854V35.6963Z" fill="#D4AF37"/>
<path d="M30.1988 38.0381C30.8206 37.6864 31.2463 37.027 31.2463 36.2633C31.2463 35.1349 30.3279 34.2168 29.1995 34.2168H27.6559C27.2475 34.2168 26.9162 34.5478 26.9162 34.9565V39.9603C26.9162 40.3688 27.2475 40.7 27.6559 40.7C28.0643 40.7 28.3957 40.3689 28.3957 39.9603V38.3099H28.5972L29.9907 40.3742C30.2206 40.7145 30.6813 40.8009 31.0175 40.5733C31.3565 40.3448 31.4456 39.8849 31.2169 39.5464L30.1988 38.0381ZM28.3957 35.6962H29.1995C29.5125 35.6962 29.7668 35.9505 29.7668 36.2633C29.7668 36.5761 29.5125 36.8304 29.1995 36.8304H28.3957V35.6962Z" fill="#D4AF37"/>
</svg>
