<svg width="42" height="36" viewBox="0 0 42 36" fill="none" xmlns="http://www.w3.org/2000/svg">
<path d="M29.6401 2.62606C27.183 0.124647 23.2068 0.124647 20.7497 2.62606C18.2927 0.124647 14.3165 0.124647 11.8594 2.62606C9.40234 5.12747 9.40234 9.16922 11.8594 11.6706L20.7497 20.7152L29.6401 11.6706C32.0972 9.16922 32.0972 5.1143 29.6401 2.62606Z" stroke="#D4AF37" stroke-width="1.5" stroke-linecap="round" stroke-linejoin="round"/>
<path d="M22.9961 35.75V30.3259V28.1668C22.9961 24.283 28.0423 24.0855 31.1203 18.8194C31.358 18.3718 32.2695 18.1611 32.679 18.1611C33.3131 18.1611 34.185 18.6219 34.185 19.3987C34.185 20.9127 32.93 22.374 32.3488 23.6774C36.8402 20.5441 39.6671 14.7382 39.6671 8.84009C40.3541 10.6042 40.7504 12.5264 40.7504 14.5275C40.7504 19.6883 38.1876 24.283 34.3171 27.1662L34.3567 27.2189C31.8204 29.141 29.2048 32.2612 29.2048 35.6842" stroke="#D4AF37" stroke-width="1.5" stroke-miterlimit="10" stroke-linejoin="round"/>
<path d="M18.6364 35.75V30.3259V28.1668C18.6364 24.283 13.5241 24.0855 10.4462 18.8194C10.2084 18.3718 9.27047 18.1611 8.84775 18.1611C8.21366 18.1611 7.32859 18.6219 7.32859 19.3987C7.32859 20.9127 8.58354 22.374 9.16479 23.6774C4.67338 20.5441 1.83322 14.7382 1.83322 8.84009C1.1463 10.6042 0.75 12.5264 0.75 14.5275C0.75 19.6883 3.31274 24.283 7.18328 27.1662L7.13044 27.2189C9.66677 29.141 12.3484 32.2612 12.3484 35.6842" stroke="#D4AF37" stroke-width="1.5" stroke-miterlimit="10" stroke-linejoin="round"/>
</svg>
