<svg width="50" height="50" viewBox="0 0 50 50" fill="none" xmlns="http://www.w3.org/2000/svg">
<path d="M46.3757 20.8615C45.7188 20.0543 45.0981 19.2918 44.8567 18.5479C44.5984 17.7529 44.6499 16.7378 44.7041 15.6632C44.7838 14.0908 44.8662 12.4646 43.9617 11.2222C43.0477 9.96637 41.4669 9.54255 39.938 9.13247C38.9061 8.85591 37.9318 8.5946 37.2688 8.11205C36.6188 7.63902 36.0771 6.80094 35.503 5.91364C34.6375 4.57506 33.7425 3.19071 32.2445 2.70395C30.8087 2.2378 29.3026 2.81344 27.8462 3.36962C26.8707 3.74231 25.8618 4.12759 25 4.12759C24.1383 4.12759 23.1293 3.74231 22.1539 3.36962C20.697 2.81305 19.1918 2.23856 17.7555 2.70395C16.4013 3.14417 15.5373 4.32444 14.7682 5.49593C14.5313 5.8568 14.632 6.34088 14.9925 6.57778C15.3546 6.81429 15.8379 6.71473 16.0744 6.35348C16.6908 5.4143 17.366 4.47359 18.2381 4.19016C19.1506 3.89567 20.3381 4.34886 21.5962 4.82912C22.7043 5.25255 23.8499 5.6901 25 5.6901C26.1501 5.6901 27.2957 5.25255 28.4039 4.82912C29.662 4.34885 30.8514 3.89529 31.7616 4.19016C32.732 4.50526 33.4408 5.6016 34.1911 6.76203C34.8171 7.7302 35.4645 8.73156 36.3495 9.37547C37.2471 10.0289 38.4094 10.3402 39.5332 10.6416C40.8581 10.9971 42.1097 11.3324 42.6983 12.1415C43.2778 12.9373 43.2125 14.2232 43.1439 15.5843C43.0844 16.7531 43.0233 17.9616 43.3705 19.0305C43.702 20.0517 44.4451 20.9649 45.1637 21.848C46.0438 22.9291 46.875 23.9499 46.875 25.0001C46.875 26.0503 46.0438 27.0711 45.1637 28.1522C44.4451 29.0353 43.702 29.9485 43.3705 30.9693C43.0233 32.0386 43.0844 33.2471 43.1435 34.4163C43.2125 35.7774 43.2774 37.0633 42.6983 37.8591C42.1097 38.6682 40.8581 39.0039 39.5329 39.359C38.4091 39.66 37.2471 39.9716 36.3495 40.6247C35.4645 41.2686 34.8171 42.27 34.1911 43.2382C33.4408 44.3986 32.732 45.4949 31.7619 45.81C30.8521 46.1072 29.6627 45.6521 28.4039 45.1711C27.2957 44.7476 26.1501 44.3101 25 44.3101C23.8499 44.3101 22.7043 44.7476 21.5962 45.1711C20.3385 45.6517 19.149 46.1072 18.2385 45.81C17.268 45.4949 16.5592 44.3986 15.8089 43.2382C15.1829 42.27 14.5355 41.2686 13.6505 40.6247C12.7529 39.9713 11.5906 39.66 10.4668 39.3586C9.14193 39.0031 7.89033 38.6678 7.30172 37.8587C6.72227 37.0629 6.7875 35.777 6.85616 34.4159C6.91567 33.2471 6.97671 32.0386 6.62957 30.9697C6.29807 29.9485 5.55497 29.0353 4.83628 28.1522C3.95623 27.0711 3.12501 26.0503 3.12501 25.0001C3.12501 23.9499 3.95623 22.9291 4.83628 21.848C5.55497 20.9649 6.29807 20.0517 6.62957 19.0309C6.97671 17.9616 6.91567 16.7531 6.85655 15.5839C6.7875 14.2228 6.72265 12.9369 7.30172 12.1411C7.89033 11.332 9.14193 10.9963 10.4672 10.6412C11.591 10.3402 12.7529 10.0286 13.6505 9.37547C13.9996 9.12141 14.0762 8.63313 13.8226 8.28409C13.5685 7.93505 13.0802 7.85761 12.7312 8.11205C12.0682 8.59462 11.0939 8.85554 10.0624 9.1321C8.53348 9.54218 6.95229 9.96599 6.03829 11.2218C5.1342 12.4642 5.2166 14.0904 5.29595 15.6629C5.35012 16.7378 5.40161 17.7529 5.14336 18.5479C4.90189 19.2918 4.28123 20.0543 3.62434 20.8615C2.61078 22.1066 1.5625 23.3945 1.5625 25.0001C1.5625 26.6057 2.61078 27.8935 3.62434 29.1387C4.28123 29.9458 4.90188 30.7084 5.14336 31.4523C5.40162 32.2473 5.35012 33.2623 5.29595 34.3369C5.21622 35.9094 5.13382 37.5356 6.03829 38.778C6.95229 40.0338 8.5331 40.4576 10.062 40.8677C11.0939 41.1443 12.0682 41.4056 12.7312 41.8881C13.3812 42.3612 13.9229 43.1992 14.497 44.0865C15.3625 45.4251 16.2575 46.8095 17.7555 47.2962C19.2441 47.7655 20.7032 47.1761 22.1539 46.6306C23.1293 46.2579 24.1383 45.8726 25 45.8726C25.8617 45.8726 26.8707 46.2579 27.8461 46.6306C29.3026 47.1867 30.8094 47.7612 32.2445 47.2962C33.7425 46.8095 34.6375 45.4251 35.503 44.0865C36.0771 43.1992 36.6188 42.3611 37.2688 41.8881C37.9318 41.4056 38.9061 41.1446 39.9376 40.8681C41.4665 40.458 43.0477 40.0342 43.9617 38.7784C44.8658 37.5359 44.7834 35.9097 44.7041 34.3373C44.6499 33.2623 44.5984 32.2473 44.8566 31.4523C45.0981 30.7084 45.7188 29.9459 46.3757 29.1387C47.3892 27.8935 48.4375 26.6057 48.4375 25.0001C48.4375 23.3945 47.3892 22.1066 46.3757 20.8615Z" fill="#D4AF37"/>
<path d="M39.5466 30.7694C39.9559 30.9078 40.3988 30.6892 40.5376 30.2811C41.114 28.5847 41.4062 26.8082 41.4062 25C41.4062 15.9534 34.0466 8.59375 25 8.59375C15.9534 8.59375 8.59375 15.9534 8.59375 25C8.59375 34.0466 15.9534 41.4062 25 41.4062C30.7449 41.4062 35.9734 38.4808 38.9862 33.5808C39.212 33.213 39.0972 32.732 38.7299 32.5058C38.361 32.2804 37.8807 32.394 37.6549 32.7621C34.9289 37.1964 30.1979 39.8438 25 39.8438C16.8152 39.8438 10.1562 33.1848 10.1562 25C10.1562 16.8152 16.8152 10.1562 25 10.1562C33.1848 10.1562 39.8438 16.8152 39.8438 25C39.8438 26.6365 39.5794 28.2444 39.0583 29.7783C38.9195 30.1868 39.138 30.6305 39.5466 30.7694Z" fill="#D4AF37"/>
<path d="M31.8168 16.296L21.4767 26.6358L18.1831 23.3429C17.8779 23.0377 17.3835 23.0377 17.0784 23.3429L14.8689 25.5524C14.5637 25.8576 14.5637 26.352 14.8689 26.6571L20.9244 32.7126C21.0708 32.8591 21.2696 32.9415 21.4767 32.9415C21.6839 32.9415 21.8826 32.8591 22.0291 32.7126L35.131 19.6102C35.4362 19.3051 35.4362 18.8107 35.131 18.5055L32.9216 16.296C32.6164 15.9908 32.122 15.9908 31.8168 16.296ZM21.4767 31.0555L16.526 26.1048L17.6307 25L20.9244 28.2929C21.2295 28.598 21.7239 28.598 22.0291 28.2929L32.3692 17.9531L33.4739 19.0579L21.4767 31.0555Z" fill="#D4AF37"/>
</svg>
