<svg width="16" height="16" viewBox="0 0 16 16" fill="none" xmlns="http://www.w3.org/2000/svg">
<g clip-path="url(#clip0_917_11442)">
<path d="M2.65781 1.01533H0.927813C0.41625 1.01533 0 1.43158 0 1.94314V3.67314C0 4.1847 0.41625 4.60095 0.927813 4.60095H2.65781C3.16938 4.60095 3.58563 4.1847 3.58563 3.67314V1.94314C3.58594 1.43158 3.16969 1.01533 2.65781 1.01533ZM3.08531 3.67314C3.08531 3.90876 2.89344 4.10064 2.65781 4.10064H0.927813C0.692188 4.10064 0.500313 3.90876 0.500313 3.67314V1.94314C0.500313 1.70751 0.692188 1.51564 0.927813 1.51564H2.65781C2.89344 1.51564 3.08531 1.70751 3.08531 1.94314V3.67314ZM2.65781 6.2072H0.927813C0.41625 6.2072 0 6.62345 0 7.13502V8.86501C0 9.37658 0.41625 9.79283 0.927813 9.79283H2.65781C3.16938 9.79283 3.58563 9.37658 3.58563 8.86501V7.13502C3.58594 6.62345 3.16969 6.2072 2.65781 6.2072ZM3.08531 8.86501C3.08531 9.10064 2.89344 9.29251 2.65781 9.29251H0.927813C0.692188 9.29251 0.500313 9.10064 0.500313 8.86501V7.13502C0.500313 6.89939 0.692188 6.70751 0.927813 6.70751H2.65781C2.89344 6.70751 3.08531 6.89939 3.08531 7.13502V8.86501ZM2.65781 11.3991H0.927813C0.41625 11.3991 0 11.8153 0 12.3269V14.0569C0 14.5685 0.41625 14.9847 0.927813 14.9847H2.65781C3.16938 14.9847 3.58563 14.5685 3.58563 14.0569V12.3269C3.58594 11.8153 3.16969 11.3991 2.65781 11.3991ZM3.08531 14.0569C3.08531 14.2925 2.89344 14.4844 2.65781 14.4844H0.927813C0.692188 14.4844 0.500313 14.2925 0.500313 14.0569V12.3269C0.500313 12.0913 0.692188 11.8994 0.927813 11.8994H2.65781C2.89344 11.8994 3.08531 12.0913 3.08531 12.3269V14.0569ZM6.34469 4.60095H14.2081C15.1966 4.60095 16.0006 3.79689 16.0006 2.80845C16.0006 1.8197 15.1966 1.01501 14.2081 1.01501H6.34469C5.35625 1.01501 4.55219 1.81939 4.55219 2.80845C4.55219 3.79689 5.35625 4.60095 6.34469 4.60095ZM6.34469 1.51564H14.2081C14.9206 1.51564 15.5 2.09564 15.5 2.80845C15.5 3.52095 14.9203 4.10033 14.2081 4.10033H6.34469C5.63219 4.10033 5.05281 3.52064 5.05281 2.80845C5.05281 2.09564 5.63219 1.51564 6.34469 1.51564ZM14.2081 6.2072H6.34469C5.35625 6.2072 4.55219 7.01158 4.55219 8.00064C4.55219 8.98908 5.35625 9.79314 6.34469 9.79314H14.2081C15.1966 9.79314 16.0006 8.98908 16.0006 8.00064C16.0006 7.01158 15.1966 6.2072 14.2081 6.2072ZM14.2081 9.29251H6.34469C5.63219 9.29251 5.05281 8.71283 5.05281 8.00064C5.05281 7.28783 5.6325 6.70783 6.34469 6.70783H14.2081C14.9206 6.70783 15.5 7.28783 15.5 8.00064C15.5003 8.71283 14.9206 9.29251 14.2081 9.29251ZM14.2081 11.3991H6.34469C5.35625 11.3991 4.55219 12.2031 4.55219 13.1916C4.55219 14.1803 5.35625 14.985 6.34469 14.985H14.2081C15.1966 14.985 16.0006 14.1806 16.0006 13.1916C16.0006 12.2031 15.1966 11.3991 14.2081 11.3991ZM14.2081 14.4844H6.34469C5.63219 14.4844 5.05281 13.9044 5.05281 13.1916C5.05281 12.4791 5.6325 11.8997 6.34469 11.8997H14.2081C14.9206 11.8997 15.5 12.4794 15.5 13.1916C15.5003 13.9044 14.9206 14.4844 14.2081 14.4844Z" fill="#A7A7A7"/>
</g>
<defs>
<clipPath id="clip0_917_11442">
<rect width="16" height="16" fill="white"/>
</clipPath>
</defs>
</svg>
