<svg width="50" height="50" viewBox="0 0 50 50" fill="none" xmlns="http://www.w3.org/2000/svg">
<g clip-path="url(#clip0_988_6777)">
<path d="M43.32 19.6367C43.3242 19.48 43.3333 19.3242 43.3333 19.1667C43.3333 8.5975 33.6142 0 21.6667 0C9.71917 0 0 8.5975 0 19.1667C0 22.7017 1.09 26.1392 3.15417 29.13L1.9625 35.1008C1.845 35.6883 2.0275 36.2917 2.45083 36.715C2.875 37.1383 3.47667 37.32 4.065 37.2033L10.9358 35.825C11.025 35.87 11.1175 35.9083 11.2075 35.9517C12.9717 44.115 20.9642 50 30.4167 50C33.8167 50 37.1533 49.2225 40.0875 47.7492L46.2492 48.9842C46.8033 49.0933 47.3725 48.9192 47.7692 48.5208C48.1683 48.1217 48.3425 47.5533 48.2342 46.995L47.1708 41.6533C49.0233 38.9533 50.0008 35.8542 50.0008 32.6667C50.0008 27.6525 47.5675 22.93 43.32 19.6367ZM10.8942 34.1333L3.7375 35.5692C3.69333 35.5767 3.65833 35.5658 3.62917 35.5367C3.59917 35.5067 3.58833 35.47 3.59667 35.4275L4.85833 29.105C4.90417 28.8792 4.8525 28.6433 4.7175 28.4558C2.72083 25.6817 1.66667 22.4692 1.66667 19.1675C1.66667 9.5175 10.6392 1.66667 21.6667 1.66667C32.6942 1.66667 41.6667 9.5175 41.6667 19.1667C41.6667 28.8158 32.6942 36.6667 21.6667 36.6667C18.0525 36.6667 14.5175 35.8175 11.4433 34.2117C11.3233 34.1492 11.1908 34.1175 11.0575 34.1175C11.0033 34.1175 10.9475 34.1225 10.8942 34.1333ZM45.6058 40.9808C45.4717 41.1683 45.42 41.4033 45.4658 41.6292L46.5717 47.3492L40.13 46.0575C39.9442 46.0208 39.75 46.0475 39.5817 46.1358C36.8217 47.5733 33.6525 48.3333 30.4167 48.3333C22.2192 48.3333 15.2242 43.5625 13.1375 36.785C15.815 37.7983 18.7158 38.3333 21.6667 38.3333C32.6608 38.3333 41.7625 31.0508 43.145 21.6525C46.4567 24.5758 48.3333 28.5158 48.3333 32.6667C48.3333 35.6217 47.3892 38.4967 45.6058 40.9808Z" fill="#D4AF37"/>
<path d="M14.9974 19.1667C14.9974 16.8692 13.1282 15 10.8307 15C8.53323 15 6.66406 16.8692 6.66406 19.1667C6.66406 21.4642 8.53323 23.3333 10.8307 23.3333C13.1282 23.3333 14.9974 21.4642 14.9974 19.1667ZM10.8307 21.6667C9.4524 21.6667 8.33073 20.545 8.33073 19.1667C8.33073 17.7883 9.4524 16.6667 10.8307 16.6667C12.2091 16.6667 13.3307 17.7883 13.3307 19.1667C13.3307 20.545 12.2091 21.6667 10.8307 21.6667Z" fill="#D4AF37"/>
<path d="M21.6667 23.3333C23.9642 23.3333 25.8333 21.4642 25.8333 19.1667C25.8333 16.8692 23.9642 15 21.6667 15C19.3692 15 17.5 16.8692 17.5 19.1667C17.5 21.4642 19.3692 23.3333 21.6667 23.3333ZM21.6667 16.6667C23.045 16.6667 24.1667 17.7883 24.1667 19.1667C24.1667 20.545 23.045 21.6667 21.6667 21.6667C20.2883 21.6667 19.1667 20.545 19.1667 19.1667C19.1667 17.7883 20.2883 16.6667 21.6667 16.6667Z" fill="#D4AF37"/>
<path d="M32.5026 23.3333C34.8001 23.3333 36.6693 21.4642 36.6693 19.1667C36.6693 16.8692 34.8001 15 32.5026 15C30.2051 15 28.3359 16.8692 28.3359 19.1667C28.3359 21.4642 30.2051 23.3333 32.5026 23.3333ZM32.5026 16.6667C33.8809 16.6667 35.0026 17.7883 35.0026 19.1667C35.0026 20.545 33.8809 21.6667 32.5026 21.6667C31.1243 21.6667 30.0026 20.545 30.0026 19.1667C30.0026 17.7883 31.1243 16.6667 32.5026 16.6667Z" fill="#D4AF37"/>
</g>
<defs>
<clipPath id="clip0_988_6777">
<rect width="50" height="50" fill="white"/>
</clipPath>
</defs>
</svg>
