<svg width="49" height="40" viewBox="0 0 49 40" fill="none" xmlns="http://www.w3.org/2000/svg">
<path d="M48.0062 17.266L43.9351 15.2308L48.0062 13.1996C48.1362 13.1348 48.2456 13.035 48.322 12.9115C48.3985 12.788 48.439 12.6456 48.439 12.5004C48.439 12.3551 48.3985 12.2127 48.322 12.0892C48.2456 11.9657 48.1362 11.8659 48.0062 11.8011L24.5687 0.0823956C24.4603 0.0282093 24.3407 0 24.2195 0C24.0983 0 23.9787 0.0282093 23.8703 0.0823956L0.432761 11.8011C0.302755 11.8659 0.193388 11.9657 0.116943 12.0892C0.0404968 12.2127 0 12.3551 0 12.5004C0 12.6456 0.0404968 12.788 0.116943 12.9115C0.193388 13.035 0.302755 13.1348 0.432761 13.1996L4.50385 15.2308L0.432761 17.266C0.302891 17.3309 0.193674 17.4307 0.117362 17.5542C0.0410498 17.6777 0.000661945 17.82 0.000729598 17.9652V21.0902C-6.65165e-05 21.2361 0.039978 21.3792 0.116331 21.5035C0.192684 21.6277 0.302296 21.7281 0.432761 21.7933L4.50385 23.8246L0.432761 25.8558C0.302755 25.9206 0.193388 26.0204 0.116943 26.1439C0.0404968 26.2674 0 26.4098 0 26.555C0 26.7003 0.0404968 26.8427 0.116943 26.9662C0.193388 27.0897 0.302755 27.1895 0.432761 27.2543L23.8703 38.973C23.9787 39.0272 24.0983 39.0554 24.2195 39.0554C24.3407 39.0554 24.4603 39.0272 24.5687 38.973L48.0062 27.2543C48.1362 27.1895 48.2456 27.0897 48.322 26.9662C48.3985 26.8427 48.439 26.7003 48.439 26.555C48.439 26.4098 48.3985 26.2674 48.322 26.1439C48.2456 26.0204 48.1362 25.9206 48.0062 25.8558L43.9351 23.8246L48.0062 21.7933C48.1367 21.7281 48.2463 21.6277 48.3226 21.5035C48.399 21.3792 48.439 21.2361 48.4382 21.0902V17.9652C48.4383 17.82 48.3979 17.6777 48.3216 17.5542C48.2453 17.4307 48.1361 17.3309 48.0062 17.266ZM24.2195 1.65115L45.9101 12.4965L24.2195 23.3418L2.52885 12.4965L24.2195 1.65115ZM23.8703 24.9183C23.9787 24.9725 24.0983 25.0007 24.2195 25.0007C24.3407 25.0007 24.4603 24.9725 24.5687 24.9183L42.1882 16.1043L45.9101 17.9652L24.2195 28.8105L2.52885 17.9652L6.25073 16.1043L23.8703 24.9183ZM1.56323 19.2293L23.4382 30.1668V31.5449L1.56323 20.6074V19.2293ZM45.9101 26.559L24.2195 37.4043L2.52885 26.559L6.25073 24.698L23.8703 33.5121C23.9787 33.5663 24.0983 33.5945 24.2195 33.5945C24.3407 33.5945 24.4603 33.5663 24.5687 33.5121L42.1882 24.698L45.9101 26.559ZM25.0007 31.5449V30.1668L46.8757 19.2293V20.6074L25.0007 31.5449Z" fill="#D4AF37"/>
</svg>
