<svg width="45" height="50" viewBox="0 0 45 50" fill="none" xmlns="http://www.w3.org/2000/svg">
<path d="M29.3867 0.50759C26.2718 0.139009 23.1365 -0.0305016 20 9.01618e-05C8.785 9.01618e-05 0 4.39259 0 10.0001V23.3334C0 27.8193 5.6525 31.5976 13.9792 32.8709C11.6519 34.5509 9.19195 36.2823 6.59917 38.0651C6.1644 38.3635 5.89709 38.8506 5.87885 39.3776C5.8606 39.9046 6.09358 40.409 6.50667 40.7368L17.6267 49.6343C18.2163 50.1045 19.0473 50.1233 19.6575 49.6801C21.5192 48.3243 23.3367 46.9076 25.1067 45.4534C26.8289 44.0362 28.4956 42.582 30.1067 41.0909C30.115 41.0818 30.1267 41.0793 30.1342 41.0701L30.14 41.0601C31.7178 39.6018 33.23 38.1195 34.6767 36.6134C34.6942 36.5968 34.7175 36.5901 34.7333 36.5709C34.7492 36.5518 34.7467 36.5434 34.7558 36.5309C35.8175 35.4234 36.8525 34.3093 37.83 33.1884C40.6067 30.0034 44.0617 26.0409 44.72 21.1601C45.3917 16.1818 44.4642 8.80426 39.6417 4.39592C36.6292 1.63259 32.7683 0.94009 29.3867 0.50759ZM20 1.66676C29.9375 1.66676 38.3333 5.48342 38.3333 10.0001C38.3333 15.4009 27.5833 18.3334 20 18.3334C10.0625 18.3334 1.66667 14.5168 1.66667 10.0001C1.66667 5.48342 10.0625 1.66676 20 1.66676ZM1.66667 23.3334V14.0618C4.725 17.5893 11.6942 20.0001 20 20.0001C24.3812 20.071 28.7353 19.3001 32.8258 17.7293C27.7116 22.4467 22.3153 26.8487 16.6667 30.9109V26.6668C16.6667 26.2065 16.2936 25.8334 15.8333 25.8334C15.3731 25.8334 15 26.2065 15 26.6668V31.3334C13.5943 31.1498 12.2024 30.873 10.8333 30.5051V25.8334C10.8333 25.3732 10.4602 25.0001 10 25.0001C9.53976 25.0001 9.16667 25.3732 9.16667 25.8334V30.0001C8.014 29.6141 6.8984 29.1252 5.83333 28.5393V23.3334C5.83333 22.8732 5.46024 22.5001 5 22.5001C4.53976 22.5001 4.16667 22.8732 4.16667 23.3334V27.4426C2.58333 26.2076 1.66667 24.7959 1.66667 23.3334ZM18.6667 48.3334L7.5425 39.4393C8.81333 38.5659 10.1733 37.6209 11.585 36.6268C12.3179 37.0966 13.1968 37.2835 14.0575 37.1526C14.5964 37.0374 15.159 37.1554 15.6062 37.4775C16.0534 37.7996 16.3435 38.2957 16.405 38.8434C16.7402 40.7776 18.5576 42.0908 20.4992 41.8018C21.0388 41.6914 21.6 41.8123 22.0464 42.1351C22.4927 42.4579 22.7833 42.953 22.8475 43.5001C22.9405 43.942 23.0989 44.3675 23.3175 44.7626C21.8017 45.9851 20.25 47.1809 18.6667 48.3334ZM43.0758 20.9334C42.883 22.251 42.4854 23.5303 41.8975 24.7251L40.7125 23.0584C40.4456 22.6833 39.9251 22.5957 39.55 22.8626C39.1749 23.1295 39.0872 23.65 39.3542 24.0251L41.0133 26.3584C40.2102 27.6504 39.3146 28.8826 38.3333 30.0451L36.0142 27.3934C35.8188 27.1674 35.5173 27.0634 35.2241 27.1206C34.9309 27.1779 34.6908 27.3877 34.5947 27.6706C34.4987 27.9535 34.5614 28.2662 34.7592 28.4901L37.24 31.3334C37.0175 31.5909 36.7967 31.8451 36.5808 32.0918C35.7692 33.0234 34.9142 33.9501 34.0425 34.8726L30.5425 31.8726C30.3183 31.6655 29.9989 31.5975 29.7098 31.6954C29.4207 31.7932 29.2082 32.0413 29.156 32.342C29.1037 32.6427 29.22 32.9479 29.4592 33.1376L32.89 36.0818C31.7942 37.2026 30.6525 38.3109 29.4792 39.4068L25.5417 36.0334C25.3154 35.8399 25.0031 35.7818 24.7224 35.881C24.4416 35.9802 24.2351 36.2216 24.1807 36.5143C24.1262 36.807 24.2321 37.1066 24.4583 37.3001L28.25 40.5451C27.0833 41.6059 25.8692 42.6451 24.6383 43.6701C24.5683 43.4811 24.5102 43.288 24.4642 43.0918C24.1298 41.1604 22.3143 39.8496 20.3758 40.1401C19.8343 40.2499 19.2716 40.1279 18.8241 39.8038C18.3766 39.4797 18.0853 38.983 18.0208 38.4343C17.6911 36.5008 15.8707 35.1899 13.9325 35.4901C13.6833 35.5169 13.432 35.5183 13.1825 35.4943C22.6658 28.7443 33.9933 20.0276 38.2658 14.1376C39.3073 13.0382 39.9222 11.6033 40 10.0909C40.0433 7.47092 38.2033 5.39259 36.0092 3.93509C36.9247 4.37553 37.7729 4.94401 38.5283 5.62342C42.5933 9.34176 43.7417 15.9918 43.0758 20.9334Z" fill="#D4AF37"/>
<path d="M19.9735 15C23.3827 15 29.0727 14.0216 30.5385 10.9333C31.5335 8.83664 29.806 6.6833 27.8593 5.3683C26.0223 4.20448 23.9994 3.36399 21.8785 2.8833C21.2298 2.7188 20.5416 2.85034 19.9993 3.24247C19.6674 3.48157 19.4054 3.80492 19.2402 4.17914C13.4527 4.3683 9.16602 6.63997 9.16602 9.58331C9.16602 13.5125 15.7293 15 19.9735 15ZM26.0927 12.3333L26.391 6.41164C26.5766 6.52275 26.7557 6.63636 26.9285 6.75247C30.0585 8.86247 29.9927 10.8708 26.0927 12.3333ZM20.7127 5.06914V5.0533C20.7269 4.86966 20.8215 4.70165 20.971 4.59414C21.1128 4.48857 21.2949 4.45301 21.466 4.49747C22.5917 4.77681 23.6941 5.14262 24.7635 5.59164L24.3985 12.8466C22.9952 13.1721 21.5591 13.3354 20.1185 13.3333L20.7127 5.06914ZM18.986 5.85747L18.4535 13.2741C13.861 12.9425 10.8327 11.1591 10.8327 9.58331C10.8327 7.93581 14.1368 6.09164 18.986 5.85747Z" fill="#D4AF37"/>
<path d="M22.4993 8.3335C22.0391 8.3335 21.666 8.70659 21.666 9.16683V10.0002C21.666 10.4604 22.0391 10.8335 22.4993 10.8335C22.9596 10.8335 23.3327 10.4604 23.3327 10.0002V9.16683C23.3327 8.70659 22.9596 8.3335 22.4993 8.3335Z" fill="#D4AF37"/>
<path d="M13.8544 40.1828C13.495 39.8951 12.9704 39.9533 12.6828 40.3128C12.3951 40.6722 12.4533 41.1968 12.8128 41.4844L16.9794 44.8178C17.3389 45.1054 17.8635 45.0472 18.1511 44.6878C18.4388 44.3283 18.3806 43.8038 18.0211 43.5161L13.8544 40.1828Z" fill="#D4AF37"/>
</svg>
