<svg width="33" height="35" viewBox="0 0 33 35" fill="none" xmlns="http://www.w3.org/2000/svg">
<path d="M32.4997 5.84677C32.3425 4.86605 31.4774 4.13417 30.4797 4.13417C30.4748 4.13417 30.465 4.13417 30.46 4.13417C24.2574 4.1976 18.276 6.39324 13.5233 10.3259C13.3758 8.59864 12.8794 6.91532 12.0586 5.37349C10.938 3.27055 9.25221 1.51404 7.19287 0.294239C6.36225 -0.19856 5.3252 -0.0619428 4.67643 0.626025C1.58987 3.89021 -0.0713711 8.15463 0.00235253 12.6337C0.0711613 16.947 1.74223 21.0065 4.72067 24.1243C4.44052 25.1879 4.22917 26.2711 4.08664 27.3738C4.02766 27.8276 4.34713 28.2423 4.80913 28.3057C4.84354 28.3106 4.88286 28.3106 4.91726 28.3106C5.33011 28.3106 5.6889 28.0081 5.74297 27.5885C5.89533 26.4419 6.12142 25.3197 6.42614 24.2316C6.46054 24.1584 6.4802 24.0852 6.49003 24.0072C9.50287 13.5218 19.2442 5.9102 30.4895 5.7931C30.4895 5.7931 30.4895 5.7931 30.4944 5.7931C30.6714 5.7931 30.8385 5.9346 30.868 6.10537C31.4873 9.98433 31.5069 13.917 30.927 17.8008C30.9171 17.8301 30.9073 17.8594 30.9024 17.8886C29.7474 22.8118 26.5232 27.0176 22.0457 29.4231C18.099 31.5504 13.5036 32.1066 9.19323 31.0283C10.648 30.0769 12.0439 29.0327 13.3758 27.8959C16.89 24.8952 19.8438 21.348 22.1538 17.3617C22.3848 16.9665 22.2472 16.459 21.8442 16.2297C21.4461 16.0004 20.9349 16.137 20.7039 16.5371C17.3323 22.319 12.5108 27.1494 6.78001 30.555C6.75544 30.5648 6.73578 30.5794 6.7112 30.5941C4.87303 31.6821 2.94638 32.6189 0.9411 33.3996C0.513503 33.5655 0.297247 34.0486 0.469269 34.473C0.597057 34.8 0.911611 35 1.24582 35C1.34904 35 1.45225 34.9805 1.55055 34.9415C3.53617 34.1705 5.44316 33.2532 7.2715 32.1945C9.30628 32.8775 11.4197 33.2191 13.5282 33.2191C16.7425 33.2191 19.9421 32.4335 22.8223 30.8771C27.6684 28.2716 31.1776 23.7339 32.4702 18.4205C32.4997 18.3522 32.5243 18.279 32.5341 18.2009C33.1682 14.1024 33.1534 9.9453 32.4997 5.84677ZM8.3921 15.976C8.38227 15.088 8.34295 14.2634 8.27415 13.473C8.12178 11.7848 7.8318 10.0087 7.38946 8.03265C7.29116 7.58377 6.84391 7.30565 6.39173 7.40324C5.93956 7.50082 5.65941 7.94483 5.75771 8.39371C6.18531 10.2966 6.46546 12.0043 6.60799 13.6193C6.74561 15.166 6.76035 16.8689 6.64731 18.9621C6.1165 20.0257 5.6545 21.1236 5.27114 22.2555C0.238269 16.2931 0.410291 7.54473 5.8855 1.758C5.99363 1.6409 6.18039 1.62626 6.33276 1.71409C9.91573 3.83166 12.0242 7.66671 11.8915 11.7848C10.5743 13.068 9.40457 14.4732 8.3921 15.976Z" fill="#D4AF37"/>
</svg>
