<svg width="35" height="35" viewBox="0 0 35 35" fill="none" xmlns="http://www.w3.org/2000/svg">
<path d="M26.6753 17.6833L25.8131 8.30327C25.7743 7.88108 25.4202 7.55802 24.9962 7.55802H19.9871V5.65223C19.9871 2.68632 17.5741 0.273438 14.6083 0.273438C11.6425 0.273438 9.22951 2.68632 9.22951 5.65223V7.55795H4.22027C3.79631 7.55795 3.44221 7.88102 3.40338 8.3032L1.62125 27.6926C1.55234 28.4428 1.78429 29.1336 2.29199 29.6901C2.79983 30.2467 3.46641 30.5409 4.21979 30.5409H17.3676C18.8791 33.047 21.6279 34.7266 24.7618 34.7266C29.5197 34.7266 33.3905 30.8557 33.3905 26.0978C33.3905 21.9974 30.5154 18.5562 26.6753 17.6833ZM10.8701 5.65223C10.8701 3.59099 12.5471 1.91406 14.6083 1.91406C16.6695 1.91406 18.3465 3.59099 18.3465 5.65223V7.55795H10.8701V5.65223ZM4.21979 28.9003C3.92811 28.9003 3.70067 28.7999 3.50407 28.5843C3.30747 28.3689 3.22838 28.1332 3.25504 27.8427L4.96867 9.19864H9.22951V10.6943C9.22951 11.1473 9.59681 11.5146 10.0498 11.5146C10.5028 11.5146 10.8701 11.1473 10.8701 10.6943V9.19864H18.3465V10.6943C18.3465 11.1473 18.7138 11.5146 19.1668 11.5146C19.6199 11.5146 19.9872 11.1473 19.9872 10.6943V9.19864H24.2479L25.0085 17.4729C24.9265 17.4706 24.8444 17.4692 24.7619 17.4692C20.004 17.4692 16.1331 21.34 16.1331 26.0979C16.1331 27.0784 16.2979 28.0212 16.6006 28.9003H4.21979ZM24.7618 33.0859C20.9085 33.0859 17.7737 29.9511 17.7737 26.0978C17.7737 22.2446 20.9085 19.1097 24.7618 19.1097C28.615 19.1097 31.7499 22.2446 31.7499 26.0978C31.7499 29.9511 28.615 33.0859 24.7618 33.0859ZM28.6168 23.5253C28.9301 23.8525 28.9188 24.3718 28.5916 24.6851L24.4028 28.6956C24.2443 28.8473 24.0399 28.9234 23.8354 28.9234C23.6366 28.9234 23.4377 28.8515 23.2806 28.7072L20.9445 26.5619C20.6109 26.2554 20.5887 25.7365 20.8952 25.4028C21.2016 25.069 21.7205 25.047 22.0542 25.3535L23.8238 26.9786L27.457 23.5C27.7842 23.1867 28.3034 23.198 28.6168 23.5253Z" fill="#2C2C2C"/>
</svg>
