<svg width="50" height="50" viewBox="0 0 50 50" fill="none" xmlns="http://www.w3.org/2000/svg">
<path d="M32.9726 48.75C32.765 48.75 32.5559 48.7318 32.3483 48.6945C25.1987 47.4075 18.0716 43.5103 12.2807 37.7193C6.48974 31.9284 2.59246 24.8014 1.30548 17.6518C1.063 16.3024 1.62845 14.8991 2.7461 14.0765C4.17739 13.0231 5.71961 12.0439 7.32908 11.1677C8.39617 10.5871 9.6542 10.5547 10.6967 11.0799C14.2607 12.8764 16.6232 15.8685 17.7182 19.9729C18.0152 21.0837 17.7506 22.2882 17.0109 23.1943L14.6495 26.0839C14.2711 26.5473 14.2249 27.1864 14.5351 27.6742C16.5441 30.8353 19.1647 33.4559 22.3258 35.4644C22.8132 35.7751 23.4522 35.7285 23.9161 35.3505L26.8052 32.9896C27.7118 32.2494 28.9148 31.9853 30.0276 32.2818C34.1315 33.3773 37.1236 35.7398 38.9201 39.3038C39.4458 40.3453 39.4134 41.6038 38.8328 42.6709C37.9561 44.2804 36.9769 45.8226 35.923 47.2539C35.2275 48.1993 34.1158 48.75 32.9726 48.75ZM9.11624 12.9691C8.88014 12.9691 8.63668 13.031 8.4109 13.1542C6.89076 13.9817 5.4364 14.905 4.08707 15.898C3.65857 16.2136 3.44064 16.7447 3.53193 17.2512C4.73744 23.9512 8.41237 30.6522 13.8799 36.1202C19.3478 41.5876 26.0488 45.2626 32.7488 46.4681C33.2563 46.5589 33.7864 46.3409 34.1015 45.9129C35.095 44.5636 36.0183 43.1092 36.8463 41.5891C37.0716 41.1748 37.0922 40.7012 36.9008 40.3223C35.3856 37.3168 32.9466 35.4016 29.4439 34.467C29.0336 34.358 28.581 34.4596 28.236 34.7414L25.3474 37.1018C24.1267 38.0992 22.4239 38.2082 21.1124 37.3733C17.6696 35.1856 14.8144 32.3304 12.6262 28.8876C11.7918 27.5751 11.9008 25.8729 12.8982 24.6526L15.2591 21.7635C15.5404 21.419 15.643 20.9679 15.533 20.5566C14.5984 17.0534 12.6832 14.6144 9.67825 13.0992C9.50547 13.0123 9.31355 12.9691 9.11624 12.9691Z" fill="#D4AF37"/>
<path d="M47.6011 26.188C47.5849 26.188 47.5688 26.1875 47.553 26.187C46.9287 26.161 46.4442 25.6338 46.4702 25.01C46.7117 19.247 44.5192 13.6107 40.455 9.54552C36.3903 5.48135 30.7658 3.27747 24.9905 3.53025C24.3897 3.54596 23.8395 3.0723 23.8135 2.44746C23.7875 1.8236 24.2719 1.29643 24.8958 1.27042C31.29 0.999475 37.5428 3.43552 42.0541 7.94635C46.565 12.4572 48.9981 18.7115 48.7301 25.1047C48.7046 25.7124 48.2039 26.188 47.6011 26.188Z" fill="#D4AF37"/>
<path d="M41.5839 26.188C41.5619 26.188 41.5393 26.1875 41.5167 26.186C40.8928 26.1492 40.4172 25.6142 40.454 24.9908C40.6994 20.8211 39.1513 16.7403 36.2058 13.7947C33.2603 10.8492 29.1769 9.30501 25.0097 9.5465C24.3829 9.58822 23.8513 9.10769 23.8145 8.48383C23.7777 7.86046 24.2533 7.32544 24.8772 7.28863C29.6855 7.00247 34.4034 8.79355 37.805 12.1956C41.207 15.5976 42.9956 20.3097 42.7119 25.1234C42.6766 25.7246 42.1784 26.188 41.5839 26.188Z" fill="#D4AF37"/>
<path d="M35.5736 26.188C35.5383 26.188 35.5029 26.1865 35.4671 26.1831C34.8452 26.1252 34.3882 25.574 34.4461 24.9521C34.6857 22.384 33.7786 19.866 31.9566 18.044C30.1346 16.2225 27.6185 15.3144 25.0485 15.5544C24.4271 15.6109 23.8749 15.1554 23.8175 14.5335C23.7595 13.9116 24.2165 13.3604 24.8384 13.3025C28.0819 13.0006 31.2566 14.1457 33.5557 16.4448C35.8553 18.7439 37.0005 21.9216 36.6981 25.1622C36.6436 25.7482 36.1508 26.188 35.5736 26.188Z" fill="#D4AF37"/>
</svg>
