<svg width="50" height="50" viewBox="0 0 50 50" fill="none" xmlns="http://www.w3.org/2000/svg">
<path d="M45.9476 26.3521L42.6334 17.2042C42.6325 17.2017 42.6313 17.1995 42.6305 17.1971C42.6262 17.1857 42.6217 17.1745 42.6168 17.1633C42.5774 17.0686 42.517 16.9905 42.4431 16.9298C42.4421 16.9289 42.4412 16.9279 42.4401 16.927C42.439 16.9261 42.4378 16.9254 42.4367 16.9245C42.4223 16.913 42.4076 16.9022 42.3923 16.892C42.3892 16.8899 42.3861 16.8879 42.3829 16.8859C42.3327 16.8537 42.2787 16.8275 42.2217 16.8094L38.3003 15.6555L35.0812 6.77033C35.0795 6.76596 35.0773 6.76199 35.0755 6.75768C35.0588 6.71511 35.0373 6.67416 35.0111 6.63561C35.0108 6.63525 35.0105 6.63494 35.0103 6.63458C34.9992 6.61839 34.9874 6.60259 34.9747 6.58733C34.9091 6.50637 34.8267 6.44357 34.7331 6.40562C34.6964 6.38972 34.6587 6.37775 34.6205 6.36937L26.6806 4.02323C26.6748 4.02157 26.6688 4.02066 26.6629 4.01917C26.6616 4.01884 26.6603 4.01859 26.659 4.01828C26.6407 4.01382 26.6224 4.01004 26.6041 4.00725C26.6014 4.00683 26.5986 4.0066 26.5959 4.00622C26.5791 4.00388 26.5623 4.00198 26.5455 4.00102C26.5393 4.00063 26.5331 4.00071 26.5268 4.00051C26.5139 4.00015 26.5009 3.99976 26.488 4.00019C26.4746 4.00057 26.4612 4.00179 26.4478 4.00301C26.4425 4.00353 26.4372 4.00373 26.4319 4.00438C26.2874 4.02116 26.1478 4.08647 26.0422 4.19966L14.8874 16.2503C14.8441 16.2897 14.8062 16.3355 14.7749 16.3871C14.7701 16.3946 14.7655 16.4022 14.7611 16.4099C14.7598 16.4123 14.7585 16.4146 14.7573 16.417C14.7245 16.4754 14.702 16.5378 14.6897 16.6018L14.0994 18.5399L6.98128 26.4032C6.91418 26.4803 6.86895 26.5692 6.8445 26.6622C6.83704 26.6834 6.83007 26.6998 6.83007 26.7225L4.01587 38.3577C3.94026 38.6937 4.14188 39.0298 4.4695 39.1138L17.4316 42.5497L30.3526 45.9687C30.5607 46.0359 30.7914 45.9946 30.9571 45.8485C31.0007 45.8113 31.0392 45.7678 31.0719 45.7193L45.8676 26.9913C46.0126 26.7999 46.0373 26.5564 45.9476 26.3521ZM31.0219 43.7643C30.6635 40.2562 30.2412 36.7299 29.8589 33.227L41.8265 18.6663L44.6626 26.4807L31.0219 43.7643ZM17.837 38.2312C17.5544 35.5553 17.2603 32.8761 16.9699 30.1991L19.5933 30.9479L17.837 38.2312ZM16.4429 28.741C16.4335 28.7376 16.4247 28.7332 16.4151 28.7303L12.6438 27.6532L15.2551 19.0647C15.2645 19.0395 15.2723 19.014 15.2784 18.9882L15.7263 17.5151L23.5052 19.9681L24.3116 30.9884L20.523 29.9064C20.5163 29.9044 20.5095 29.9032 20.5028 29.9014L16.4429 28.741ZM26.7011 5.34283L33.4007 7.31467L23.8949 18.7667L16.4424 16.4177L26.7011 5.34283ZM37.103 16.0483L25.5166 30.2092L24.75 19.7067L34.2719 8.22758L37.103 16.0483ZM38.0399 16.8924L40.9575 17.7501L28.9808 32.3218L26.0908 31.4965L38.0399 16.8924ZM11.4292 27.3063L8.59595 26.4972L13.2401 21.3608L11.4292 27.3063ZM5.38517 38.0553L7.90534 27.613L11.6688 28.6883C11.6688 28.6883 11.6688 28.6883 11.6688 28.6883L15.6675 29.8308L16.8688 41.0964L5.38517 38.0553ZM18.3473 41.4912L20.8081 31.2947L24.8325 32.4435C24.8388 32.4452 24.8452 32.4461 24.8515 32.4477L28.6296 33.5272L29.8225 44.5323L18.3473 41.4912Z" fill="#2C2C2C"/>
</svg>
