<svg width="50" height="50" viewBox="0 0 50 50" fill="none" xmlns="http://www.w3.org/2000/svg">
<g id="fi_543033" clip-path="url(#clip0_0_1)">
<g id="Group">
<g id="Group_2">
<path id="Vector" d="M31.8266 16.2543L29.4988 12.4858C32.347 7.39818 31.7749 3.1553 29.8979 1.16985C28.7832 -0.00954868 27.2798 -0.3241 25.9746 0.349241C24.277 1.22493 23.3683 3.79437 23.1964 8.20463C23.1696 8.89125 23.1638 9.5644 23.171 10.1975L15.0947 12.0421C14.8643 12.0948 14.6734 12.2553 14.5821 12.4734L5.81527 33.4153C5.65912 33.7884 5.835 34.2175 6.20805 34.3737C6.30043 34.4124 6.39623 34.4307 6.49057 34.4307C6.77699 34.4307 7.04897 34.2616 7.16645 33.9809L15.7879 13.3863L23.2119 11.6906C23.2508 12.5918 23.3071 13.3226 23.3461 13.7632C23.0415 14.0054 22.8005 14.3209 22.6461 14.6896C22.4044 15.2669 22.4019 15.9037 22.6391 16.4826C22.8763 17.0614 23.325 17.5133 23.9023 17.755C24.197 17.8784 24.5027 17.9368 24.8038 17.9367C25.7202 17.9367 26.5923 17.3956 26.9678 16.4987C27.2092 15.9219 27.2116 15.2854 26.9745 14.7064C26.7373 14.1271 26.2887 13.675 25.7115 13.4333C25.4098 13.3071 25.092 13.2468 24.7745 13.2513C24.7377 12.7767 24.6948 12.1212 24.666 11.3584L26.7824 10.875L28.0189 12.8769C28.0196 12.8781 28.0203 12.8791 28.021 12.8802L30.5806 17.024C30.7931 17.368 31.2442 17.4748 31.5886 17.2622C31.9325 17.0497 32.0392 16.5984 31.8266 16.2543ZM24.8072 14.7162C24.9219 14.7162 25.0368 14.739 25.1458 14.7847C25.3619 14.8752 25.5299 15.0446 25.6187 15.2617C25.7076 15.4787 25.7067 15.7171 25.6164 15.9331C25.4294 16.3794 24.9142 16.5904 24.4679 16.4038C24.2515 16.3132 24.0834 16.1439 23.9946 15.9271C23.9057 15.7103 23.9067 15.4717 23.9973 15.2553C24.0878 15.0393 24.257 14.8713 24.474 14.7824C24.5816 14.7382 24.6944 14.7162 24.8072 14.7162ZM27.7532 9.65961C27.5885 9.39301 27.2723 9.26068 26.967 9.33051L24.6338 9.86342C24.6315 9.34115 24.6389 8.79672 24.6606 8.24652C24.8053 4.57933 25.5104 2.23694 26.6462 1.6511C27.3686 1.27834 28.166 1.46985 28.8337 2.1761C29.5921 2.97835 30.0229 4.30657 30.0157 5.82035C30.0082 7.42592 29.5229 9.21225 28.607 11.0417L27.7532 9.65961Z" fill="#D4AF37"/>
</g>
</g>
<g id="Group_3">
<g id="Group_4">
<path id="Vector_2" d="M22.7043 26.9403C22.5465 26.5554 22.2483 26.2549 21.8646 26.0943L21.3035 25.8595L21.7427 24.8103C21.8988 24.4371 21.723 24.008 21.3499 23.8519C20.977 23.6958 20.5478 23.8715 20.3915 24.2446L19.9498 25.2998C19.4173 25.1119 18.8426 25.1232 18.3159 25.339C17.7475 25.572 17.3038 26.0124 17.0666 26.579C16.8293 27.1457 16.827 27.7709 17.06 28.3393C17.293 28.9077 17.7333 29.3515 18.3 29.5886L19.4034 30.0505C19.6092 30.1366 19.7691 30.2978 19.8537 30.5042C19.9383 30.7106 19.9374 30.9376 19.8514 31.1433C19.6735 31.5682 19.1834 31.769 18.7586 31.5911L18.207 31.3603C18.2069 31.3603 18.2069 31.3602 18.2069 31.3602C18.2068 31.3602 18.2067 31.3601 18.2067 31.3601L16.9702 30.8425C16.9467 30.8326 16.9299 30.8157 16.9203 30.7922C16.9107 30.7687 16.9107 30.7448 16.9205 30.7213C17.0768 30.3482 16.9009 29.9191 16.5278 29.7629C16.155 29.6066 15.7256 29.7824 15.5694 30.1556C15.4088 30.5394 15.4071 30.9626 15.5649 31.3476C15.7228 31.7325 16.0209 32.033 16.4047 32.1937L16.9657 32.4285L16.5266 33.4777C16.3704 33.8508 16.5463 34.2799 16.9193 34.4361C17.0117 34.4747 17.1075 34.493 17.2019 34.493C17.4883 34.493 17.7603 34.324 17.8777 34.0432L18.3186 32.9902C18.5687 33.0783 18.825 33.1206 19.0781 33.1206C19.9778 33.1206 20.8341 32.5894 21.2027 31.7088C21.6921 30.5395 21.1389 29.1893 19.9691 28.6995L18.8655 28.2375C18.6599 28.1514 18.4999 27.9903 18.4153 27.7839C18.3308 27.5776 18.3316 27.3505 18.4178 27.1447C18.5039 26.939 18.6649 26.7791 18.8714 26.6945C19.0777 26.6101 19.3048 26.6109 19.5106 26.697L20.0622 26.9279H20.0623L21.299 27.4456C21.3225 27.4555 21.3393 27.4724 21.3489 27.4959C21.3586 27.5195 21.3585 27.5433 21.3487 27.5667C21.1925 27.9399 21.3684 28.369 21.7414 28.5251C22.1146 28.6814 22.5437 28.5056 22.6998 28.1324C22.8606 27.7486 22.8621 27.3253 22.7043 26.9403Z" fill="#D4AF37"/>
</g>
</g>
<g id="Group_5">
<g id="Group_6">
<path id="Vector_3" d="M33.4265 25.5923C32.9863 25.5923 32.5515 25.6163 32.1232 25.662L34.2055 20.6886C34.2968 20.4707 34.2772 20.222 34.153 20.021L33.3171 18.6675C33.1045 18.3233 32.6532 18.2166 32.3091 18.4292C31.9649 18.6418 31.8582 19.093 32.0708 19.4372L32.7089 20.4704L30.4058 25.971C29.2936 26.2553 28.2423 26.6931 27.2753 27.2599L29.2661 22.5042C29.4222 22.131 29.2465 21.7019 28.8733 21.5458L17.7143 16.874C17.5351 16.7989 17.3335 16.7982 17.1538 16.8718C16.974 16.9455 16.8309 17.0876 16.7558 17.2667L8.81848 36.2263C8.66223 36.5994 8.83811 37.0285 9.21116 37.1847L20.3702 41.8566C20.4625 41.8952 20.5584 41.9136 20.6528 41.9136C20.9392 41.9136 21.2111 41.7445 21.3287 41.4639L21.6005 40.8145C21.8839 41.9241 22.3201 42.9733 22.8846 43.9384L22.0874 45.8426L5.16643 38.7599L6.14328 36.4267C6.29953 36.0535 6.12366 35.6244 5.75061 35.4683C5.37776 35.3119 4.94836 35.4879 4.79221 35.8609L3.53244 38.8697C3.45734 39.0489 3.45666 39.2506 3.53029 39.4303C3.60392 39.6101 3.74601 39.7532 3.92521 39.8282L22.1974 47.4766C22.2898 47.5153 22.3856 47.5335 22.4799 47.5335C22.7663 47.5335 23.0383 47.3645 23.1558 47.0838L23.8702 45.3775C26.1078 48.1921 29.5597 50 33.4264 50C40.1558 50 45.6304 44.5254 45.6304 37.7961C45.6304 31.0668 40.1558 25.5923 33.4265 25.5923ZM21.2226 37.7962C21.2226 37.8379 21.2238 37.8792 21.2242 37.9208L20.2603 40.2225L10.4525 36.1163L17.8243 18.5079L27.6321 22.6139L24.9468 29.0284C22.6519 31.2487 21.2226 34.3585 21.2226 37.7962ZM33.4265 48.5354C27.5967 48.5354 22.8371 43.866 22.6909 38.0708C22.691 38.0623 22.6908 38.0539 22.6906 38.0454C22.6887 37.9626 22.6875 37.8796 22.6875 37.7963C22.6875 31.8747 27.505 27.0572 33.4265 27.0572C39.348 27.0572 44.1656 31.8747 44.1656 37.7963C44.1656 43.7178 39.348 48.5354 33.4265 48.5354Z" fill="#D4AF37"/>
</g>
</g>
<g id="Group_7">
<g id="Group_8">
<path id="Vector_4" d="M33.4267 29.248C28.7132 29.248 24.8784 33.0827 24.8784 37.7963C24.8784 42.5098 28.7131 46.3445 33.4267 46.3445C35.7947 46.3445 37.9968 45.3983 39.6276 43.6802C39.9061 43.3868 39.894 42.9233 39.6005 42.6448C39.3072 42.3663 38.8436 42.3783 38.5651 42.6718C37.2137 44.0955 35.389 44.8796 33.4267 44.8796C29.5209 44.8796 26.3433 41.702 26.3433 37.7963C26.3433 33.8906 29.5209 30.7129 33.4267 30.7129C37.3324 30.7129 40.51 33.8904 40.51 37.7963C40.51 38.8357 40.2903 39.8365 39.857 40.7712C39.6868 41.1382 39.8465 41.5737 40.2134 41.7438C40.5803 41.9138 41.0158 41.7541 41.186 41.3873C41.7093 40.2581 41.9747 39.0499 41.9747 37.7964C41.9748 33.0827 38.1401 29.248 33.4267 29.248Z" fill="#D4AF37"/>
</g>
</g>
<g id="Group_9">
<g id="Group_10">
<path id="Vector_5" d="M33.9774 37.1899H32.9678C32.6421 37.1899 32.3772 36.925 32.3772 36.5993C32.3772 36.2736 32.642 36.0086 32.9677 36.0086H34.5689C34.5877 36.3964 34.908 36.7049 35.3004 36.7049C35.7049 36.7049 36.0328 36.377 36.0328 35.9725C36.0328 35.1847 35.3919 34.5438 34.604 34.5438H34.2049V33.698C34.2049 33.2935 33.877 32.9656 33.4725 32.9656C33.068 32.9656 32.74 33.2935 32.74 33.698V34.5571C31.7135 34.6708 30.9121 35.5428 30.9121 36.5992C30.9121 37.7326 31.8342 38.6546 32.9676 38.6546H33.9773C34.3029 38.6546 34.5679 38.9196 34.5679 39.2453C34.5679 39.571 34.3029 39.8359 33.9773 39.8359H32.3763C32.3574 39.4481 32.0371 39.1396 31.6447 39.1396C31.2402 39.1396 30.9123 39.4675 30.9123 39.872C30.9123 40.6598 31.5532 41.3007 32.341 41.3007H32.7401V42.1466C32.7401 42.551 33.0681 42.879 33.4726 42.879C33.8771 42.879 34.205 42.551 34.205 42.1466V41.2875C35.2316 41.1738 36.0329 40.3017 36.0329 39.2454C36.0329 38.112 35.1108 37.1899 33.9774 37.1899Z" fill="#D4AF37"/>
</g>
</g>
<g id="Group_11">
<g id="Group_12">
<path id="Vector_6" d="M41.0945 15.1948H38.332C37.9275 15.1948 37.5996 15.5228 37.5996 15.9272C37.5996 16.3317 37.9275 16.6597 38.332 16.6597H41.0945C41.499 16.6597 41.827 16.3317 41.827 15.9272C41.827 15.5228 41.499 15.1948 41.0945 15.1948Z" fill="#D4AF37"/>
</g>
</g>
<g id="Group_13">
<g id="Group_14">
<path id="Vector_7" d="M45.7919 20.593H43.0293C42.6248 20.593 42.2969 20.9209 42.2969 21.3254C42.2969 21.7299 42.6248 22.0579 43.0293 22.0579H45.7919C46.1964 22.0579 46.5243 21.7299 46.5243 21.3254C46.5243 20.9209 46.1964 20.593 45.7919 20.593Z" fill="#D4AF37"/>
</g>
</g>
<g id="Group_15">
<g id="Group_16">
<path id="Vector_8" d="M12.2556 10.5698H9.49317C9.08867 10.5698 8.76074 10.8978 8.76074 11.3022C8.76074 11.7067 9.08857 12.0347 9.49317 12.0347H12.2557C12.6602 12.0347 12.9881 11.7067 12.9881 11.3022C12.988 10.8978 12.6601 10.5698 12.2556 10.5698Z" fill="#D4AF37"/>
</g>
</g>
<g id="Group_17">
<g id="Group_18">
<path id="Vector_9" d="M19.305 3.27539H16.5425C16.138 3.27539 15.8101 3.60332 15.8101 4.00781C15.8101 4.41231 16.138 4.74024 16.5425 4.74024H19.305C19.7095 4.74024 20.0374 4.41231 20.0374 4.00781C20.0374 3.60332 19.7095 3.27539 19.305 3.27539Z" fill="#D4AF37"/>
</g>
</g>
</g>
<defs>
<clipPath id="clip0_0_1">
<rect width="50" height="50" fill="white"/>
</clipPath>
</defs>
</svg>
