<svg width="35" height="35" viewBox="0 0 35 35" fill="none" xmlns="http://www.w3.org/2000/svg">
<g clip-path="url(#clip0_951_2552)">
<path d="M17.4954 6.22339C11.2775 6.22339 6.21875 11.2821 6.21875 17.5C6.21875 23.718 11.2775 28.7767 17.4954 28.7767C23.7134 28.7767 28.7721 23.718 28.7721 17.5C28.7721 11.2821 23.7134 6.22339 17.4954 6.22339ZM17.4954 26.7264C12.408 26.7264 8.26905 22.5875 8.26905 17.5C8.26905 12.4126 12.408 8.27369 17.4954 8.27369C22.5828 8.27369 26.7218 12.4126 26.7218 17.5C26.7218 22.5875 22.5829 26.7264 17.4954 26.7264Z" fill="#2C2C2C"/>
<path d="M21.8956 13.6997L16.4695 19.1257L13.0938 15.75C12.6935 15.3496 12.0444 15.3496 11.644 15.75C11.2437 16.1503 11.2437 16.7994 11.644 17.1997L15.7446 21.3003C15.9448 21.5005 16.2072 21.6007 16.4695 21.6007C16.7318 21.6007 16.9942 21.5006 17.1943 21.3003L23.3452 15.1494C23.7456 14.7491 23.7456 14.1 23.3452 13.6997C22.945 13.2993 22.2959 13.2993 21.8956 13.6997Z" fill="#2C2C2C"/>
<path d="M33.532 10.3124C33.5286 10.3103 29.9515 8.16909 29.9515 8.16909L29.1486 4.84364C28.7923 3.36803 27.4355 2.38177 25.9217 2.49919L21.8455 2.81466C21.8455 2.81466 19.4974 0.742351 19.4927 0.738455C18.3372 -0.245826 16.6597 -0.245826 15.5042 0.738455C15.4996 0.742351 13.1514 2.81466 13.1514 2.81466L9.07517 2.49919C7.5736 2.38259 6.22716 3.35163 5.85743 4.80687L4.7396 8.36865C4.7396 8.36865 1.47231 10.3097 1.468 10.3124C0.174743 11.1072 -0.343641 12.7026 0.235501 14.1058L1.63025 17.4857L0.235501 20.8656C-0.343641 22.2688 0.174744 23.8641 1.46807 24.659C1.47204 24.6614 5.04216 26.7887 5.04216 26.7887L5.84847 30.1277C6.18554 31.5239 7.41832 32.4818 8.83207 32.4816C9.04831 32.4816 8.80542 32.4898 13.1091 32.16C13.1091 32.16 15.5004 34.2584 15.5042 34.2616C16.082 34.7538 16.7902 34.9999 17.4986 34.9999C18.2068 34.9999 18.9151 34.7538 19.4929 34.2616C19.4967 34.2583 21.888 32.16 21.888 32.16L25.9218 32.4722C27.4351 32.5891 28.7924 31.6033 29.1486 30.1277L29.9516 26.8022C34.3288 24.1821 33.4007 24.74 33.5321 24.6589C34.8253 23.8641 35.3437 22.2687 34.7645 20.8655L33.3698 17.4856L34.7645 14.1057C35.3436 12.7026 34.8253 11.1073 33.532 10.3124ZM31.3131 17.8768L32.8692 21.6478C33.0617 22.114 32.8906 22.6439 32.4626 22.9097L28.5295 25.2641C28.2935 25.4053 28.1241 25.6356 28.0595 25.903L27.1555 29.6467C27.0368 30.1385 26.5852 30.467 26.08 30.4281L21.6155 30.0826C21.3405 30.0613 21.0678 30.1519 20.8602 30.3341L18.1585 32.705C17.775 33.0278 17.222 33.0278 16.8385 32.7049L14.1369 30.3341C13.9293 30.1519 13.6564 30.0611 13.3816 30.0826L8.91716 30.4281C8.4123 30.4671 7.96028 30.1385 7.84157 29.6466L6.93404 25.8882C6.86932 25.6201 6.69921 25.3894 6.46226 25.2482L2.53669 22.9091C2.10927 22.6431 1.93855 22.1137 2.13087 21.6477L3.68705 17.8767C3.79045 17.6262 3.79045 17.3451 3.68705 17.0946L2.13066 13.3236C1.93848 12.8579 2.109 12.3287 2.53594 12.0626L6.12396 9.93105C6.34102 9.80208 6.50286 9.5976 6.57845 9.35669C7.90075 5.14079 7.82612 5.38826 7.84143 5.32477C7.96015 4.83297 8.41094 4.50397 8.91702 4.54333L13.4256 4.8923C13.7023 4.91362 13.9752 4.82218 14.1831 4.63881L16.8395 2.29436C17.2224 1.97274 17.7743 1.97274 18.1573 2.29422L20.8138 4.63881C21.0217 4.82231 21.2953 4.91362 21.5713 4.8923L26.0799 4.54333C26.5842 4.50438 27.0368 4.83291 27.1555 5.32484L28.0594 9.06842C28.124 9.33584 28.2934 9.56609 28.5294 9.70743L32.4625 12.0617C32.8906 12.3275 33.0617 12.8574 32.8692 13.3236L31.313 17.0946C31.2097 17.3451 31.2097 17.6263 31.3131 17.8768Z" fill="#2C2C2C"/>
</g>
<defs>
<clipPath id="clip0_951_2552">
<rect width="35" height="35" fill="white"/>
</clipPath>
</defs>
</svg>
