<svg preserveAspectRatio="none" width="100%" height="100%" overflow="visible" style="display: block;" viewBox="0 0 142 142" fill="none" xmlns="http://www.w3.org/2000/svg">
<g id="fi_7720790">
<path id="Vector" d="M61.293 25.2383H25.2383C22.1797 25.2383 19.6914 27.7266 19.6914 30.7852V111.215C19.6914 114.273 22.1797 116.762 25.2383 116.762H36.332C40.2662 116.762 41.7777 113.662 41.8739 111.441C41.8739 111.441 66.8398 30.9244 66.8398 30.7852C66.8398 27.7266 64.3515 25.2383 61.293 25.2383ZM39.1679 110.804C39.1265 110.937 39.1055 111.075 39.1055 111.215C39.1055 111.222 39.0836 111.971 38.7319 112.675C38.2837 113.571 37.5213 113.988 36.332 113.988H25.2383C23.709 113.988 22.4648 112.744 22.4648 111.215V30.7852C22.4648 29.2559 23.709 28.0117 25.2383 28.0117H61.293C62.7585 28.0117 63.9621 29.1544 64.06 30.5955L39.1679 110.804ZM116.762 25.2383H80.707C77.6485 25.2383 75.1602 27.7266 75.1602 30.7852V111.215C75.1602 114.273 77.6485 116.762 80.707 116.762H91.8008C95.7349 116.762 97.2464 113.662 97.3427 111.441C97.3427 111.441 122.309 30.9244 122.309 30.7852C122.309 27.7266 119.821 25.2383 116.762 25.2383ZM94.6366 110.804C94.5956 110.937 94.5742 111.075 94.5742 111.215C94.5742 111.222 94.5523 111.971 94.2006 112.675C93.7525 113.571 92.99 113.988 91.8008 113.988H80.707C79.1778 113.988 77.9336 112.744 77.9336 111.215V30.7852C77.9336 29.2559 79.1778 28.0117 80.707 28.0117H116.762C118.227 28.0117 119.431 29.1544 119.529 30.5955L94.6366 110.804Z" fill="url(#paint0_linear_0_4)"/>
</g>
<defs>
<linearGradient id="paint0_linear_0_4" x1="71" y1="25.2383" x2="71" y2="116.762" gradientUnits="userSpaceOnUse">
<stop stop-color="#F0E3D8"/>
<stop offset="1" stop-color="white"/>
</linearGradient>
</defs>
</svg>
