<svg width="50" height="50" viewBox="0 0 50 50" fill="none" xmlns="http://www.w3.org/2000/svg">
<path d="M24.7012 47.4999C24.4524 47.4999 24.2244 47.3346 24.1556 47.0831L18.0896 24.9256C18.0069 24.6243 18.1844 24.3131 18.4859 24.2302C18.7866 24.1495 19.0986 24.3258 19.1812 24.6271L25.2472 46.7847C25.3298 47.0859 25.1524 47.3971 24.8509 47.48C24.801 47.4932 24.7507 47.4999 24.7012 47.4999Z" fill="#2C2C2C"/>
<path d="M18.8428 37.685C18.6501 37.685 18.4622 37.5866 18.3561 37.4092L10.9884 25.0666C10.828 24.798 10.9157 24.4509 11.1841 24.2906C11.4522 24.1303 11.7995 24.2181 11.9604 24.4862L19.3281 36.8288C19.4884 37.0974 19.4008 37.4445 19.1324 37.6049C19.0415 37.6591 18.9414 37.685 18.8428 37.685Z" fill="#2C2C2C"/>
<path d="M44.4999 25.3424H4.90291C4.59041 25.3424 4.33691 25.0893 4.33691 24.7764C4.33691 24.4635 4.59031 24.2104 4.90291 24.2104H44.4999C44.8124 24.2104 45.0659 24.4636 45.0659 24.7764C45.0659 25.0892 44.8124 25.3424 44.4999 25.3424Z" fill="#2C2C2C"/>
<path d="M30.7675 25.3423C30.7432 25.3423 30.7189 25.3407 30.6943 25.3373C30.5451 25.3179 30.4097 25.24 30.3182 25.1206L24.7015 17.788L19.0848 25.1206C18.9933 25.24 18.858 25.3179 18.7087 25.3373C18.5578 25.3567 18.4086 25.3163 18.2892 25.224L9.35251 18.3159C9.10541 18.1246 9.05981 17.7692 9.25111 17.5222C9.44211 17.2751 9.79801 17.2298 10.0452 17.4204L18.5319 23.9808L24.2522 16.5128C24.4666 16.2331 24.9364 16.2331 25.151 16.5128L30.8713 23.9808L39.358 17.4204C39.6051 17.2297 39.9613 17.2745 40.152 17.5222C40.3433 17.7693 40.2976 18.1247 40.0506 18.3159L31.114 25.224C31.014 25.3014 30.8922 25.3423 30.7675 25.3423Z" fill="#2C2C2C"/>
<path d="M24.7016 47.4999C24.6521 47.4999 24.6018 47.4932 24.5518 47.48C24.2502 47.3971 24.0729 47.0859 24.1555 46.7847L30.2215 24.6271C30.3039 24.3259 30.6145 24.1496 30.9169 24.2302C31.2184 24.3131 31.3958 24.6243 31.3132 24.9256L25.2472 47.0831C25.1783 47.3346 24.9503 47.4999 24.7016 47.4999Z" fill="#2C2C2C"/>
<path d="M30.5601 37.685C30.4614 37.685 30.3614 37.659 30.2704 37.6049C30.0021 37.4445 29.9144 37.0974 30.0748 36.8288L37.4426 24.4862C37.6035 24.2181 37.9505 24.1308 38.2189 24.2906C38.4872 24.4509 38.575 24.798 38.4146 25.0666L31.0469 37.4092C30.9408 37.5866 30.7527 37.685 30.5601 37.685Z" fill="#2C2C2C"/>
<path d="M24.7013 37.6849C24.3887 37.6849 24.1353 37.4317 24.1353 37.1189V16.8573C24.1353 16.5444 24.3887 16.2913 24.7013 16.2913C25.0138 16.2913 25.2673 16.5445 25.2673 16.8573V37.119C25.2673 37.4317 25.0138 37.6849 24.7013 37.6849Z" fill="#2C2C2C"/>
<path d="M41.7657 10.2941C41.2531 10.2941 40.7819 10.015 40.5359 9.56556L39.8887 8.38096C39.8641 8.33616 39.8264 8.29856 39.7808 8.27376L38.5977 7.62646C38.1481 7.38106 37.8687 6.90956 37.8687 6.39706C37.8687 5.88476 38.1481 5.41326 38.5977 5.16776L39.7814 4.51996C39.827 4.49506 39.8638 4.45806 39.8887 4.41216L40.5359 3.22936C40.7819 2.77946 41.253 2.49976 41.7657 2.49976C42.278 2.49976 42.7494 2.77946 42.9954 3.22936L43.6428 4.41216C43.6677 4.45806 43.7043 4.49506 43.7488 4.51886L44.9338 5.16776C45.3835 5.41316 45.6628 5.88466 45.6628 6.39706C45.6628 6.90946 45.3835 7.38096 44.9335 7.62696L43.7502 8.27366C43.7049 8.29846 43.6674 8.33546 43.6425 8.38136L42.9954 9.56486C42.7494 10.015 42.278 10.2941 41.7657 10.2941ZM41.7657 3.63196C41.7176 3.63196 41.5985 3.64576 41.5292 3.77226L40.8819 4.95566C40.7523 5.19226 40.5594 5.38516 40.3237 5.51346L39.1407 6.16076C39.0142 6.22976 39.0006 6.34926 39.0006 6.39726C39.0006 6.44536 39.0142 6.56486 39.1405 6.63386L40.3243 7.28116C40.5598 7.40996 40.7522 7.60236 40.8812 7.83726L41.529 9.02236C41.5981 9.14836 41.7176 9.16216 41.7657 9.16216C41.8135 9.16216 41.9328 9.14836 42.0019 9.02176L42.6494 7.83836C42.7786 7.60236 42.9711 7.41006 43.2066 7.28126L44.3903 6.63396C44.5169 6.56426 44.5307 6.44546 44.5307 6.39736C44.5307 6.34936 44.5169 6.23046 44.3906 6.16136L43.2066 5.51296C42.9716 5.38526 42.7783 5.19236 42.6493 4.95516L42.0019 3.77286C41.9326 3.64576 41.8135 3.63196 41.7657 3.63196Z" fill="#2C2C2C"/>
<path d="M32.9492 17.0363C32.4369 17.0363 31.9656 16.7571 31.7197 16.3077L30.8265 14.6744C30.8016 14.6285 30.7651 14.5921 30.7206 14.5678L29.0864 13.674C28.6368 13.4286 28.3574 12.9571 28.3574 12.4447C28.3574 11.9323 28.6368 11.4608 29.0867 11.2148L30.7195 10.3222C30.7645 10.2973 30.8016 10.2603 30.8261 10.2155L31.7196 8.58214C31.9655 8.13224 32.4368 7.85254 32.9491 7.85254C33.4618 7.85254 33.933 8.13224 34.179 8.58214L35.0719 10.2149C35.0965 10.2597 35.1338 10.2973 35.1797 10.3222L36.8122 11.2154C37.2615 11.4608 37.541 11.9323 37.541 12.4448C37.541 12.9571 37.2615 13.4286 36.8119 13.6741L35.1792 14.5673C35.1336 14.5922 35.0968 14.6291 35.0719 14.675L34.179 16.3073C33.9331 16.7571 33.4619 17.0363 32.9492 17.0363ZM32.9492 8.98454C32.9014 8.98454 32.7823 8.99834 32.7129 9.12484L31.8197 10.7576C31.6917 10.9925 31.4991 11.1854 31.2633 11.3147L29.6296 12.2079C29.503 12.2776 29.4892 12.3964 29.4892 12.4445C29.4892 12.4925 29.503 12.6114 29.6293 12.6805L31.2626 13.5743C31.4978 13.702 31.6907 13.8949 31.8197 14.1321L32.7126 15.7643C32.7817 15.8903 32.9011 15.9042 32.9489 15.9042C32.997 15.9042 33.1164 15.8903 33.1855 15.7638L34.0784 14.1315C34.208 13.895 34.4009 13.7021 34.6367 13.5738L36.2687 12.6811C36.3952 12.612 36.4088 12.4926 36.4088 12.4446C36.4088 12.3965 36.3952 12.2771 36.2689 12.208L34.6356 11.3148C34.3995 11.1855 34.2072 10.9931 34.0784 10.7582L33.1855 9.12484C33.1165 8.99834 32.9973 8.98454 32.9492 8.98454Z" fill="#2C2C2C"/>
<path d="M24.7015 47.5C24.5404 47.5 24.3867 47.4315 24.2795 47.311L4.48098 25.1534C4.30628 24.9583 4.28858 24.6686 4.43818 24.4537L11.5152 14.2595C11.6208 14.1069 11.7946 14.0163 11.98 14.0163H27.7347C28.0473 14.0163 28.3007 14.2694 28.3007 14.5823C28.3007 14.8952 28.0473 15.1483 27.7347 15.1483H12.2759L5.62258 24.7322L24.7014 46.0845L43.7802 24.7322L36.9583 14.9051C36.78 14.6481 36.8436 14.2955 37.1004 14.1175C37.3571 13.9384 37.7101 14.0031 37.8881 14.2596L44.9648 24.4538C45.1144 24.6688 45.0966 24.9584 44.922 25.1535L25.1235 47.311C25.0163 47.4315 24.8626 47.5 24.7015 47.5Z" fill="#2C2C2C"/>
</svg>
