<svg width="50" height="50" viewBox="0 0 50 50" fill="none" xmlns="http://www.w3.org/2000/svg">
<g clip-path="url(#clip0_211_1107)">
<path d="M3.33333 31.6665H21.6667V31.6798C21.6667 45.0448 32.315 47.8515 34.4483 48.2782C34.63 48.3146 34.8148 48.3331 35 48.3332C35.1844 48.3331 35.3684 48.3147 35.5492 48.2782C37.685 47.8515 48.3333 45.0448 48.3333 31.6798V23.6798C48.3362 23.1896 48.1502 22.717 47.814 22.3601C47.4778 22.0033 47.0171 21.7895 46.5275 21.7632C45.4512 21.7139 44.3818 21.564 43.3333 21.3157V4.99984C43.3333 4.11578 42.9821 3.26794 42.357 2.64281C41.7319 2.01769 40.8841 1.6665 40 1.6665H3.33333C2.44928 1.6665 1.60143 2.01769 0.976311 2.64281C0.35119 3.26794 0 4.11578 0 4.99984L0 28.3332C0 29.2172 0.35119 30.0651 0.976311 30.6902C1.60143 31.3153 2.44928 31.6665 3.33333 31.6665ZM46.6667 23.6815V31.6815C46.6667 43.7457 37.1342 46.2648 35.2217 46.6457C35.0749 46.6765 34.9234 46.6765 34.7767 46.6457C32.8658 46.2615 23.3333 43.744 23.3333 31.6798V23.6798C23.3329 23.6183 23.3552 23.5588 23.396 23.5126C23.4367 23.4665 23.493 23.437 23.5542 23.4298C29.8183 23.1257 33.2958 20.1615 34.8117 18.4215C34.8347 18.3937 34.8635 18.3714 34.8961 18.356C34.9287 18.3407 34.9644 18.3327 35.0004 18.3327C35.0365 18.3327 35.0721 18.3407 35.1047 18.356C35.1373 18.3714 35.1662 18.3937 35.1892 18.4215C36.7042 20.1607 40.1817 23.1248 46.4458 23.429C46.5074 23.4362 46.5641 23.4661 46.6049 23.5127C46.6457 23.5594 46.6677 23.6195 46.6667 23.6815ZM36.4458 17.3282C36.2613 17.1292 36.0376 16.9705 35.7889 16.862C35.5402 16.7535 35.2718 16.6975 35.0004 16.6975C34.7291 16.6975 34.4606 16.7535 34.2119 16.862C33.9632 16.9705 33.7396 17.1292 33.555 17.3282C32.2133 18.8682 29.12 21.4948 23.4717 21.7657C22.9824 21.7922 22.522 22.0059 22.186 22.3626C21.85 22.7192 21.664 23.1915 21.6667 23.6815V29.9998H3.33333C2.89131 29.9998 2.46738 29.8242 2.15482 29.5117C1.84226 29.1991 1.66667 28.7752 1.66667 28.3332V14.1665H41.6667V20.8165C39.6604 20.1118 37.8647 18.912 36.4458 17.3282ZM41.6667 12.4998H1.66667V8.33317H41.6667V12.4998ZM3.33333 3.33317H40C40.442 3.33317 40.866 3.50877 41.1785 3.82133C41.4911 4.13389 41.6667 4.55781 41.6667 4.99984V6.6665H1.66667V4.99984C1.66667 4.55781 1.84226 4.13389 2.15482 3.82133C2.46738 3.50877 2.89131 3.33317 3.33333 3.33317Z" fill="#D4AF37"/>
<path d="M29.7558 35.2441C29.5987 35.0924 29.3882 35.0084 29.1697 35.0103C28.9512 35.0122 28.7422 35.0998 28.5876 35.2543C28.4331 35.4088 28.3455 35.6178 28.3436 35.8363C28.3417 36.0548 28.4257 36.2653 28.5775 36.4225L31.9108 39.7558C32.0671 39.9121 32.279 39.9999 32.5 40H32.5692C32.6896 39.9898 32.8065 39.9535 32.9115 39.8936C33.0165 39.8338 33.1073 39.7518 33.1775 39.6533L41.5108 27.9866C41.6326 27.8066 41.6791 27.5862 41.6407 27.3723C41.6022 27.1584 41.4817 26.968 41.3048 26.8417C41.128 26.7154 40.9088 26.6632 40.694 26.6962C40.4792 26.7292 40.2858 26.8448 40.155 27.0183L32.3933 37.8816L29.7558 35.2441Z" fill="#D4AF37"/>
<path d="M14.1666 21.6665H4.16665C3.94563 21.6665 3.73367 21.7543 3.57739 21.9106C3.42111 22.0669 3.33331 22.2788 3.33331 22.4998C3.33331 22.7209 3.42111 22.9328 3.57739 23.0891C3.73367 23.2454 3.94563 23.3332 4.16665 23.3332H14.1666C14.3877 23.3332 14.5996 23.2454 14.7559 23.0891C14.9122 22.9328 15 22.7209 15 22.4998C15 22.2788 14.9122 22.0669 14.7559 21.9106C14.5996 21.7543 14.3877 21.6665 14.1666 21.6665Z" fill="#D4AF37"/>
<path d="M10.8333 25H4.16665C3.94563 25 3.73367 25.0878 3.57739 25.2441C3.42111 25.4004 3.33331 25.6123 3.33331 25.8333C3.33331 26.0543 3.42111 26.2663 3.57739 26.4226C3.73367 26.5789 3.94563 26.6667 4.16665 26.6667H10.8333C11.0543 26.6667 11.2663 26.5789 11.4226 26.4226C11.5788 26.2663 11.6666 26.0543 11.6666 25.8333C11.6666 25.6123 11.5788 25.4004 11.4226 25.2441C11.2663 25.0878 11.0543 25 10.8333 25Z" fill="#D4AF37"/>
</g>
<defs>
<clipPath id="clip0_211_1107">
<rect width="50" height="50" fill="white"/>
</clipPath>
</defs>
</svg>
