<svg width="35" height="35" viewBox="0 0 35 35" fill="none" xmlns="http://www.w3.org/2000/svg">
<g clip-path="url(#clip0_951_2564)">
<path d="M25.5182 35C20.2916 35 16.0391 30.7475 16.0391 25.5208C16.0391 20.2941 20.2916 16.0416 25.5182 16.0416C30.7449 16.0416 34.9974 20.2941 34.9974 25.5208C34.9974 30.7475 30.7449 35 25.5182 35ZM25.5182 17.5C21.0951 17.5 17.4974 21.0977 17.4974 25.5208C17.4974 29.9439 21.0951 33.5416 25.5182 33.5416C29.9414 33.5416 33.5391 29.9439 33.5391 25.5208C33.5391 21.0977 29.9414 17.5 25.5182 17.5Z" fill="#2C2C2C"/>
<path d="M24.0603 29.1667C23.8678 29.1667 23.6811 29.0894 23.544 28.9538L20.6273 26.0371C20.343 25.7527 20.343 25.2904 20.6273 25.0061C20.9117 24.7217 21.374 24.7217 21.6584 25.0061L24.0238 27.3715L28.6146 22.1244C28.8801 21.8196 29.3409 21.789 29.6442 22.0559C29.9476 22.3213 29.9782 22.7821 29.7128 23.0854L24.6086 28.9188C24.4759 29.0704 24.2848 29.1609 24.0836 29.1667C24.0763 29.1667 24.0676 29.1667 24.0603 29.1667Z" fill="#2C2C2C"/>
<path d="M14.5972 15.3125C14.3289 15.3125 14.0722 15.1652 13.9439 14.91C13.7645 14.5498 13.9104 14.1109 14.2706 13.9315L28.116 7.00441C28.3406 6.89066 28.6089 6.90232 28.8247 7.03649C29.0391 7.1692 29.1704 7.40399 29.1704 7.65628V13.8542C29.1704 14.2567 28.8437 14.5834 28.4412 14.5834C28.0387 14.5834 27.712 14.2567 27.712 13.8542V8.83608L14.9224 15.2352C14.8174 15.2877 14.7066 15.3125 14.5972 15.3125Z" fill="#2C2C2C"/>
<path d="M13.844 29.1667C13.7244 29.1667 13.6019 29.1375 13.4896 29.0748L0.373333 21.7832C0.144375 21.6548 0 21.4113 0 21.1459V7.65628C0 7.40399 0.13125 7.1692 0.345625 7.03649C0.56 6.90232 0.83125 6.89066 1.05438 7.00441L14.8998 13.9315C15.26 14.1123 15.4058 14.5498 15.2265 14.91C15.0471 15.2702 14.6081 15.4161 14.2479 15.2367L1.45833 8.83608V20.7171L14.1998 27.8002C14.5513 27.9957 14.6781 28.439 14.4827 28.7919C14.3485 29.0311 14.1006 29.1667 13.844 29.1667Z" fill="#2C2C2C"/>
<path d="M28.4372 8.38542C28.3278 8.38542 28.217 8.36063 28.112 8.30813L14.5743 1.54438L1.05555 8.30813C0.695341 8.48604 0.256382 8.34313 0.0770073 7.98292C-0.102368 7.62271 0.0420073 7.18375 0.402216 7.00438L14.2476 0.0772949C14.4533 -0.0247884 14.6953 -0.0247884 14.8995 0.0772949L28.7624 7.00438C29.1226 7.18521 29.2685 7.62271 29.0891 7.98292C28.9622 8.23813 28.7041 8.38542 28.4372 8.38542Z" fill="#2C2C2C"/>
<path d="M7.35417 17.1194C6.95167 17.1194 6.625 16.7928 6.625 16.3903V10.9682C6.625 10.6925 6.78104 10.4403 7.0275 10.3163L20.8729 3.38921C21.2331 3.20983 21.6706 3.35567 21.8515 3.71588C22.0323 4.07608 21.885 4.51358 21.5248 4.69442L8.08333 11.4203V16.3917C8.08333 16.7942 7.75813 17.1194 7.35417 17.1194Z" fill="#2C2C2C"/>
</g>
<defs>
<clipPath id="clip0_951_2564">
<rect width="35" height="35" fill="white"/>
</clipPath>
</defs>
</svg>
