<svg width="50" height="50" viewBox="0 0 50 50" fill="none" xmlns="http://www.w3.org/2000/svg">
<g clip-path="url(#clip0_988_6767)">
<path d="M37.3013 27.0929C37.3972 27.1351 37.4973 27.155 37.5957 27.155C37.8774 27.155 38.146 26.9915 38.2666 26.7171L41.9185 18.4096C42.0181 18.1831 41.9965 17.9217 41.8612 17.7145C41.726 17.5073 41.4953 17.3824 41.248 17.3824H36.6777C36.2731 17.3824 35.9453 17.7104 35.9453 18.1149C35.9453 18.5194 36.2731 18.8473 36.6777 18.8473H40.126L36.9256 26.1278C36.7627 26.498 36.931 26.9301 37.3013 27.0929Z" fill="#D4AF37"/>
<path d="M27.791 18.6298C27.7427 18.0506 27.4006 17.5802 26.9195 17.4312C26.6918 17.3606 26.1027 17.2692 25.5544 17.9419C25.0809 18.5229 22.7295 22.771 22.2629 23.6167C22.1378 23.8436 22.1419 24.1198 22.2736 24.3429C22.4053 24.566 22.6452 24.703 22.9043 24.703H26.3215C26.3171 25.3103 26.3125 25.8944 26.308 26.4161C26.3045 26.8206 26.6295 27.1513 27.0341 27.1548H27.0405C27.442 27.1548 27.7693 26.8311 27.7728 26.4287C27.7754 26.1164 27.7808 25.482 27.7865 24.703H28.1212C28.5258 24.703 28.8537 24.375 28.8537 23.9705C28.8537 23.566 28.5258 23.2381 28.1212 23.2381H27.7963C27.8086 21.1939 27.8161 18.9305 27.791 18.6298ZM26.3311 23.2381H24.1482C24.9455 21.8089 25.8424 20.2294 26.3418 19.4056C26.3457 20.2327 26.3402 21.7095 26.3311 23.2381Z" fill="#D4AF37"/>
<path d="M21.8743 20.6462C21.8799 20.6223 21.8841 20.598 21.8873 20.5737L21.9284 20.2524C21.9323 20.2217 21.9344 20.1906 21.9344 20.1595C21.9344 18.5835 20.6522 17.3013 19.0762 17.3013C17.7135 17.3013 16.534 18.2706 16.2717 19.6062C16.1937 20.003 16.4524 20.3881 16.8492 20.466C17.2463 20.5438 17.6312 20.2854 17.7091 19.8886C17.8369 19.2382 18.4118 18.7661 19.0763 18.7661C19.8306 18.7661 20.4469 19.3686 20.4691 20.1177L20.4394 20.3488C20.3312 20.787 20.075 21.2966 19.6776 21.8644C18.3593 23.7479 17.5724 24.7782 17.1496 25.3318C16.6314 26.0104 16.4569 26.2389 16.5859 26.658C16.6602 26.8992 16.8436 27.0846 17.089 27.1663C17.1875 27.1991 17.3029 27.2378 18.8941 27.2378C19.5231 27.2378 20.3831 27.2317 21.5633 27.2169C21.9679 27.2118 22.2916 26.8798 22.2864 26.4753C22.2815 26.0739 21.9546 25.7521 21.5543 25.7521C21.5512 25.7521 21.5481 25.7521 21.5449 25.7521C20.5357 25.7647 19.4573 25.7713 18.6559 25.771C19.1239 25.152 19.8383 24.1891 20.8777 22.7041C21.3931 21.9677 21.7284 21.2752 21.8743 20.6462Z" fill="#D4AF37"/>
<path d="M30.498 27.2363C30.7891 27.2363 31.0646 27.0614 31.1787 26.7743L34.5153 18.3856C34.6649 18.0097 34.4814 17.5838 34.1055 17.4343C33.7298 17.285 33.3038 17.4683 33.1543 17.8442L29.8177 26.233C29.6682 26.6089 29.8517 27.0348 30.2275 27.1843C30.3163 27.2196 30.4078 27.2363 30.498 27.2363Z" fill="#D4AF37"/>
<path d="M44.4886 7.60278C44.2218 7.29868 43.759 7.26831 43.455 7.535C43.1509 7.8017 43.1204 8.2644 43.3871 8.5686C46.863 12.5327 48.6874 17.6275 48.5242 22.9147C48.3602 28.2253 46.1998 33.2202 42.4409 36.9791C40.7395 38.6804 38.7891 40.0567 36.6382 41.0749C36.4643 40.8503 36.2594 40.648 36.0272 40.475L35.0992 39.777C37.3631 38.8274 39.3978 37.4584 41.1591 35.6972C48.5635 28.2927 48.5635 16.2448 41.1591 8.84028C34.0289 1.7102 22.5674 1.39223 15.0661 8.11684C14.7649 8.38686 14.7396 8.84985 15.0096 9.15112C15.2796 9.45219 15.7426 9.47758 16.0439 9.20756C22.9663 3.00229 33.5433 3.29594 40.1234 9.87602C46.9568 16.7094 46.9568 27.8281 40.1234 34.6614C38.2907 36.4941 36.1375 37.8656 33.723 38.7416L30.5021 36.3187C29.6181 35.6538 28.3715 35.7518 27.6022 36.5465L24.9968 39.2388C24.9174 39.3208 24.7896 39.3368 24.6924 39.2763C19.0581 35.7718 14.2276 30.9413 10.723 25.3069C10.6626 25.2099 10.6784 25.0819 10.7606 25.0025L13.4529 22.397C14.2477 21.6278 14.3456 20.3812 13.6807 19.4972L11.2575 16.2759C11.8908 14.5312 12.7938 12.9063 13.9447 11.4443C14.1949 11.1265 14.1401 10.666 13.8223 10.4158C13.5045 10.1656 13.0439 10.2204 12.7938 10.5382C11.7407 11.8758 10.8786 13.339 10.2225 14.9001L9.52649 13.9749C9.35276 13.7416 9.14974 13.536 8.92454 13.3615C9.943 11.2104 11.3191 9.25952 13.0203 7.55825C16.7334 3.84516 21.666 1.68696 26.9095 1.4811C32.1236 1.27583 37.1806 3.01225 41.1488 6.36899C41.4576 6.63022 41.9198 6.59155 42.1809 6.28286C42.4422 5.97407 42.4035 5.51196 42.0948 5.25063C37.8464 1.65688 32.434 -0.201421 26.852 0.0173289C21.2389 0.237739 15.9588 2.5479 11.9842 6.52241C10.158 8.34868 8.68167 10.4446 7.59026 12.7565C7.46565 12.7321 7.33909 12.7143 7.21097 12.705C6.28968 12.6378 5.3889 12.9739 4.73645 13.6262L1.05667 17.306C0.481181 17.8816 0.123466 18.6296 0.0493449 19.4123C-0.177901 21.8139 0.380497 24.5469 1.70901 27.5354C1.87347 27.905 2.30618 28.0715 2.67581 27.9072C3.04544 27.7428 3.21184 27.31 3.04759 26.9404C1.82249 24.1846 1.30442 21.6983 1.50774 19.5503C1.54983 19.1061 1.75755 18.6769 2.09261 18.3418L5.77239 14.6621C6.12366 14.3107 6.61048 14.1305 7.10462 14.1661C7.60022 14.2021 8.05462 14.4513 8.35354 14.8527L12.5099 20.3779C12.7316 20.6725 12.699 21.088 12.4339 21.3444L9.74163 23.9498C9.16722 24.5057 9.05667 25.4018 9.47903 26.0806C13.1015 31.9045 18.0946 36.8977 23.9186 40.5202C24.5973 40.9424 25.4935 40.8317 26.0492 40.2575L28.6546 37.5652C28.9111 37.3002 29.3268 37.2676 29.6212 37.4892L35.1493 41.6476C35.5478 41.9444 35.7971 42.3988 35.8331 42.8943C35.8692 43.3898 35.6884 43.8754 35.337 44.2267L31.6575 47.9064C31.3188 48.245 30.8679 48.4546 30.3878 48.4969C21.9647 49.2395 11.4114 38.7988 11.3059 38.6933C11.2672 38.6547 7.41292 34.7766 4.54808 29.8532C4.34466 29.5036 3.89612 29.385 3.54661 29.5885C3.197 29.7919 3.07854 30.2403 3.28196 30.5899C6.24163 35.6763 10.107 39.5661 10.27 39.7291C10.3823 39.8414 13.0614 42.5065 16.8814 45.1166C21.6298 48.3608 25.8694 50.0001 29.5033 50C29.8463 50 30.1843 49.9854 30.5163 49.9562C31.3386 49.8838 32.1116 49.5238 32.6933 48.9423L36.3729 45.2625C37.0252 44.6102 37.3611 43.7082 37.2941 42.788C37.2848 42.66 37.267 42.5336 37.2427 42.4091C39.5545 41.3177 41.6501 39.8413 43.4768 38.0148C47.5004 33.9913 49.8129 28.6446 49.9884 22.9598C50.163 17.3006 48.2098 11.8467 44.4886 7.60278Z" fill="#D4AF37"/>
</g>
<defs>
<clipPath id="clip0_988_6767">
<rect width="50" height="50" fill="white"/>
</clipPath>
</defs>
</svg>
