<svg width="35" height="35" viewBox="0 0 35 35" fill="none" xmlns="http://www.w3.org/2000/svg">
<path d="M32.4961 17.1434L28.0299 12.1523C27.3391 11.3804 26.3492 10.9375 25.3131 10.9375H21.3151L21.6935 7.53298C21.762 6.91538 21.5633 6.29522 21.1488 5.83256C20.7343 5.36991 20.1404 5.10413 19.5191 5.10413H4.3776C3.9751 5.10413 3.64844 5.43079 3.64844 5.83329C3.64844 6.23579 3.9751 6.56246 4.3776 6.56246H19.5191C19.7291 6.56246 19.922 6.6485 20.0623 6.80527C20.2023 6.96204 20.2672 7.16293 20.2439 7.3722L18.3083 24.7916H14.2768C14.2593 23.9152 13.9672 23.1054 13.4211 22.4543C12.7127 21.6103 11.6718 21.1458 10.4895 21.1458C8.34719 21.1458 6.29422 22.7343 5.63651 24.7916H2.1901C1.7876 24.7916 1.46094 25.1183 1.46094 25.5208C1.46094 25.9233 1.7876 26.25 2.1901 26.25H5.41594C5.43344 27.1264 5.72547 27.9362 6.27161 28.5873C6.98 29.4313 8.02089 29.8958 9.20323 29.8958C11.3455 29.8958 13.3985 28.3073 14.0562 26.25H21.093C21.1105 27.1264 21.4026 27.9362 21.9487 28.5873C22.6571 29.4313 23.698 29.8958 24.8803 29.8958C27.0226 29.8958 29.0756 28.3073 29.7333 26.25H30.7731C31.896 26.25 32.8311 25.4078 32.9485 24.2914L33.405 19.9562C33.5126 18.935 33.1811 17.9098 32.4961 17.1434ZM12.774 25.3939C12.4783 27.0725 10.8763 28.4375 9.20323 28.4375C8.45948 28.4375 7.8149 28.1575 7.3887 27.65C6.94974 27.1268 6.78276 26.4158 6.91839 25.6477C7.21443 23.9691 8.81641 22.6041 10.4895 22.6041C11.2332 22.6041 11.8778 22.8841 12.304 23.3916C12.7426 23.9148 12.9096 24.6257 12.774 25.3939ZM28.451 25.3939C28.1554 27.0725 26.5534 28.4375 24.8803 28.4375C24.1366 28.4375 23.492 28.1575 23.0658 27.65C22.6268 27.1268 22.4598 26.4158 22.5955 25.6477C22.8915 23.9691 24.4935 22.6041 26.1666 22.6041C26.9103 22.6041 27.5549 22.8841 27.9811 23.3916C28.4197 23.9148 28.5867 24.6257 28.451 25.3939ZM31.9547 19.8038L31.4982 24.139C31.4589 24.5109 31.1475 24.7916 30.7731 24.7916H29.9539C29.9364 23.9152 29.6443 23.1054 29.0982 22.4543C28.3898 21.6103 27.3489 21.1458 26.1666 21.1458C24.0243 21.1458 21.9713 22.7343 21.3136 24.7916H19.7754L21.1532 12.3958H25.3131C25.9347 12.3958 26.529 12.6616 26.9435 13.125L31.4096 18.1157C31.8202 18.5755 32.0189 19.1909 31.9547 19.8038ZM25.6966 14.0904C25.5584 13.9398 25.3634 13.8541 25.1589 13.8541H23.3359C22.9568 13.8541 22.641 14.1447 22.6093 14.5228L22.2447 18.8978C22.228 19.1012 22.2969 19.3017 22.4347 19.4523C22.5729 19.6021 22.7672 19.6875 22.9714 19.6875H29.1693C29.4584 19.6875 29.7205 19.5165 29.8368 19.2521C29.9531 18.9871 29.9021 18.679 29.707 18.4657L25.6966 14.0904ZM23.764 18.2291L24.0068 15.3125H24.838L27.5115 18.2291H23.764ZM15.3151 10.9375H10.2109C9.80844 10.9375 9.48177 10.6108 9.48177 10.2083C9.48177 9.80579 9.80844 9.47913 10.2109 9.47913H15.3151C15.7176 9.47913 16.0443 9.80579 16.0443 10.2083C16.0443 10.6108 15.7176 10.9375 15.3151 10.9375ZM5.83594 10.9375C5.43344 10.9375 5.10677 10.6108 5.10677 10.2083C5.10677 9.80579 5.43344 9.47913 5.83594 9.47913H7.29427C7.69677 9.47913 8.02344 9.80579 8.02344 10.2083C8.02344 10.6108 7.69677 10.9375 7.29427 10.9375H5.83594ZM13.8568 13.8541C14.2593 13.8541 14.5859 14.1808 14.5859 14.5833C14.5859 14.9858 14.2593 15.3125 13.8568 15.3125H12.3984C11.9959 15.3125 11.6693 14.9858 11.6693 14.5833C11.6693 14.1808 11.9959 13.8541 12.3984 13.8541H13.8568ZM4.3776 13.8541H9.48177C9.88427 13.8541 10.2109 14.1808 10.2109 14.5833C10.2109 14.9858 9.88427 15.3125 9.48177 15.3125H4.3776C3.9751 15.3125 3.64844 14.9858 3.64844 14.5833C3.64844 14.1808 3.9751 13.8541 4.3776 13.8541ZM2.1901 18.9583C2.1901 18.5558 2.51677 18.2291 2.91927 18.2291H12.3984C12.8009 18.2291 13.1276 18.5558 13.1276 18.9583C13.1276 19.3608 12.8009 19.6875 12.3984 19.6875H2.91927C2.51677 19.6875 2.1901 19.3608 2.1901 18.9583ZM20.7839 29.1666C20.7839 29.5691 20.4572 29.8958 20.0547 29.8958H16.7734C16.3709 29.8958 16.0443 29.5691 16.0443 29.1666C16.0443 28.7641 16.3709 28.4375 16.7734 28.4375H20.0547C20.4572 28.4375 20.7839 28.7641 20.7839 29.1666ZM5.10677 29.1666C5.10677 29.5691 4.7801 29.8958 4.3776 29.8958H2.55469C2.15219 29.8958 1.82552 29.5691 1.82552 29.1666C1.82552 28.7641 2.15219 28.4375 2.55469 28.4375H4.3776C4.7801 28.4375 5.10677 28.7641 5.10677 29.1666Z" fill="#2C2C2C"/>
</svg>
