<svg width="50" height="50" viewBox="0 0 50 50" fill="none" xmlns="http://www.w3.org/2000/svg">
<g clip-path="url(#clip0_739_1894)">
<path d="M31.8867 0.50759C28.7718 0.139009 25.6365 -0.0305016 22.5 9.01618e-05C11.285 9.01618e-05 2.5 4.39259 2.5 10.0001V23.3334C2.5 27.8193 8.1525 31.5976 16.4792 32.8709C14.1519 34.5509 11.6919 36.2823 9.09917 38.0651C8.6644 38.3635 8.39709 38.8506 8.37885 39.3776C8.3606 39.9046 8.59358 40.409 9.00667 40.7368L20.1267 49.6343C20.7163 50.1045 21.5473 50.1233 22.1575 49.6801C24.0192 48.3243 25.8367 46.9076 27.6067 45.4534C29.3289 44.0362 30.9956 42.582 32.6067 41.0909C32.615 41.0818 32.6267 41.0793 32.6342 41.0701L32.64 41.0601C34.2178 39.6018 35.73 38.1195 37.1767 36.6134C37.1942 36.5968 37.2175 36.5901 37.2333 36.5709C37.2492 36.5518 37.2467 36.5434 37.2558 36.5309C38.3175 35.4234 39.3525 34.3093 40.33 33.1884C43.1067 30.0034 46.5617 26.0409 47.22 21.1601C47.8917 16.1818 46.9642 8.80426 42.1417 4.39592C39.1292 1.63259 35.2683 0.94009 31.8867 0.50759ZM22.5 1.66676C32.4375 1.66676 40.8333 5.48342 40.8333 10.0001C40.8333 15.4009 30.0833 18.3334 22.5 18.3334C12.5625 18.3334 4.16667 14.5168 4.16667 10.0001C4.16667 5.48342 12.5625 1.66676 22.5 1.66676ZM4.16667 23.3334V14.0618C7.225 17.5893 14.1942 20.0001 22.5 20.0001C26.8812 20.071 31.2353 19.3001 35.3258 17.7293C30.2116 22.4467 24.8153 26.8487 19.1667 30.9109V26.6668C19.1667 26.2065 18.7936 25.8334 18.3333 25.8334C17.8731 25.8334 17.5 26.2065 17.5 26.6668V31.3334C16.0943 31.1498 14.7024 30.873 13.3333 30.5051V25.8334C13.3333 25.3732 12.9602 25.0001 12.5 25.0001C12.0398 25.0001 11.6667 25.3732 11.6667 25.8334V30.0001C10.514 29.6141 9.3984 29.1252 8.33333 28.5393V23.3334C8.33333 22.8732 7.96024 22.5001 7.5 22.5001C7.03976 22.5001 6.66667 22.8732 6.66667 23.3334V27.4426C5.08333 26.2076 4.16667 24.7959 4.16667 23.3334ZM21.1667 48.3334L10.0425 39.4393C11.3133 38.5659 12.6733 37.6209 14.085 36.6268C14.8179 37.0966 15.6968 37.2835 16.5575 37.1526C17.0964 37.0374 17.659 37.1554 18.1062 37.4775C18.5534 37.7996 18.8435 38.2957 18.905 38.8434C19.2402 40.7776 21.0576 42.0908 22.9992 41.8018C23.5388 41.6914 24.1 41.8123 24.5464 42.1351C24.9927 42.4579 25.2833 42.953 25.3475 43.5001C25.4405 43.942 25.5989 44.3675 25.8175 44.7626C24.3017 45.9851 22.75 47.1809 21.1667 48.3334ZM45.5758 20.9334C45.383 22.251 44.9854 23.5303 44.3975 24.7251L43.2125 23.0584C42.9456 22.6833 42.4251 22.5957 42.05 22.8626C41.6749 23.1295 41.5872 23.65 41.8542 24.0251L43.5133 26.3584C42.7102 27.6504 41.8146 28.8826 40.8333 30.0451L38.5142 27.3934C38.3188 27.1674 38.0173 27.0634 37.7241 27.1206C37.4309 27.1779 37.1908 27.3877 37.0947 27.6706C36.9987 27.9535 37.0614 28.2662 37.2592 28.4901L39.74 31.3334C39.5175 31.5909 39.2967 31.8451 39.0808 32.0918C38.2692 33.0234 37.4142 33.9501 36.5425 34.8726L33.0425 31.8726C32.8183 31.6655 32.4989 31.5975 32.2098 31.6954C31.9207 31.7932 31.7082 32.0413 31.656 32.342C31.6037 32.6427 31.72 32.9479 31.9592 33.1376L35.39 36.0818C34.2942 37.2026 33.1525 38.3109 31.9792 39.4068L28.0417 36.0334C27.8154 35.8399 27.5031 35.7818 27.2224 35.881C26.9416 35.9802 26.7351 36.2216 26.6807 36.5143C26.6262 36.807 26.7321 37.1066 26.9583 37.3001L30.75 40.5451C29.5833 41.6059 28.3692 42.6451 27.1383 43.6701C27.0683 43.4811 27.0102 43.288 26.9642 43.0918C26.6298 41.1604 24.8143 39.8496 22.8758 40.1401C22.3343 40.2499 21.7716 40.1279 21.3241 39.8038C20.8766 39.4797 20.5853 38.983 20.5208 38.4343C20.1911 36.5008 18.3707 35.1899 16.4325 35.4901C16.1833 35.5169 15.932 35.5183 15.6825 35.4943C25.1658 28.7443 36.4933 20.0276 40.7658 14.1376C41.8073 13.0382 42.4222 11.6033 42.5 10.0909C42.5433 7.47092 40.7033 5.39259 38.5092 3.93509C39.4247 4.37553 40.2729 4.94401 41.0283 5.62342C45.0933 9.34176 46.2417 15.9918 45.5758 20.9334Z" fill="#D4AF37"/>
<path d="M22.4735 15C25.8827 15 31.5727 14.0216 33.0385 10.9333C34.0335 8.83664 32.306 6.6833 30.3593 5.3683C28.5223 4.20448 26.4994 3.36399 24.3785 2.8833C23.7298 2.7188 23.0416 2.85034 22.4993 3.24247C22.1674 3.48157 21.9054 3.80492 21.7402 4.17914C15.9527 4.3683 11.666 6.63997 11.666 9.58331C11.666 13.5125 18.2293 15 22.4735 15ZM28.5927 12.3333L28.891 6.41164C29.0766 6.52275 29.2557 6.63636 29.4285 6.75247C32.5585 8.86247 32.4927 10.8708 28.5927 12.3333ZM23.2127 5.06914V5.0533C23.2269 4.86966 23.3215 4.70165 23.471 4.59414C23.6128 4.48857 23.7949 4.45301 23.966 4.49747C25.0917 4.77681 26.1941 5.14262 27.2635 5.59164L26.8985 12.8466C25.4952 13.1721 24.0591 13.3354 22.6185 13.3333L23.2127 5.06914ZM21.486 5.85747L20.9535 13.2741C16.361 12.9425 13.3327 11.1591 13.3327 9.58331C13.3327 7.93581 16.6368 6.09164 21.486 5.85747Z" fill="#D4AF37"/>
<path d="M24.9993 8.3335C24.5391 8.3335 24.166 8.70659 24.166 9.16683V10.0002C24.166 10.4604 24.5391 10.8335 24.9993 10.8335C25.4596 10.8335 25.8327 10.4604 25.8327 10.0002V9.16683C25.8327 8.70659 25.4596 8.3335 24.9993 8.3335Z" fill="#D4AF37"/>
<path d="M16.3544 40.1828C15.995 39.8951 15.4704 39.9533 15.1828 40.3128C14.8951 40.6722 14.9533 41.1968 15.3128 41.4844L19.4794 44.8178C19.8389 45.1054 20.3635 45.0472 20.6511 44.6878C20.9388 44.3283 20.8806 43.8038 20.5211 43.5161L16.3544 40.1828Z" fill="#D4AF37"/>
</g>
<defs>
<clipPath id="clip0_739_1894">
<rect width="50" height="50" fill="white"/>
</clipPath>
</defs>
</svg>
