<svg width="50" height="50" viewBox="0 0 50 50" fill="none" xmlns="http://www.w3.org/2000/svg">
<path d="M18.7897 33.3282C18.4751 34.5025 18.2648 35.7114 18.1649 36.9212C18.1469 37.1389 18.2208 37.3541 18.3688 37.5147C18.5168 37.6754 18.7251 37.7668 18.9436 37.7668H24.4501C24.8471 37.7668 25.181 37.469 25.2263 37.0746C25.3003 36.4292 25.4229 35.7844 25.5906 35.1582C26.8503 30.4567 30.5905 26.8507 35.2664 25.7318L35.2141 26.2406C35.1592 26.7746 35.4085 27.2817 35.8645 27.5639C36.3207 27.8467 36.8858 27.8439 37.3395 27.5567L43.7554 23.4945C44.1228 23.2618 44.3496 22.8953 44.3941 22.4625C44.4385 22.0299 44.2909 21.6251 43.9787 21.3227L38.5243 16.0395C38.139 15.6663 37.5862 15.5483 37.0817 15.7321C36.5775 15.916 36.2303 16.3618 36.1754 16.8954L36.0138 18.4671C32.1058 18.9133 28.4413 20.4883 25.3798 23.0442C22.1484 25.7418 19.8697 29.2979 18.7897 33.3282ZM37.7296 17.0551C37.7296 17.0554 37.7295 17.0556 37.7295 17.0559L37.7296 17.0551ZM36.7892 19.9607C37.1643 19.9302 37.4642 19.6364 37.5027 19.262L37.6933 17.4096L42.7338 22.292L36.8048 26.0459L36.9289 24.8401C36.9537 24.5988 36.8651 24.3598 36.689 24.193C36.5129 24.0262 36.2698 23.9506 36.0297 23.9886C33.2215 24.4328 30.6079 25.6854 28.4715 27.6108C26.3359 29.5355 24.8179 32.0055 24.0814 34.7538C23.9539 35.2298 23.8497 35.7154 23.7701 36.2043H19.8116C19.9188 35.3713 20.0821 34.5431 20.2992 33.7325C22.3349 26.1345 28.9617 20.6001 36.7892 19.9607ZM45.9161 42.0385L39.95 37.3413C39.5285 37.0092 38.9664 36.9485 38.4835 37.183C38.0008 37.4174 37.7008 37.8964 37.7008 38.433V39.5002H4.33398C3.90254 39.5002 3.55273 39.85 3.55273 40.2814V45.7747C3.55273 46.2062 3.90254 46.556 4.33398 46.556H37.7009V47.8275C37.7009 48.364 38.0007 48.8428 38.4839 49.0776C38.6787 49.1723 38.8864 49.2187 39.0927 49.2187C39.3973 49.2187 39.6986 49.1172 39.95 48.9193L45.9161 44.2221C46.2579 43.9529 46.4462 43.5651 46.4462 43.1302C46.4462 42.6952 46.2579 42.3075 45.9161 42.0385ZM39.2633 47.4712V45.7747C39.2633 45.3433 38.9135 44.9935 38.482 44.9935H5.11523V41.0627H38.4821C38.9136 41.0627 39.2634 40.7129 39.2634 40.2814V38.7893L44.7769 43.1303L39.2633 47.4712ZM20.302 9.52695H21.3692V22.6023C21.3692 22.9191 21.5606 23.2046 21.8537 23.325C21.9497 23.3644 22.0505 23.3836 22.1503 23.3836C22.3552 23.3836 22.5564 23.303 22.7062 23.1515C24.2696 21.5693 26.0549 20.2359 28.0124 19.1882C28.2665 19.0522 28.4251 18.7875 28.4251 18.4994V9.52695H29.6967C30.2333 9.52695 30.7122 9.22705 30.9466 8.74424C31.181 8.26143 31.1204 7.69951 30.7884 7.27793L26.0912 1.31182C25.8222 0.970019 25.4344 0.781738 24.9993 0.781738C24.5645 0.781738 24.1768 0.969922 23.9074 1.31172L19.2103 7.27793C18.8782 7.69961 18.8176 8.26162 19.052 8.74453C19.2866 9.22705 19.7655 9.52695 20.302 9.52695ZM24.9993 2.45078L29.3403 7.96436H27.6438C27.2124 7.96436 26.8626 8.31416 26.8626 8.74561V18.0366C25.4607 18.823 24.1448 19.7484 22.9317 20.8004V8.7457C22.9317 8.31426 22.5819 7.96445 22.1505 7.96445H20.6585L24.9993 2.45078ZM4.40478 26.3609L10.8205 30.4231C11.0493 30.5679 11.3064 30.6404 11.5637 30.6404C11.8163 30.6404 12.069 30.5705 12.2948 30.4306C12.7514 30.1481 13.0008 29.641 12.9458 29.107L12.8935 28.5984C14.3335 28.9437 15.6988 29.5311 16.9638 30.3509C17.1573 30.4765 17.3967 30.51 17.6172 30.4424C17.8379 30.3749 18.0174 30.2133 18.1076 30.0009C18.7975 28.3771 19.687 26.8351 20.7513 25.4175C20.8825 25.2427 20.9345 25.0209 20.8947 24.806C20.8549 24.5911 20.7269 24.4026 20.5417 24.2866C17.9963 22.6896 15.1064 21.6749 12.1462 21.3337L11.9845 19.7615C11.9296 19.228 11.5823 18.7823 11.0777 18.5981C10.5734 18.4145 10.0211 18.5324 9.63535 18.9057L4.18096 24.1889C3.86885 24.4914 3.72129 24.8962 3.76563 25.329C3.81035 25.7616 4.03721 26.1281 4.40478 26.3609ZM10.4668 20.2759L10.6574 22.1284C10.696 22.5028 10.9959 22.7965 11.371 22.8271C14.0326 23.0446 16.6511 23.8555 18.9942 25.1822C18.2482 26.256 17.5931 27.3899 17.0374 28.5689C15.5097 27.7046 13.863 27.1291 12.1305 26.855C11.8905 26.8167 11.6474 26.8926 11.4712 27.0594C11.295 27.2262 11.2064 27.4652 11.2312 27.7065L11.3554 28.9123L5.42637 25.1584L10.4668 20.2759Z" fill="#D4AF37"/>
</svg>
