<svg width="50" height="50" viewBox="0 0 50 50" fill="none" xmlns="http://www.w3.org/2000/svg">
<path d="M5.22852 9.9375V25.8333C5.22852 41.4271 23.8223 49.0833 24.6139 49.3958C24.7389 49.4479 24.8743 49.4688 24.9993 49.4688C25.1243 49.4688 25.2598 49.4479 25.3848 49.3958C26.1764 49.0729 44.7702 41.4167 44.7702 25.8333V9.9375C44.7702 9.39583 44.3535 8.94792 43.8223 8.89583C43.7285 8.88542 34.666 8 25.6556 0.75C25.2702 0.447917 24.7285 0.447917 24.3535 0.75C15.3639 7.97917 6.27018 8.88542 6.17643 8.89583C5.63477 8.94792 5.22852 9.39583 5.22852 9.9375ZM7.31185 10.8438C9.9056 10.4375 17.3535 8.80208 24.9993 2.88542C32.6452 8.80208 40.0931 10.4375 42.6868 10.8438V25.8333C42.6868 38.8333 27.6348 46.125 24.9993 47.3021C22.3639 46.125 7.31185 38.8437 7.31185 25.8333V10.8438Z" fill="#D4AF37"/>
<path d="M24.5111 42.4168C24.6673 42.5002 24.834 42.5418 25.0007 42.5418C25.1673 42.5418 25.334 42.5002 25.4902 42.4168C30.3548 39.8127 38.5215 34.1877 38.5215 25.8335V14.9793C38.5215 14.5106 38.2194 14.1043 37.7715 13.9793C34.8236 13.1252 30.3132 11.4689 25.5736 8.396C25.2298 8.17725 24.7819 8.17725 24.4382 8.396C19.6882 11.4689 15.1777 13.1252 12.2402 13.9793C11.7923 14.1043 11.4902 14.521 11.4902 14.9793V25.8335C11.4798 34.1877 19.6465 39.8127 24.5111 42.4168ZM13.5632 15.7502C16.5007 14.8439 20.6361 13.2397 25.0007 10.5002C29.3652 13.2397 33.5007 14.8439 36.4382 15.7502V25.8335C36.4382 33.0522 28.8027 38.1981 25.0007 40.3127C21.1986 38.1981 13.5632 33.0522 13.5632 25.8335V15.7502Z" fill="#D4AF37"/>
<path d="M22.6667 29.9272C22.9479 29.9272 23.2083 29.8127 23.4062 29.6252L32.7292 20.3022C33.1354 19.896 33.1354 19.2397 32.7292 18.8335C32.3229 18.4272 31.6667 18.4272 31.2604 18.8335L22.6771 27.4168L18.75 23.4897C18.3437 23.0835 17.6875 23.0835 17.2812 23.4897C16.875 23.896 16.875 24.5522 17.2812 24.9585L21.9479 29.6252C22.125 29.8127 22.3958 29.9272 22.6667 29.9272Z" fill="#D4AF37"/>
</svg>
