<svg width="94" height="50" viewBox="0 0 94 50" fill="none" xmlns="http://www.w3.org/2000/svg">
<g clip-path="url(#clip0_930_2865)">
<path d="M17.4453 0.0547812L22.4547 0L19.9898 3.82707L17.4453 0.0547812Z" fill="#B8962E"/>
<path d="M10.1641 0.133883L15.1734 0.0791016L12.7086 3.90618L10.1641 0.133883Z" fill="#B8962E"/>
<path d="M17.759 11.5938C17.3189 11.5831 16.8727 11.5801 16.4281 11.5846C15.9835 11.5892 15.5374 11.6014 15.0973 11.6227L13.5352 5.43546L16.317 1.11536L19.1904 5.37459L17.759 11.5938Z" fill="white"/>
<path d="M21.5545 11.9347C20.9236 11.816 20.1531 11.7247 19.2969 11.6638L20.7163 5.51309L23.6003 1.03625L26.3686 5.14028L21.5545 11.9347Z" fill="white"/>
<path d="M6.35547 5.35795L9.03666 1.19458L12.0137 5.60903L13.5624 11.7263C12.7077 11.8054 11.9401 11.9134 11.3108 12.0458L6.35547 5.35795Z" fill="white"/>
<path d="M22.885 15.8849C20.8317 15.121 18.6747 14.7467 16.4652 14.7711C14.2572 14.7954 12.1077 15.2169 10.0709 16.0249L10.0469 13.82C10.2992 13.5126 12.4322 12.9192 16.4442 12.8765C20.4577 12.8324 22.6026 13.3787 22.861 13.6815L22.885 15.8849Z" fill="white"/>
<path d="M16.8743 49.9985C12.5243 50.0456 8.38462 48.3991 5.21977 45.3649C2.04891 42.3215 0.199864 38.2114 0.0151104 33.7893C-0.373925 24.4659 6.79693 16.5591 16.0016 16.165C16.1803 16.1574 16.3591 16.1528 16.5378 16.1513C19.2761 16.1209 21.9423 16.7737 24.326 18.0138C22.5686 17.3565 20.697 17.0171 18.815 17.0369C17.2889 17.0537 15.7703 17.3002 14.3013 17.7719C6.15555 20.3831 1.62683 29.2196 4.20287 37.4718C6.27422 44.1049 12.275 48.5102 19.1349 48.4357C20.661 48.4189 22.1796 48.1724 23.6486 47.7022C24.6535 47.3796 25.6283 46.9535 26.5431 46.4362C27.0448 46.1638 27.5314 45.864 28.0001 45.5353C25.1326 48.1952 21.388 49.8158 17.412 49.9863C17.2318 49.9924 17.053 49.9969 16.8743 49.9985Z" fill="#B8962E"/>
</g>
<path d="M21.428 43.888V43.368C22.1387 43.3333 22.7453 43.1427 23.248 42.796C23.768 42.4493 24.158 41.86 24.418 41.028C24.678 40.196 24.808 39.0607 24.808 37.622V23.348C24.808 22.7067 24.756 22.2387 24.652 21.944C24.5653 21.632 24.3747 21.424 24.08 21.32C23.7853 21.1987 23.3607 21.1293 22.806 21.112V20.592C23.2047 20.6093 23.7333 20.6267 24.392 20.644C25.068 20.6613 25.77 20.67 26.498 20.67C27.226 20.67 27.9367 20.6613 28.63 20.644C29.3407 20.6267 29.9213 20.6093 30.372 20.592V21.112C29.8 21.1293 29.3667 21.1987 29.072 21.32C28.7947 21.424 28.604 21.632 28.5 21.944C28.4133 22.2387 28.37 22.7067 28.37 23.348V32.864C28.37 33.5747 28.3613 34.346 28.344 35.178C28.344 36.01 28.3093 36.816 28.24 37.596C28.188 38.376 28.084 39.0607 27.928 39.65C27.5987 40.8633 26.888 41.8687 25.796 42.666C24.704 43.4807 23.248 43.888 21.428 43.888ZM37.8862 25.194C39.4115 25.194 40.6075 25.6533 41.4742 26.572C42.3409 27.4907 42.7742 28.9553 42.7742 30.966H34.0122L33.9862 30.472H39.7582C39.7929 29.6227 39.7409 28.8427 39.6022 28.132C39.4635 27.404 39.2382 26.8233 38.9262 26.39C38.6315 25.9567 38.2415 25.74 37.7562 25.74C37.0975 25.74 36.5255 26.13 36.0402 26.91C35.5549 27.6727 35.2515 28.9293 35.1302 30.68L35.2342 30.836C35.1995 31.0613 35.1735 31.304 35.1562 31.564C35.1562 31.824 35.1562 32.084 35.1562 32.344C35.1562 33.54 35.3295 34.528 35.6762 35.308C36.0229 36.088 36.4735 36.66 37.0282 37.024C37.5829 37.388 38.1549 37.57 38.7442 37.57C39.1429 37.57 39.5502 37.5093 39.9662 37.388C40.3822 37.2667 40.7895 37.0413 41.1882 36.712C41.5869 36.3827 41.9509 35.9147 42.2802 35.308L42.7742 35.516C42.5835 36.1227 42.2629 36.7293 41.8122 37.336C41.3789 37.9253 40.8155 38.4107 40.1222 38.792C39.4289 39.1733 38.6142 39.364 37.6782 39.364C36.4995 39.364 35.4595 39.104 34.5582 38.584C33.6569 38.064 32.9549 37.2927 32.4522 36.27C31.9495 35.23 31.6982 33.9647 31.6982 32.474C31.6982 30.8967 31.9582 29.5707 32.4782 28.496C33.0155 27.4213 33.7522 26.6067 34.6882 26.052C35.6242 25.48 36.6902 25.194 37.8862 25.194ZM50.082 25.558V26.104C49.666 26.104 49.3107 26.1387 49.016 26.208C48.7214 26.26 48.522 26.3987 48.418 26.624C48.3314 26.8493 48.3747 27.248 48.548 27.82L51.096 35.568L50.81 35.776L54.112 25.506L54.658 25.766L50.42 39.078C50.212 39.0607 49.9954 39.052 49.77 39.052C49.562 39.052 49.354 39.0607 49.146 39.078L44.986 27.56C44.7087 26.8667 44.4314 26.4507 44.154 26.312C43.894 26.1733 43.6687 26.104 43.478 26.104V25.558C43.9634 25.61 44.466 25.6533 44.986 25.688C45.506 25.7053 46.078 25.714 46.702 25.714C47.2394 25.714 47.8027 25.6967 48.392 25.662C48.9987 25.6273 49.562 25.5927 50.082 25.558ZM63.888 25.558V26.104C63.5587 26.1733 63.238 26.3553 62.926 26.65C62.6314 26.9273 62.3627 27.4473 62.12 28.21L58.558 39.078C58.35 39.0607 58.142 39.052 57.934 39.052C57.726 39.052 57.5094 39.0607 57.284 39.078L53.462 28.86L54.138 25.506C54.3807 25.5233 54.6234 25.532 54.866 25.532C55.1087 25.532 55.3514 25.5233 55.594 25.506L59.312 36.088L59.052 35.958L61.08 29.666C61.34 28.834 61.4354 28.1667 61.366 27.664C61.314 27.1613 61.1147 26.7887 60.768 26.546C60.4387 26.286 59.9794 26.1387 59.39 26.104V25.558C59.6674 25.5753 59.9534 25.5927 60.248 25.61C60.5427 25.6273 60.8287 25.6447 61.106 25.662C61.3834 25.662 61.6434 25.662 61.886 25.662C62.25 25.662 62.614 25.6533 62.978 25.636C63.342 25.6187 63.6454 25.5927 63.888 25.558ZM68.7476 18.642V36.582C68.7476 37.31 68.8776 37.804 69.1376 38.064C69.4149 38.324 69.8743 38.454 70.5156 38.454V39C70.2036 38.9827 69.7269 38.9653 69.0856 38.948C68.4616 38.9133 67.8203 38.896 67.1616 38.896C66.5203 38.896 65.8616 38.9133 65.1856 38.948C64.5269 38.9653 64.0329 38.9827 63.7036 39V38.454C64.3449 38.454 64.7956 38.324 65.0556 38.064C65.3329 37.804 65.4716 37.31 65.4716 36.582V21.762C65.4716 20.982 65.3503 20.41 65.1076 20.046C64.8649 19.6647 64.3969 19.474 63.7036 19.474V18.928C64.2583 18.98 64.7956 19.006 65.3156 19.006C65.9743 19.006 66.5896 18.98 67.1616 18.928C67.7336 18.8587 68.2623 18.7633 68.7476 18.642ZM78.4387 18.668C79.0107 18.668 79.5047 18.746 79.9207 18.902C80.354 19.0407 80.7267 19.2313 81.0387 19.474C81.2987 19.682 81.5067 19.942 81.6627 20.254C81.836 20.566 81.9227 20.9127 81.9227 21.294C81.9227 21.762 81.758 22.1607 81.4287 22.49C81.1167 22.8193 80.718 22.984 80.2327 22.984C79.7127 22.984 79.2794 22.8367 78.9327 22.542C78.6034 22.23 78.4387 21.8053 78.4387 21.268C78.4387 20.852 78.5514 20.4967 78.7767 20.202C79.0194 19.89 79.3574 19.6733 79.7907 19.552C79.7387 19.4307 79.626 19.3267 79.4527 19.24C79.2794 19.1533 79.0454 19.11 78.7507 19.11C78.404 19.11 78.1007 19.1793 77.8407 19.318C77.598 19.4567 77.3987 19.6473 77.2427 19.89C77.0694 20.1847 76.948 20.618 76.8787 21.19C76.8094 21.762 76.7747 22.6287 76.7747 23.79V25.584H79.5567V26.104H76.7747V36.322C76.7747 37.1713 77 37.7433 77.4507 38.038C77.9187 38.3153 78.5427 38.454 79.3227 38.454V39C78.8894 38.9827 78.2827 38.9653 77.5027 38.948C76.7227 38.9133 75.8907 38.896 75.0067 38.896C74.3827 38.896 73.7587 38.9133 73.1347 38.948C72.5107 38.9653 72.0427 38.9827 71.7307 39V38.454C72.372 38.454 72.8227 38.324 73.0827 38.064C73.36 37.804 73.4987 37.31 73.4987 36.582V26.104H71.6267V25.584H73.4987C73.4987 24.5613 73.5507 23.712 73.6547 23.036C73.7587 22.3427 73.9147 21.7533 74.1227 21.268C74.348 20.7827 74.6514 20.3493 75.0327 19.968C75.3967 19.5867 75.8734 19.2747 76.4627 19.032C77.0694 18.7893 77.728 18.668 78.4387 18.668ZM93.1736 25.558V26.104C92.8442 26.1733 92.5322 26.3553 92.2376 26.65C91.9602 26.9447 91.6916 27.4647 91.4316 28.21L87.5836 38.766L86.7776 39.988L81.4216 27.56C81.0922 26.9013 80.7802 26.494 80.4856 26.338C80.1909 26.182 79.9482 26.104 79.7576 26.104V25.558C80.2602 25.61 80.7802 25.6533 81.3176 25.688C81.8722 25.7053 82.4269 25.714 82.9816 25.714C83.6229 25.714 84.2382 25.6967 84.8276 25.662C85.4342 25.6273 85.9976 25.5927 86.5176 25.558V26.104C86.1189 26.104 85.7636 26.13 85.4516 26.182C85.1396 26.234 84.9316 26.3813 84.8276 26.624C84.7409 26.8493 84.8102 27.248 85.0356 27.82L88.2856 35.75L88.0776 35.854L90.3656 29.666C90.6602 28.8513 90.7816 28.1927 90.7296 27.69C90.6776 27.1873 90.4869 26.806 90.1576 26.546C89.8282 26.286 89.3776 26.1387 88.8056 26.104V25.558C89.0829 25.5753 89.3602 25.5927 89.6376 25.61C89.9149 25.6273 90.1836 25.6447 90.4436 25.662C90.7036 25.662 90.9549 25.662 91.1976 25.662C91.5616 25.662 91.9169 25.6533 92.2636 25.636C92.6276 25.6187 92.9309 25.5927 93.1736 25.558ZM87.5836 38.766L86.5956 41.392C86.4396 41.8253 86.2662 42.1893 86.0756 42.484C85.9022 42.796 85.7029 43.0473 85.4776 43.238C85.2176 43.4633 84.8969 43.628 84.5156 43.732C84.1516 43.836 83.7442 43.888 83.2936 43.888C82.8949 43.888 82.5049 43.8187 82.1236 43.68C81.7596 43.5413 81.4476 43.3333 81.1876 43.056C80.9449 42.7787 80.8236 42.4147 80.8236 41.964C80.8236 41.4787 80.9882 41.0887 81.3176 40.794C81.6469 40.4993 82.0976 40.352 82.6696 40.352C83.1722 40.352 83.5796 40.4733 83.8916 40.716C84.2209 40.976 84.3856 41.3573 84.3856 41.86C84.3856 42.1893 84.2902 42.484 84.0996 42.744C83.9089 43.004 83.6402 43.2033 83.2936 43.342C83.3802 43.3593 83.4582 43.368 83.5276 43.368C83.6142 43.3853 83.6836 43.394 83.7356 43.394C84.2382 43.394 84.6889 43.2293 85.0876 42.9C85.4862 42.5707 85.8069 42.0507 86.0496 41.34L86.9856 38.766H87.5836Z" fill="white"/>
<defs>
<clipPath id="clip0_930_2865">
<rect width="28" height="50" fill="white"/>
</clipPath>
</defs>
</svg>
