<svg width="68" height="50" viewBox="0 0 68 50" fill="none" xmlns="http://www.w3.org/2000/svg">
<g clip-path="url(#clip0_3400_249)">
<path d="M35.7662 42.7927H31.5315V44.6187H34.8601V46.2952H31.5315V48.2388H35.7662V49.9999H29.415V41.0967H35.7668V42.7927H35.7662Z" fill="#2C2C2C"/>
<path d="M48.3054 49.9999L46.1113 42.7406V49.9999H44.3652V41.0967H47.6087L49.1693 46.4251L50.8112 41.0967H54.0652V49.9999H51.9677V42.7406L49.7307 49.9999H48.3054Z" fill="#2C2C2C"/>
<path d="M67.2169 41.0967L70.0007 49.9999H67.7618L67.2139 48.1671H64.3389L63.7818 49.9999H61.9556L64.8054 41.0967H67.2169ZM64.8385 46.5232H66.7223L65.7886 43.3989L64.8385 46.5232Z" fill="#2C2C2C"/>
<path d="M45.4092 23.8023L45.4226 23.7937L30.3658 0H15.3078L0 31.0799L11.4135 50H21.5359L9.72931 30.6723L20.6218 8.55624H25.664L43.6056 37.3124H53.9483L45.4092 23.8023Z" fill="#2C2C2C"/>
<path d="M23.7143 20.6099L19.2935 29.8471L23.781 37.3123H34.1397L23.7143 20.6099Z" fill="#2C2C2C"/>
</g>
<defs>
<clipPath id="clip0_3400_249">
<rect width="70" height="50" fill="white"/>
</clipPath>
</defs>
</svg>
