<svg width="71" height="50" viewBox="0 0 71 50" fill="none" xmlns="http://www.w3.org/2000/svg">
<g clip-path="url(#clip0_3400_289)">
<path d="M28.4097 0H16.9702V27.6596H28.4076C36.8702 27.6596 42.0813 21.2551 42.0813 13.6665V13.5891C42.0813 6.00258 36.8724 0 28.4097 0ZM30.0731 19.1618C27.0726 19.1618 24.6388 16.7268 24.6388 13.7202C24.6388 10.7157 27.0705 8.27853 30.0731 8.27853C33.0735 8.27853 35.5052 10.7157 35.5052 13.7202C35.5052 16.7247 33.0735 19.1618 30.0731 19.1618Z" fill="#2C2C2C"/>
<path d="M54.1154 8.27832C51.115 8.27832 48.6812 10.7155 48.6812 13.72C48.6812 16.7266 51.115 19.1616 54.1154 19.1616C57.118 19.1616 59.5497 16.7266 59.5497 13.72C59.5497 10.7155 57.1159 8.27832 54.1154 8.27832Z" fill="#2C2C2C"/>
<path d="M0 38.0615H4.57151C8.25447 38.0615 10.7999 40.5932 10.7999 43.8965V43.9287C10.7999 47.2319 8.25447 49.798 4.57151 49.798H0V38.0615ZM4.57151 47.4662C6.68127 47.4662 8.10423 46.0413 8.10423 43.9631V43.9287C8.10423 41.8505 6.68127 40.3912 4.57151 40.3912H2.57764V47.4662H4.57151Z" fill="#2C2C2C"/>
<path d="M20.9429 43.963V43.9286C20.9429 40.5931 23.572 37.8594 27.1884 37.8594C30.8049 37.8594 33.3997 40.5587 33.3997 43.8963V43.9286C33.3997 47.2662 30.7705 49.9999 27.1541 49.9999C23.5377 49.9999 20.9429 47.3006 20.9429 43.963ZM30.704 43.963V43.9286C30.704 41.917 29.2317 40.2406 27.1541 40.2406C25.0765 40.2406 23.6364 41.8847 23.6364 43.8963V43.9286C23.6364 45.9402 25.1109 47.6187 27.1863 47.6187C29.266 47.6187 30.704 45.9767 30.704 43.963Z" fill="#2C2C2C"/>
<path d="M46.2902 40.4428H42.7231V38.0615H52.4349V40.4428H48.8679V49.798H46.2881V40.4428H46.2902Z" fill="#2C2C2C"/>
<path d="M61.7241 48.087L63.248 46.2602C64.3018 47.1328 65.4071 47.6851 66.7485 47.6851C67.8044 47.6851 68.4397 47.266 68.4397 46.5783V46.5439C68.4397 45.8905 68.0384 45.5553 66.0789 45.0524C63.718 44.4485 62.1941 43.7951 62.1941 41.4654V41.4311C62.1941 39.3012 63.9026 37.8936 66.2978 37.8936C68.0062 37.8936 69.4613 38.4308 70.6525 39.3851L69.3133 41.33C68.2745 40.6079 67.255 40.1738 66.2656 40.1738C65.2783 40.1738 64.7589 40.6273 64.7589 41.1968V41.229C64.7589 42.0006 65.2611 42.252 67.2872 42.7721C69.6652 43.3932 71.0045 44.2486 71.0045 46.2924V46.3268C71.0045 48.6565 69.2295 49.9653 66.7013 49.9653C64.922 49.9653 63.1299 49.3464 61.7241 48.087Z" fill="#2C2C2C"/>
</g>
<defs>
<clipPath id="clip0_3400_289">
<rect width="71" height="50" fill="white"/>
</clipPath>
</defs>
</svg>
