<svg width="144" height="50" viewBox="0 0 144 50" fill="none" xmlns="http://www.w3.org/2000/svg">
<g clip-path="url(#clip0_3400_189)">
<path d="M26.9818 30.9365V32.692C26.9818 32.7233 28.0173 32.7954 28.8915 32.9109C29.7657 33.0263 30.387 33.1995 30.8976 33.4303C31.4539 33.6636 31.9933 34.0291 32.1739 34.5318C32.3545 35.0344 32.617 35.6116 32.617 36.2585V38.0645C32.617 38.6369 32.4003 39.3319 32.3955 40.152C32.3859 40.9721 32.2149 41.7825 32.092 42.5881C31.6273 43.0523 30.782 43.49 29.6597 43.9084C28.5375 44.3245 27.266 44.5337 25.9005 44.5337C24.0751 44.5337 22.423 44.1393 20.9853 43.3505C19.5452 42.5617 18.3363 41.4795 17.3778 40.1039C16.4169 38.7596 15.68 37.1627 15.1767 35.3158C14.7962 33.9137 14.5698 32.4323 14.4807 30.8908L25.5272 14.1936C26.9023 14.2321 28.1064 14.5087 29.1155 15.045C30.2088 15.6245 31.1312 16.4013 31.8922 17.3753C32.6508 18.3469 33.2697 19.4243 33.7513 20.6532C34.233 21.8797 34.6351 23.4332 34.9602 24.3711H36.8627L36.6532 13.1163H34.7989L33.8476 14.5953C32.7952 13.9628 31.5815 13.3736 30.204 12.9239C29.207 12.5992 28.0727 12.3731 26.8228 12.2914L34.1222 1.22649L32.2775 0L0 48.7903L1.84229 50L10.3265 37.1723C11.167 39.065 12.2555 40.6979 13.6089 42.0518C15.0635 43.5044 16.7637 44.6251 18.7143 45.4115C20.6626 46.2003 22.6903 46.5947 24.7927 46.5947C26.7602 46.5947 28.7615 46.347 30.8036 45.8516C32.8458 45.3562 34.8952 44.6491 36.9543 43.7184C36.9254 43.3 36.6653 42.7685 36.6436 42.1216C36.6195 41.4723 36.3763 40.2193 36.3763 38.3652V35.816C36.3763 35.2436 36.7062 34.7434 36.8965 34.3201C37.0891 33.8945 37.5322 33.5674 37.997 33.3365C38.3872 33.149 38.9194 33.0095 39.5479 32.9085C40.1741 32.8075 41.0723 32.7353 41.0723 32.6896V30.9341H26.9818V30.9365Z" fill="#2C2C2C"/>
<path d="M70.5296 30.4434C70.3827 30.4627 70.1852 30.4915 69.9371 30.5324C69.6891 30.5709 69.4892 30.6286 69.3375 30.7008C69.1545 30.7922 69.0244 30.922 68.9449 31.0904C68.8703 31.2563 68.8318 31.4559 68.8318 31.6796V32.6872C68.8318 33.4207 68.8342 33.9137 68.8438 34.171C68.8534 34.4283 68.8631 34.6376 68.8775 34.8035C68.0635 35.169 67.2544 35.4504 66.4476 35.6452C65.6409 35.8424 64.8485 35.9386 64.0731 35.9386C63.2398 35.9386 62.4403 35.7823 61.6697 35.4721C60.899 35.1618 60.2272 34.7169 59.6516 34.1446C59.0688 33.565 58.6088 32.8579 58.2669 32.0283C57.9225 31.1962 57.7539 30.2679 57.7539 29.241C57.7539 28.2502 57.9177 27.3315 58.2452 26.485C58.5727 25.6385 59.0351 24.905 59.6347 24.2821C60.2151 23.6713 60.9087 23.1951 61.7106 22.856C62.515 22.5169 63.3771 22.3462 64.2922 22.3462C65.0268 22.3462 65.6649 22.4352 66.2092 22.6107C66.751 22.7887 67.2327 23.0003 67.6493 23.2528L68.025 22.63H68.7595L68.8414 27.1728H68.09C67.9624 26.6726 67.801 26.1796 67.6108 25.6938C67.4205 25.208 67.1773 24.7727 66.8763 24.3879C66.5752 24.0032 66.2092 23.6977 65.7805 23.4693C65.3495 23.2408 64.8317 23.1254 64.232 23.1254C63.577 23.1254 62.9942 23.26 62.4788 23.5246C61.9659 23.7891 61.518 24.1859 61.1375 24.7126C60.7642 25.22 60.4776 25.8525 60.2753 26.6101C60.073 27.3676 59.9719 28.2141 59.9719 29.1496C59.9719 29.9745 60.0706 30.7513 60.2681 31.4824C60.468 32.2134 60.7594 32.8435 61.1375 33.375C61.5156 33.9185 61.99 34.3466 62.5607 34.6592C63.1291 34.9694 63.7745 35.1258 64.4969 35.1258C65.0364 35.1258 65.5277 35.044 65.9708 34.8781C66.4139 34.7121 66.7294 34.539 66.9124 34.3562C66.9606 34.0388 66.9871 33.7189 66.9895 33.3942C66.9919 33.0696 66.9943 32.7954 66.9943 32.5694V31.8551C66.9943 31.5978 66.9606 31.3717 66.8883 31.1745C66.8185 30.9749 66.674 30.8306 66.4524 30.7392C66.2501 30.6479 65.978 30.5805 65.6312 30.5348C65.2868 30.4891 65.0147 30.4603 64.8196 30.4458V29.7773H70.5247V30.4434H70.5296Z" fill="#2C2C2C"/>
<path d="M84.9884 33.5026C84.6079 34.2216 84.0998 34.7988 83.4664 35.2245C82.8307 35.6525 82.0986 35.8666 81.275 35.8666C80.5477 35.8666 79.9095 35.7391 79.3604 35.4818C78.8137 35.2245 78.3634 34.8782 78.0094 34.4381C77.653 33.998 77.3905 33.4857 77.2147 32.8989C77.0413 32.3122 76.9546 31.6941 76.9546 31.04C76.9546 30.4532 77.0485 29.8784 77.2339 29.3157C77.4218 28.7481 77.6939 28.2431 78.0552 27.7886C78.4043 27.3557 78.8378 27.007 79.3532 26.74C79.871 26.4731 80.4489 26.3408 81.0919 26.3408C81.7542 26.3408 82.3177 26.4442 82.7897 26.6511C83.2593 26.8579 83.6422 27.1416 83.936 27.5024C84.2178 27.8439 84.4273 28.2479 84.5646 28.712C84.7019 29.1762 84.7717 29.6788 84.7717 30.2223V30.8259H78.7824C78.7824 31.4199 78.8402 31.9586 78.951 32.442C79.0642 32.9254 79.2424 33.3511 79.4881 33.719C79.7265 34.0725 80.0395 34.3539 80.4224 34.5583C80.8078 34.7627 81.2653 34.8661 81.7975 34.8661C82.3394 34.8661 82.8114 34.7387 83.2039 34.4862C83.5989 34.2288 83.9794 33.7719 84.3479 33.1082L84.9884 33.5026ZM82.9631 30.0588C82.9631 29.7173 82.9342 29.3541 82.874 28.9646C82.8162 28.575 82.7223 28.2503 82.5947 27.9882C82.4526 27.7068 82.2599 27.4783 82.0167 27.3028C81.7711 27.1248 81.458 27.0358 81.0727 27.0358C80.4297 27.0358 79.8974 27.3028 79.4712 27.8343C79.0473 28.3681 78.8162 29.1088 78.78 30.0588H82.9631Z" fill="#2C2C2C"/>
<path d="M100.493 31.0207C100.493 31.6555 100.392 32.2808 100.189 32.8941C99.9847 33.5073 99.6982 34.0268 99.3249 34.4548C98.9035 34.9454 98.4122 35.3062 97.8559 35.5442C97.2996 35.7823 96.6758 35.9002 95.9823 35.9002C95.4091 35.9002 94.86 35.792 94.3375 35.5755C93.8197 35.3567 93.3573 35.0416 92.9503 34.6256C92.553 34.2168 92.2375 33.7165 91.9991 33.1297C91.7655 32.5405 91.6475 31.8792 91.6475 31.1457C91.6475 29.734 92.0593 28.5821 92.8829 27.6827C93.7065 26.7857 94.7854 26.3359 96.1195 26.3359C97.3863 26.3359 98.4338 26.7616 99.2575 27.6153C100.081 28.4691 100.493 29.6042 100.493 31.0207ZM98.5952 31.0375C98.5952 30.5806 98.5494 30.0972 98.4579 29.5873C98.3664 29.0751 98.2267 28.6446 98.0437 28.2911C97.8486 27.9111 97.591 27.6105 97.2707 27.3797C96.9528 27.1512 96.5651 27.0358 96.1051 27.0358C95.6331 27.0358 95.2309 27.1512 94.8986 27.3845C94.5638 27.6177 94.2941 27.9352 94.0846 28.3368C93.8871 28.7096 93.7498 29.1328 93.6728 29.609C93.5909 30.0852 93.5548 30.5469 93.5548 30.9918C93.5548 31.5786 93.6029 32.1197 93.6945 32.6175C93.7908 33.1129 93.9425 33.5602 94.1496 33.9498C94.3591 34.3394 94.6216 34.6472 94.9371 34.8709C95.2526 35.0921 95.6427 35.2028 96.1075 35.2028C96.8733 35.2028 97.4802 34.8324 97.9281 34.0941C98.3712 33.3582 98.5952 32.3385 98.5952 31.0375Z" fill="#2C2C2C"/>
<path d="M114.357 27.7598C114.357 28.07 114.28 28.349 114.128 28.5895C113.974 28.83 113.738 28.9502 113.422 28.9502C113.078 28.9502 112.818 28.8612 112.637 28.6857C112.457 28.5077 112.368 28.3129 112.368 28.0989C112.368 27.9642 112.377 27.8416 112.399 27.7333C112.421 27.6227 112.44 27.5145 112.459 27.4039C112.17 27.4039 111.835 27.5193 111.45 27.7526C111.065 27.9859 110.737 28.3153 110.468 28.741V33.9981C110.468 34.2121 110.508 34.3877 110.59 34.5199C110.672 34.6546 110.802 34.7532 110.98 34.823C111.132 34.8831 111.332 34.9288 111.571 34.96C111.814 34.9913 112.023 35.0105 112.199 35.025V35.6286H107.431V35.025C107.57 35.0129 107.717 35.0009 107.867 34.9889C108.018 34.9769 108.146 34.9528 108.257 34.9167C108.428 34.8614 108.555 34.7676 108.637 34.6282C108.719 34.4911 108.763 34.3131 108.763 34.0943V28.5221C108.763 28.3322 108.719 28.1494 108.628 27.9642C108.539 27.7814 108.416 27.6347 108.257 27.5241C108.139 27.452 108.002 27.3967 107.845 27.3654C107.686 27.3317 107.515 27.3077 107.332 27.2957V26.692L110.34 26.49L110.468 26.6175V27.8897H110.513C110.891 27.3943 111.313 27.0191 111.778 26.7642C112.242 26.5069 112.669 26.3794 113.054 26.3794C113.439 26.3794 113.752 26.5044 113.993 26.7546C114.236 27.0023 114.357 27.3365 114.357 27.7598Z" fill="#2C2C2C"/>
<path d="M128.512 34.693C128.756 34.9262 128.948 35.1884 129.09 35.4818C129.23 35.7752 129.302 36.1383 129.302 36.5712C129.302 37.0041 129.206 37.4129 129.018 37.7953C128.828 38.1752 128.541 38.5071 128.156 38.7885C127.744 39.0771 127.258 39.2983 126.689 39.457C126.121 39.6158 125.416 39.6951 124.58 39.6951C123.21 39.6951 122.186 39.4955 121.507 39.0963C120.828 38.6947 120.488 38.1103 120.488 37.3407C120.488 36.7179 120.732 36.2273 121.223 35.8665C121.709 35.5058 122.335 35.311 123.094 35.2797V35.1523C122.911 35.097 122.721 35.0296 122.526 34.9479C122.328 34.8661 122.16 34.7675 122.02 34.6569C121.861 34.5294 121.733 34.3779 121.635 34.2048C121.536 34.0316 121.488 33.8152 121.488 33.5578C121.488 33.2332 121.601 32.9374 121.83 32.6656C122.058 32.3939 122.405 32.1606 122.872 31.9634V31.8263C122.285 31.5522 121.83 31.1987 121.507 30.7682C121.182 30.3377 121.02 29.8375 121.02 29.2699C121.02 28.4138 121.341 27.714 121.979 27.1633C122.62 26.6125 123.436 26.3384 124.433 26.3384C124.707 26.3384 124.982 26.3648 125.252 26.4201C125.524 26.4755 125.801 26.5452 126.083 26.6318H129.237V27.512H127.108V27.5673C127.335 27.8294 127.503 28.1204 127.612 28.4378C127.723 28.7553 127.778 29.0655 127.778 29.3709C127.778 30.1646 127.455 30.8355 126.81 31.3862C126.167 31.9345 125.413 32.2111 124.558 32.2111H123.448C123.306 32.2616 123.159 32.3482 123.007 32.4756C122.853 32.6031 122.779 32.7787 122.779 32.9975C122.779 33.2236 122.844 33.3967 122.971 33.5146C123.099 33.6348 123.255 33.7142 123.438 33.7575C123.614 33.808 123.821 33.8368 124.057 33.8488C124.293 33.8609 124.537 33.8705 124.787 33.8777C125.054 33.8825 125.423 33.9017 125.892 33.933C126.36 33.9643 126.692 33.9835 126.889 33.9883C127.169 34.0003 127.453 34.0677 127.737 34.1903C128.021 34.3106 128.279 34.4789 128.512 34.693ZM127.797 36.9079C127.797 36.5664 127.715 36.285 127.559 36.0661C127.4 35.8473 127.157 35.6958 126.834 35.6164C126.661 35.5924 126.311 35.5659 125.779 35.5347C125.247 35.5034 124.63 35.489 123.927 35.489C123.267 35.6164 122.798 35.8329 122.518 36.1359C122.241 36.4389 122.102 36.8261 122.102 37.3023C122.102 37.5163 122.148 37.7207 122.239 37.9155C122.331 38.1127 122.487 38.2907 122.716 38.4566C122.928 38.6153 123.217 38.7452 123.578 38.8462C123.937 38.9472 124.378 38.9953 124.898 38.9953C125.796 38.9953 126.504 38.8246 127.019 38.4782C127.54 38.1343 127.797 37.6101 127.797 36.9079ZM126.037 29.3349C126.037 28.6206 125.892 28.0507 125.601 27.6274C125.312 27.2017 124.903 26.9901 124.378 26.9901C124.089 26.9901 123.843 27.0502 123.638 27.1705C123.434 27.2907 123.267 27.4591 123.14 27.6779C123.017 27.8799 122.93 28.1228 122.877 28.4066C122.827 28.6904 122.8 28.9814 122.8 29.2796C122.8 29.9577 122.949 30.5109 123.243 30.9365C123.542 31.3646 123.925 31.5786 124.397 31.5786C124.922 31.5786 125.326 31.367 125.611 30.9437C125.892 30.5181 126.037 29.9818 126.037 29.3349Z" fill="#2C2C2C"/>
<path d="M144 33.5026C143.619 34.2216 143.111 34.7988 142.478 35.2245C141.842 35.6525 141.112 35.8666 140.286 35.8666C139.556 35.8666 138.921 35.7391 138.372 35.4818C137.825 35.2245 137.375 34.8782 137.021 34.4381C136.664 33.998 136.399 33.4857 136.226 32.8989C136.05 32.3122 135.966 31.6941 135.966 31.04C135.966 30.4532 136.06 29.8784 136.245 29.3157C136.433 28.7481 136.705 28.2431 137.066 27.7886C137.416 27.3557 137.849 27.007 138.364 26.74C138.882 26.4731 139.463 26.3408 140.103 26.3408C140.763 26.3408 141.329 26.4442 141.801 26.6511C142.271 26.8579 142.653 27.1416 142.947 27.5024C143.229 27.8439 143.439 28.2479 143.576 28.712C143.713 29.1762 143.783 29.6788 143.783 30.2223V30.8259H137.794C137.794 31.4199 137.851 31.9586 137.962 32.442C138.075 32.9254 138.254 33.3511 138.499 33.719C138.738 34.0725 139.048 34.3539 139.434 34.5583C139.819 34.7627 140.277 34.8661 140.809 34.8661C141.353 34.8661 141.823 34.7387 142.215 34.4862C142.61 34.2288 142.991 33.7719 143.359 33.1082L144 33.5026ZM141.972 30.0588C141.972 29.7173 141.943 29.3541 141.883 28.9646C141.825 28.575 141.731 28.2503 141.603 27.9882C141.461 27.7068 141.271 27.4783 141.025 27.3028C140.78 27.1248 140.467 27.0358 140.081 27.0358C139.438 27.0358 138.906 27.3028 138.48 27.8343C138.056 28.3681 137.825 29.1088 137.789 30.0588H141.972Z" fill="#2C2C2C"/>
</g>
<defs>
<clipPath id="clip0_3400_189">
<rect width="144" height="50" fill="white"/>
</clipPath>
</defs>
</svg>
