<svg width="91" height="50" viewBox="0 0 91 50" fill="none" xmlns="http://www.w3.org/2000/svg">
<g clip-path="url(#clip0_3400_271)">
<path d="M56.0387 17.4135L61.4465 9.03786L55.2744 0H35.7234L29.5513 9.03786L34.959 17.4135L29.3135 27.1236L45.5132 33.0451L61.6855 27.1236L56.0387 17.4135ZM57.916 24.2134L53.3348 21.6019L54.9469 19.1053L57.916 24.2134ZM51.7725 20.7122L45.4995 17.1361L39.2265 20.7122L37.0641 17.3635L41.3727 9.95252H49.6251L53.9336 17.3635L51.7725 20.7122ZM55.0266 15.6716L51.7015 9.95252H58.719L55.0266 15.6716ZM58.6667 8.15194H51.6891L54.8698 2.59028L58.6667 8.15194ZM53.2539 1.80057L49.6213 8.15194H41.3777L37.7451 1.80057H53.2539ZM36.1292 2.59028L39.3087 8.15194H32.3311L36.1292 2.59028ZM32.2788 9.95252H39.2962L35.9711 15.6716L32.2788 9.95252ZM36.0521 19.1053L37.6642 21.6019L33.0817 24.2134L36.0521 19.1053ZM32.7593 26.4676L38.6414 23.1163L43.2911 30.3161L32.7593 26.4676ZM45.4995 30.4261L40.2037 22.2254L45.4995 19.2078L50.7952 22.2254L45.4995 30.4261ZM52.3576 23.1163L58.2384 26.4676L47.7079 30.3161L52.3576 23.1163Z" fill="#2C2C2C"/>
<path d="M6.77094 48.9852H5.87587L10.5392 38.9277H12.5746L7.34857 49.7962H5.22604L0 38.9277H2.05033L6.77094 48.9852Z" fill="#2C2C2C"/>
<path d="M19.6926 44.3619L18.927 49.2164L18.017 48.1443H26.42V49.7962H16.9775L17.844 44.3619L16.9775 38.9277H26.3478V40.5796H18.017L18.927 39.5075L19.6926 44.3619ZM26.0017 43.5647V45.1591H18.4365V43.5647H26.0017Z" fill="#2C2C2C"/>
<path d="M33.7836 38.9277V48.9415L32.9321 48.1155H41.0898V49.7962H31.8789V38.9277H33.7836Z" fill="#2C2C2C"/>
<path d="M48.3367 44.3619L47.5711 49.2164L46.6611 48.1443H55.0641V49.7962H45.6216L46.488 44.3619L45.6216 38.9277H54.9918V40.5796H46.6611L47.5711 39.5075L48.3367 44.3619ZM54.6458 43.5647V45.1591H47.0806V43.5647H54.6458Z" fill="#2C2C2C"/>
<path d="M62.2829 45.1304C62.2829 45.7777 62.4123 46.3387 62.6725 46.811C62.9327 47.2846 63.3049 47.6495 63.7917 47.9056C64.2772 48.1618 64.8573 48.2892 65.532 48.2892C66.2155 48.2892 66.7981 48.1618 67.2786 47.9056C67.7604 47.6495 68.1301 47.2846 68.3903 46.811C68.6505 46.3375 68.7799 45.7777 68.7799 45.1304V38.9277H70.6859V45.2029C70.6859 46.1588 70.4693 46.9972 70.036 47.7169C69.6028 48.4367 69.0015 48.9977 68.2309 49.3976C67.4604 49.7987 66.5616 49.9986 65.5308 49.9986C64.51 49.9986 63.6124 49.7974 62.8381 49.3976C62.0638 48.9965 61.4588 48.4367 61.0268 47.7169C60.5936 46.9972 60.377 46.1588 60.377 45.2029V38.9277H62.2829V45.1304Z" fill="#2C2C2C"/>
<path d="M91.0001 38.9277V49.7962H89.1813V39.5075L89.7726 39.5363L84.7345 49.7962H82.6979L77.6586 39.5512L78.2499 39.5225V49.7974H76.4312V38.929H79.3479L84.1992 48.9715H83.2469L88.0833 38.929H91.0001V38.9277Z" fill="#2C2C2C"/>
</g>
<defs>
<clipPath id="clip0_3400_271">
<rect width="91" height="50" fill="white"/>
</clipPath>
</defs>
</svg>
