<svg width="74" height="50" viewBox="0 0 74 50" fill="none" xmlns="http://www.w3.org/2000/svg">
<g clip-path="url(#clip0_3400_267)">
<path fill-rule="evenodd" clip-rule="evenodd" d="M70.2125 20.3285L71.0872 18.2009H71.0801C71.4316 16.9051 71.5835 15.7428 71.4343 15.3898C66.8368 13.5277 64.1884 6.4261 67.0211 0C68.8173 1.22453 71.1358 2.32716 72.9859 5.88517C74.9808 10.4284 73.7914 14.009 71.5044 18.2019L67.3555 28.2456H67.351L58.8115 49.2234C58.7476 49.0852 53.9722 39.9373 51.5404 34.5208C49.8161 37.7113 44.3277 48.0729 43.3253 50.0009L35.6407 30.4689L35.6452 30.4418L29.2902 14.6881L22.4677 31.4234L29.1715 48.0413H23.9313L19.8337 37.8847L17.8613 42.7187L17.8658 42.7214C17.7848 42.9364 17.6958 43.1486 17.6033 43.3554L17.579 43.4123H17.5763C16.8814 44.8978 15.8053 46.1684 14.4738 47.0967C12.9824 48.1352 11.1718 48.7421 9.2237 48.7421C6.67595 48.7421 4.36912 47.7063 2.70148 46.0284C1.03205 44.3514 0 42.0342 0 39.4759C0 38.7724 0.0782127 38.0843 0.228345 37.4196C0.353306 36.8697 0.525913 36.3369 0.744369 35.8285L0.700318 35.8113L12.2416 7.50433H12.8188L13.0768 8.1464L21.9229 30.0715L31.1224 7.50433H31.6213H31.6339L31.6932 7.65243L31.9243 8.22768L37.1151 21.0916L46.0322 43.182C47.7592 40.0872 49.5059 36.9094 51.2006 33.7605C49.879 30.8292 48.7166 28.26 48.0559 26.7916C47.7367 26.0439 47.4167 25.4858 47.1074 24.5241C46.5518 22.6927 47.0975 20.6599 48.3426 19.3523C50.8805 16.4852 55.7908 17.5878 56.8894 21.1639C57.4639 22.746 57.0072 24.5765 56.1648 25.904C55.2703 27.5746 54.3542 29.2777 53.4256 30.9999C55.718 35.4537 58.1156 40.2263 60.248 44.6043L70.119 20.3294H70.2125V20.3285ZM50.5596 25.5409C50.3995 25.2402 49.9114 24.3092 49.7711 24.041C49.2506 23.0684 49.3783 21.8149 50.1128 20.9173C51.4145 19.2367 54.4513 19.5456 55.6865 21.1295C56.1558 21.7418 56.4012 22.5112 56.3572 23.2716C56.3149 24.022 56.0057 24.7273 55.6542 25.3811C54.7795 26.9975 53.9272 28.633 53.0552 30.2621C52.1903 28.6131 51.348 27.0165 50.5596 25.5409ZM1.76833 35.8854L1.81957 35.9097C1.55886 36.4552 1.35569 37.0349 1.21814 37.6418C1.08779 38.227 1.01677 38.841 1.01677 39.4759C1.01677 41.7507 1.93554 43.8141 3.42158 45.3041C4.90582 46.7969 6.95913 47.7198 9.2237 47.7198C10.9606 47.7198 12.5725 47.1798 13.8967 46.256C15.0879 45.427 16.0489 44.2891 16.6674 42.9571L19.2889 36.531L10.4427 14.6059L1.76833 35.8854ZM63.4763 13.9178C61.0913 13.4139 59.6412 14.0433 58.3521 14.3937C60.738 18.9442 64.0661 19.672 66.7954 18.5026C67.3978 18.7003 68.4927 20.4992 68.0477 21.7274C69.1238 18.7645 67.0822 14.9193 63.4763 13.9178Z" fill="#2C2C2C"/>
</g>
<defs>
<clipPath id="clip0_3400_267">
<rect width="74" height="50" fill="white"/>
</clipPath>
</defs>
</svg>
