<svg width="147" height="50" viewBox="0 0 147 50" fill="none" xmlns="http://www.w3.org/2000/svg">
<g clip-path="url(#clip0_3400_209)">
<path d="M77.658 50H70.593L46.1897 7.66114L28.354 38.6064L39.7252 50H31.0753L20.709 39.6153L43.5421 0H48.8385L77.658 50Z" fill="#2C2C2C"/>
<path d="M34.6597 11.3277L31.1284 17.4546L25.4819 7.66114L7.64502 38.6064L19.0185 50H10.3663L0 39.6153L22.8353 0H28.1307L34.6597 11.3277Z" fill="#2C2C2C"/>
<path d="M56.9489 50.0001H49.8862L37.0127 27.6669L37.603 26.6456L40.5452 21.54L56.9489 50.0001Z" fill="#2C2C2C"/>
<path d="M104.965 21.5707H102.003L100.826 18.5033H95.4379L94.3253 21.5707H91.4375L96.6886 8.06641H99.5674L104.965 21.5707ZM99.9526 16.228L98.0946 11.2167L96.274 16.228H99.9526Z" fill="#2C2C2C"/>
<path d="M106.39 8.06641H109.113V15.3803C109.113 16.5412 109.147 17.2936 109.213 17.6374C109.33 18.1901 109.608 18.6338 110.046 18.9686C110.485 19.3034 111.084 19.4702 111.844 19.4702C112.617 19.4702 113.199 19.3124 113.591 18.9958C113.983 18.6792 114.22 18.2911 114.299 17.8304C114.378 17.3696 114.419 16.6048 114.419 15.5369V8.06641H117.142V15.159C117.142 16.7795 117.068 17.9257 116.921 18.5952C116.773 19.2648 116.503 19.8299 116.107 20.2906C115.712 20.7514 115.183 21.1179 114.521 21.3914C113.86 21.6649 112.994 21.8011 111.928 21.8011C110.641 21.8011 109.664 21.6524 108.999 21.354C108.334 21.0566 107.809 20.6697 107.422 20.1931C107.036 19.7176 106.782 19.2182 106.659 18.6962C106.481 17.9223 106.392 16.7807 106.392 15.2702V8.06641H106.39Z" fill="#2C2C2C"/>
<path d="M120.019 21.5707V8.06641H125.748C127.189 8.06641 128.236 8.18783 128.889 8.43068C129.541 8.67353 130.065 9.10476 130.457 9.72551C130.849 10.3463 131.045 11.0555 131.045 11.8533C131.045 12.8667 130.747 13.703 130.153 14.3635C129.558 15.024 128.669 15.4393 127.486 15.6118C128.074 15.9556 128.56 16.3335 128.944 16.7455C129.327 17.1574 129.844 17.8871 130.494 18.9379L132.14 21.5719H128.884L126.916 18.6338C126.217 17.5841 125.739 16.9225 125.482 16.649C125.225 16.3755 124.952 16.1883 124.664 16.0873C124.376 15.9863 123.919 15.9352 123.294 15.9352H122.743V21.573H120.019V21.5707ZM122.74 13.7779H124.755C126.061 13.7779 126.876 13.7223 127.201 13.6123C127.526 13.5022 127.78 13.3115 127.964 13.0414C128.148 12.7714 128.241 12.4332 128.241 12.028C128.241 11.5741 128.119 11.2064 127.877 10.9273C127.635 10.6481 127.292 10.4711 126.852 10.3973C126.631 10.3667 125.969 10.3508 124.866 10.3508H122.741V13.7779H122.74Z" fill="#2C2C2C"/>
<path d="M145.768 21.5707H142.807L141.629 18.5033H136.24L135.128 21.5707H132.24L137.491 8.06641H140.37L145.768 21.5707ZM140.756 16.228L138.898 11.2167L137.077 16.228H140.756Z" fill="#2C2C2C"/>
<path d="M92.771 41.7021V28.1978H96.845L99.291 37.4091L101.71 28.1978H105.793V41.7021H103.264V31.0722L100.588 41.7021H97.9677L95.3008 31.0722V41.7021H92.771Z" fill="#2C2C2C"/>
<path d="M107.944 35.034C107.944 33.6586 108.149 32.5045 108.561 31.5705C108.867 30.8828 109.286 30.2655 109.816 29.7196C110.346 29.1726 110.927 28.7675 111.558 28.5042C112.398 28.1479 113.367 27.9697 114.464 27.9697C116.45 27.9697 118.04 28.5871 119.233 29.8217C120.425 31.0564 121.022 32.7723 121.022 34.9704C121.022 37.1504 120.429 38.856 119.246 40.0873C118.064 41.3186 116.481 41.9348 114.502 41.9348C112.496 41.9348 110.902 41.322 109.72 40.0975C108.536 38.8696 107.944 37.1833 107.944 35.034ZM110.749 34.942C110.749 36.4706 111.102 37.6304 111.806 38.4191C112.511 39.2078 113.406 39.6027 114.492 39.6027C115.577 39.6027 116.467 39.2112 117.163 38.4282C117.859 37.6452 118.206 36.4706 118.206 34.9046C118.206 33.3567 117.868 32.2026 117.19 31.4411C116.513 30.6797 115.613 30.2984 114.492 30.2984C113.37 30.2984 112.465 30.6842 111.778 31.4547C111.093 32.2253 110.749 33.3885 110.749 34.942Z" fill="#2C2C2C"/>
<path d="M123.136 28.1987H128.11C129.232 28.1987 130.087 28.285 130.677 28.4563C131.467 28.6901 132.145 29.1043 132.709 29.7001C133.273 30.2959 133.703 31.0256 133.996 31.888C134.291 32.7505 134.437 33.8149 134.437 35.0803C134.437 36.1924 134.299 37.1502 134.023 37.9547C133.686 38.9375 133.205 39.733 132.58 40.3401C132.107 40.8009 131.47 41.1595 130.667 41.4182C130.067 41.6089 129.264 41.7042 128.258 41.7042H123.136V28.1987ZM125.858 30.4831V39.4277H127.891C128.651 39.4277 129.199 39.3846 129.537 39.2984C129.979 39.1872 130.345 39.001 130.636 38.7366C130.927 38.4722 131.165 38.0387 131.348 37.4339C131.532 36.829 131.625 36.004 131.625 34.9611C131.625 33.9182 131.533 33.1159 131.348 32.5576C131.165 31.9992 130.907 31.5623 130.576 31.2491C130.245 30.9359 129.825 30.7237 129.316 30.6136C128.935 30.5274 128.191 30.4843 127.082 30.4843H125.858V30.4831Z" fill="#2C2C2C"/>
<path d="M136.747 41.7021V28.1978H146.743V30.4821H139.468V33.4769H146.236V35.7522H139.468V39.4279H147V41.7032H136.747V41.7021Z" fill="#2C2C2C"/>
</g>
<defs>
<clipPath id="clip0_3400_209">
<rect width="147" height="50" fill="white"/>
</clipPath>
</defs>
</svg>
