<svg width="69" height="50" viewBox="0 0 69 50" fill="none" xmlns="http://www.w3.org/2000/svg">
<g clip-path="url(#clip0_3400_309)">
<path d="M61.8912 27.193L34.5605 0L7.22803 27.193H15.8312L7.22803 35.4864H61.893L53.2898 27.193H61.8912ZM12.6945 25.1196L34.5605 3.36523L56.4265 25.1196H51.0259L34.5605 8.73826L18.0951 25.1196H12.6945ZM12.6945 33.4131L19.0338 27.193H45.2886L43.0247 25.1196H21.2977L34.5605 11.7916L56.4265 33.4131H12.6945Z" fill="#2C2C2C"/>
<path d="M65.1472 44.3897L64.9673 44.1274L65.1418 44.3968L65.1472 44.3897Z" fill="#2C2C2C"/>
<path d="M3.5713 41.7065L0 50H1.87026L2.63261 47.9266H6.1576L6.91817 50H8.83652L5.26344 41.7065H3.5713ZM3.28631 46.5444L4.39421 43.8561L5.50212 46.5444H3.28631Z" fill="#2C2C2C"/>
<path d="M65.9168 41.7065H62.748V50H64.1374V47.9266H65.7369C67.6072 47.9266 69 46.5178 69 44.5968V44.572C69 42.8797 67.9046 41.7065 65.9168 41.7065ZM67.6107 44.6341C67.6107 45.3447 66.713 45.855 65.7957 45.855H64.1374V43.7817H65.7618C66.6792 43.7817 67.6107 43.7941 67.6107 44.611V44.6341Z" fill="#2C2C2C"/>
<path d="M43.7998 46.5444H47.9678V45.1622H43.7998V43.7799H47.9678V41.7065H41.7158V50H47.9678V47.9284H43.7998V46.5444Z" fill="#2C2C2C"/>
<path d="M30.1255 41.7065H28.0397L26.8979 43.4397L27.9132 44.9229L30.1255 41.7065Z" fill="#2C2C2C"/>
<path d="M26.2657 44.3966L26.0929 44.129L24.4346 41.7065H22.3827L25.1703 45.7824L22.2651 50H24.3491L26.2301 47.1575L28.1003 50H30.1167L26.271 44.3895L26.2657 44.3966Z" fill="#2C2C2C"/>
</g>
<defs>
<clipPath id="clip0_3400_309">
<rect width="69" height="50" fill="white"/>
</clipPath>
</defs>
</svg>
