<svg width="100" height="89" viewBox="0 0 100 89" fill="none" xmlns="http://www.w3.org/2000/svg">
<path d="M13.6409 59.3726L14.4888 62.862L3.18156 65.6097L2.29605 61.9658C2.02951 60.8689 2.02779 59.8753 2.2909 58.985C2.55033 58.0955 3.05095 57.3404 3.79277 56.7197C4.53091 56.0998 5.48522 55.6476 6.6557 55.3632C7.83355 55.077 8.89858 55.0404 9.8508 55.2534C10.7993 55.4672 11.5993 55.9199 12.2507 56.6114C12.8984 57.3038 13.3618 58.2242 13.6409 59.3726ZM12.9415 61.7879L12.4477 59.7561C12.2205 58.8212 11.8519 58.0902 11.3418 57.5632C10.8317 57.0362 10.2069 56.7027 9.46733 56.5628C8.72777 56.4228 7.8979 56.4647 6.97771 56.6883C6.06488 56.9101 5.31526 57.2501 4.72886 57.7084C4.13877 58.1675 3.73905 58.7363 3.52971 59.4148C3.31668 60.0942 3.3175 60.8755 3.53217 61.7589L4.06347 63.9453L12.9415 61.7879ZM12.1796 52.8357L3.47313 53.4378L3.38062 52.1001L12.0871 51.498L12.1796 52.8357ZM1.97501 52.858C1.99305 53.1187 1.91979 53.3497 1.75525 53.5509C1.59045 53.7484 1.38335 53.8557 1.13394 53.873C0.88454 53.8902 0.664632 53.8124 0.47422 53.6395C0.283548 53.4629 0.179196 53.2442 0.161164 52.9834C0.143132 52.7227 0.216516 52.4936 0.381316 52.2961C0.545856 52.0949 0.752828 51.9857 1.00223 51.9684C1.25164 51.9512 1.47167 52.0309 1.66235 52.2076C1.85276 52.3804 1.95698 52.5972 1.97501 52.858ZM5.71472 43.2208L5.97866 44.4445C5.77351 44.5074 5.57175 44.6066 5.37338 44.742C5.17147 44.8734 5.00022 45.0599 4.85964 45.3015C4.71906 45.5431 4.63642 45.8586 4.61171 46.248C4.57789 46.781 4.67256 47.233 4.89573 47.6039C5.11536 47.9708 5.41229 48.1661 5.78654 48.1899C6.1192 48.211 6.38961 48.1067 6.59776 47.877C6.8059 47.6473 6.99055 47.2795 7.15171 46.7735L7.55129 45.5008C7.78972 44.7341 8.11573 44.1721 8.52933 43.815C8.93915 43.4577 9.44837 43.2983 10.057 43.337C10.556 43.3686 10.9929 43.5406 11.3679 43.8528C11.743 44.1613 12.0278 44.5779 12.2222 45.1026C12.4167 45.6274 12.4924 46.2281 12.4495 46.9047C12.3931 47.7931 12.1537 48.5161 11.7311 49.0738C11.3086 49.6315 10.722 49.9643 9.97118 50.0723L9.73424 48.782C10.2107 48.6908 10.5767 48.4844 10.8325 48.1628C11.0884 47.8374 11.2338 47.4007 11.2686 46.8526C11.3082 46.2288 11.2073 45.7252 10.9659 45.3417C10.7211 44.9542 10.4115 44.7486 10.0372 44.7249C9.73482 44.7057 9.47482 44.7954 9.25725 44.9942C9.0359 45.1927 8.86028 45.508 8.73039 45.94L8.29805 47.37C8.05842 48.1557 7.72827 48.723 7.30759 49.0721C6.88337 49.4171 6.37073 49.5706 5.76967 49.5324C5.27823 49.5012 4.85226 49.3357 4.49174 49.0357C4.13146 48.732 3.85882 48.3332 3.67381 47.8395C3.48904 47.3419 3.41608 46.787 3.45495 46.1746C3.50964 45.3126 3.74159 44.648 4.1508 44.1805C4.56026 43.7093 5.08156 43.3894 5.71472 43.2208ZM13.7414 39.2512C13.5338 40.0426 13.1682 40.6751 12.6445 41.1486C12.1208 41.6222 11.4907 41.9268 10.7542 42.0625C10.0176 42.1983 9.22795 42.1556 8.38525 41.9346C7.52789 41.7097 6.81262 41.3536 6.23943 40.8665C5.66354 40.3748 5.26505 39.7964 5.04397 39.1314C4.82018 38.4618 4.80824 37.746 5.00815 36.9839C5.16385 36.3903 5.41409 35.8842 5.75886 35.4656C6.10364 35.0469 6.51377 34.7374 6.98924 34.5371C7.46472 34.3368 7.97587 34.2692 8.5227 34.3344L8.18247 35.6314C7.7718 35.6294 7.37339 35.7598 6.98723 36.0227C6.59837 36.281 6.32897 36.6959 6.17904 37.2675C6.04641 37.7731 6.06202 38.2511 6.22587 38.7013C6.38701 39.1469 6.67787 39.5385 7.09843 39.8759C7.5163 40.2087 8.04399 40.4588 8.68151 40.626C9.33369 40.7971 9.92851 40.8435 10.466 40.7651C11.0044 40.6832 11.4568 40.4886 11.8233 40.1813C12.1907 39.8705 12.4417 39.4585 12.5762 38.9456C12.6647 38.6085 12.6863 38.2872 12.6411 37.9816C12.596 37.6761 12.4885 37.3992 12.3186 37.151C12.1487 36.9028 11.9205 36.6981 11.6339 36.5367L11.9741 35.2397C12.4532 35.4437 12.8544 35.7428 13.1779 36.137C13.4986 36.5266 13.7142 36.9885 13.8247 37.5226C13.9326 38.0522 13.9048 38.6284 13.7414 39.2512ZM16.4864 32.1048C16.1364 32.8106 15.6613 33.3466 15.0611 33.7128C14.4626 34.0756 13.7873 34.2565 13.0351 34.2556C12.2847 34.2512 11.5056 34.0488 10.698 33.6483C9.88354 33.2444 9.24581 32.7442 8.78479 32.1477C8.32544 31.5479 8.05906 30.8999 7.98564 30.2039C7.91389 29.5046 8.05305 28.8019 8.40309 28.0961C8.75313 27.3902 9.2274 26.8559 9.82589 26.4931C10.4261 26.127 11.1031 25.9469 11.8569 25.9529C12.6125 25.9555 13.3974 26.1588 14.2119 26.5626C15.0195 26.9632 15.6513 27.4625 16.1073 28.0607C16.5649 28.6555 16.8296 29.3026 16.9013 30.002C16.9748 30.698 16.8365 31.3989 16.4864 32.1048ZM15.4073 31.5696C15.6732 31.0334 15.7545 30.5241 15.6513 30.0417C15.5481 29.5592 15.3137 29.1238 14.9483 28.7353C14.5828 28.3469 14.1387 28.0231 13.6161 27.7639C13.0935 27.5048 12.5653 27.3464 12.0315 27.2889C11.4977 27.2313 11.0059 27.3066 10.556 27.5148C10.106 27.7229 9.74812 28.0951 9.48222 28.6312C9.21632 29.1674 9.13668 29.6776 9.24329 30.1617C9.3499 30.6458 9.58765 31.083 9.95652 31.4731C10.3254 31.8632 10.7711 32.1878 11.2937 32.447C11.8163 32.7062 12.3428 32.8637 12.8732 32.9195C13.4036 32.9754 13.8921 32.8984 14.3386 32.6886C14.7852 32.4788 15.1414 32.1058 15.4073 31.5696ZM15.896 17.0599L20.8301 24.9489L19.9965 26.0281L11.1169 23.2474L12.006 22.0962L18.9825 24.4408L19.0381 24.3689L15.0068 18.2111L15.896 17.0599ZM25.9536 19.9943C25.3186 20.5456 24.6492 20.881 23.9453 21.0006C23.2418 21.1148 22.5459 21.0268 21.8575 20.7366C21.1695 20.441 20.5324 19.9558 19.9463 19.2808C19.3602 18.6058 18.9666 17.9041 18.7656 17.1757C18.5649 16.4419 18.5608 15.7382 18.7533 15.0643C18.9462 14.3852 19.3401 13.7873 19.935 13.2708C20.2782 12.9728 20.6668 12.7357 21.1008 12.5595C21.5348 12.3834 22.0008 12.3048 22.4989 12.3238C22.9945 12.3399 23.5063 12.4874 24.0344 12.7663C24.5625 13.0452 25.0935 13.4921 25.6275 14.107L26 14.5361L20.9204 18.9467L20.1604 18.0715L24.2104 14.5549C23.8876 14.1831 23.5251 13.9159 23.1231 13.7533C22.7239 13.5882 22.3152 13.5393 21.897 13.6064C21.4816 13.6711 21.0908 13.8624 20.7247 14.1803C20.3215 14.5305 20.0594 14.9336 19.9387 15.3896C19.8183 15.8402 19.8173 16.2926 19.9356 16.7467C20.054 17.2007 20.2709 17.6094 20.5863 17.9726L21.0929 18.5561C21.525 19.0538 21.9771 19.4011 22.4492 19.5982C22.9217 19.7899 23.3907 19.8418 23.856 19.7538C24.3189 19.6629 24.7548 19.4399 25.1638 19.0847C25.4298 18.8538 25.6378 18.608 25.7877 18.3473C25.938 18.0814 26.026 17.8043 26.0517 17.5161C26.0749 17.2251 26.0301 16.9279 25.9172 16.6246L27.1338 16.0498C27.3189 16.471 27.3992 16.913 27.3746 17.3758C27.3476 17.8357 27.2161 18.291 26.9803 18.7415C26.742 19.1893 26.3997 19.6068 25.9536 19.9943ZM29.4185 16.9085L24.8866 9.45012L25.9937 8.77742L26.6782 9.90395L26.7559 9.85674C26.6676 9.40509 26.7317 8.95617 26.9481 8.50996C27.1645 8.06376 27.4961 7.70494 27.9429 7.4335C28.027 7.38236 28.1332 7.32005 28.2614 7.24657C28.3896 7.1731 28.4881 7.11993 28.5568 7.08707L29.2649 8.25244C29.2201 8.26633 29.1222 8.30585 28.9713 8.37101C28.8215 8.43096 28.6706 8.50716 28.5184 8.59961C28.1559 8.81991 27.8784 9.09268 27.686 9.41792C27.4948 9.73795 27.3973 10.0808 27.3935 10.4466C27.391 10.8072 27.492 11.1558 27.6966 11.4924L30.5644 16.2122L29.4185 16.9085ZM38.5327 0.392334L39.8861 9.79818e-05L42.2015 7.98952C42.4082 8.7026 42.4528 9.34631 42.3353 9.92066C42.2178 10.495 41.9582 10.9804 41.5564 11.3768C41.1547 11.7733 40.63 12.0653 39.9824 12.253C39.3712 12.4301 38.7952 12.4768 38.2542 12.393C37.7123 12.3056 37.2448 12.094 36.8517 11.7583C36.4586 11.4227 36.1793 10.9692 36.0138 10.398L37.3454 10.0121C37.4371 10.3287 37.5954 10.5825 37.8204 10.7736C38.048 10.9601 38.319 11.0787 38.6335 11.1296C38.9479 11.1804 39.2816 11.1547 39.6345 11.0524C40.0238 10.9396 40.3311 10.7618 40.5565 10.519C40.782 10.2762 40.9197 9.97597 40.9699 9.61833C41.0226 9.25599 40.9821 8.8438 40.8481 8.38175L38.5327 0.392334ZM48.2082 10.7812C47.3701 10.8496 46.632 10.7237 45.994 10.4033C45.3594 10.0789 44.8506 9.59599 44.4676 8.95458C44.088 8.30908 43.8619 7.54085 43.7891 6.64988C43.7164 5.7589 43.8146 4.96038 44.0838 4.25431C44.3564 3.54416 44.7698 2.97454 45.3238 2.54545C45.8813 2.11227 46.5527 1.86362 47.338 1.7995C47.791 1.76251 48.2445 1.80148 48.6986 1.91642C49.1526 2.03137 49.5747 2.24393 49.9649 2.55411C50.3548 2.86052 50.68 3.28242 50.9405 3.81982C51.201 4.35722 51.3644 5.03177 51.4307 5.84346L51.4769 6.40975L44.772 6.95727L44.6776 5.80203L50.0235 5.36549C49.9834 4.8747 49.8495 4.44478 49.6217 4.07573C49.3977 3.70637 49.0973 3.42496 48.7205 3.23151C48.3474 3.03774 47.9192 2.96059 47.436 3.00005C46.9037 3.04352 46.4539 3.21327 46.0866 3.50929C45.7228 3.80123 45.4542 4.16521 45.2808 4.60123C45.1073 5.03724 45.0402 5.49498 45.0794 5.97445L45.1422 6.74461C45.1959 7.40152 45.3546 7.94913 45.6184 8.38744C45.8857 8.82167 46.2329 9.14106 46.6601 9.34561C47.0869 9.54639 47.5703 9.62473 48.1102 9.58065C48.4613 9.55198 48.7744 9.477 49.0495 9.35572C49.3281 9.23036 49.5631 9.05915 49.7544 8.84211C49.9454 8.62128 50.0852 8.35524 50.1738 8.04396L51.4945 8.30096C51.3944 8.74999 51.1974 9.15373 50.9036 9.51216C50.6096 9.86681 50.2341 10.1559 49.7773 10.3794C49.3202 10.5992 48.7972 10.7331 48.2082 10.7812ZM54.3249 10.7057L53.1264 1.66135L54.5166 1.89142L55.2867 8.79156L55.3763 8.80641L58.3059 2.51854L59.7186 2.75232L60.4475 9.62262L60.5372 9.63747L63.4855 3.37573L64.8757 3.6058L60.8273 11.7818L59.5268 11.5666L58.738 4.64029L58.6035 4.61803L55.6254 10.9209L54.3249 10.7057ZM69.3072 1.97945L65.2997 12.9039L64.0408 12.4421L68.0483 1.51765L69.3072 1.97945ZM74.3296 7.53002L73.8247 8.54808L69.6099 6.45802L70.1148 5.43996L74.3296 7.53002ZM67.5 13.8847L71.9123 4.98682C72.1345 4.53887 72.4248 4.21775 72.7833 4.02345C73.1417 3.82915 73.526 3.74064 73.936 3.75793C74.346 3.77521 74.7376 3.87641 75.1109 4.06152C75.4062 4.20792 75.6353 4.35116 75.7984 4.49122C75.9615 4.63128 76.0788 4.7444 76.1502 4.83055L75.2891 5.69733C75.2381 5.64668 75.1659 5.57916 75.0725 5.49477C74.9824 5.41206 74.8508 5.32779 74.6778 5.24197C74.2807 5.04508 73.9443 5.00299 73.6686 5.1157C73.3962 5.2301 73.1641 5.48073 72.9723 5.86759L68.7013 14.4804L67.5 13.8847ZM70.0201 19.0307C69.8353 18.8983 69.6817 18.7648 69.559 18.6303C69.4342 18.4989 69.354 18.3995 69.3185 18.332L70.2841 17.5701C70.5003 17.8276 70.7166 18.02 70.933 18.1472C71.1495 18.2743 71.3947 18.3126 71.6686 18.262C71.9435 18.2167 72.2762 18.0614 72.6668 17.7961L73.2672 17.3876L75.7553 8.37729L76.9375 9.22473L74.8437 16.2806L74.9176 16.3336L80.9274 12.0848L82.1096 12.9323L73.2726 18.9014C72.8745 19.1707 72.4893 19.3537 72.1171 19.4504C71.7426 19.5501 71.3811 19.5636 71.0325 19.4908C70.6869 19.4202 70.3495 19.2668 70.0201 19.0307ZM86.5793 13.0271L83.8252 15.9279L82.9187 15.0673L85.6728 12.1664L86.5793 13.0271ZM88.814 23.2062L87.7916 22.4837C87.9001 22.2986 87.9816 22.0891 88.036 21.8551C88.0957 21.6217 88.0956 21.3685 88.0357 21.0955C87.9757 20.8225 87.8231 20.5343 87.5778 20.2309C87.242 19.8156 86.8665 19.5469 86.4512 19.4247C86.0412 19.3032 85.6904 19.3603 85.3987 19.5961C85.1395 19.8056 85.011 20.0654 85.0132 20.3754C85.0153 20.6853 85.1283 21.0811 85.352 21.5627L85.919 22.7702C86.2623 23.496 86.4024 24.1304 86.3396 24.6732C86.2796 25.2136 86.0125 25.6755 85.5382 26.0589C85.1494 26.3732 84.7113 26.5423 84.224 26.5661C83.739 26.5928 83.2474 26.4788 82.7492 26.224C82.251 25.9692 81.7888 25.5782 81.3625 25.0509C80.8029 24.3586 80.4899 23.6643 80.4237 22.9677C80.3574 22.2712 80.5641 21.6292 81.0439 21.0416L82.0914 21.8314C81.8024 22.2209 81.6725 22.6206 81.7018 23.0304C81.7335 23.4432 81.922 23.8631 82.2673 24.2902C82.6602 24.7763 83.0752 25.0788 83.5124 25.1979C83.955 25.3175 84.322 25.2594 84.6137 25.0236C84.8493 24.8331 84.98 24.5911 85.0057 24.2975C85.0344 24.0016 84.9503 23.6506 84.7536 23.2446L84.1043 21.8992C83.7491 21.1586 83.6083 20.5174 83.6819 19.9758C83.7607 19.4346 84.0344 18.9748 84.5027 18.5961C84.8857 18.2866 85.3113 18.1202 85.7798 18.0971C86.2505 18.077 86.7211 18.1861 87.1914 18.4245C87.6642 18.6658 88.0934 19.025 88.4792 19.5022C89.0221 20.1739 89.3011 20.8202 89.3161 21.4413C89.3335 22.0653 89.1661 22.6536 88.814 23.2062ZM94.687 34.8755L93.9095 33.8943C94.0658 33.7473 94.203 33.5691 94.3211 33.36C94.4441 33.1529 94.5154 32.9099 94.5347 32.6311C94.5541 32.3522 94.4888 32.0327 94.3389 31.6725C94.1338 31.1794 93.8491 30.8158 93.485 30.5816C93.1258 30.3495 92.7732 30.3055 92.4269 30.4496C92.1192 30.5776 91.9227 30.7907 91.8375 31.0887C91.7522 31.3867 91.7491 31.7983 91.8281 32.3234L92.032 33.6417C92.157 34.4349 92.1128 35.083 91.8996 35.5861C91.6898 36.0878 91.3034 36.4557 90.7404 36.69C90.2787 36.8821 89.8108 36.9209 89.3365 36.8065C88.8636 36.6955 88.4241 36.4476 88.0178 36.0628C87.6115 35.678 87.2781 35.1726 87.0176 34.5466C86.6757 33.7248 86.571 32.9703 86.7036 32.2833C86.8362 31.5963 87.2154 31.0385 87.8412 30.6099L88.6239 31.6628C88.2368 31.9551 87.9996 32.302 87.9123 32.7035C87.8264 33.1085 87.889 33.5645 88.1 34.0716C88.3401 34.6486 88.6532 35.0558 89.0391 35.2932C89.43 35.5326 89.7986 35.5803 90.1448 35.4362C90.4246 35.3198 90.6182 35.1244 90.7255 34.85C90.8364 34.5741 90.8546 34.2137 90.7802 33.7687L90.5362 32.2948C90.404 31.4841 90.4495 30.8293 90.6726 30.3303C90.9007 29.8333 91.2928 29.4691 91.8488 29.2377C92.3035 29.0486 92.7588 29.0089 93.2147 29.1186C93.6721 29.2319 94.0929 29.4691 94.4771 29.8303C94.8627 30.195 95.1733 30.6607 95.4091 31.2272C95.7409 32.0246 95.8265 32.7233 95.6659 33.3235C95.5068 33.9271 95.1806 34.4445 94.687 34.8755ZM98.1597 40.3203L97.0543 40.5835L96.0064 36.1839L97.1119 35.9206L98.1597 40.3203ZM99.4513 36.7185L99.762 38.0229L91.6701 39.9501C91.3016 40.0378 91.038 40.1571 90.8792 40.3078C90.725 40.4614 90.6367 40.6303 90.6144 40.8148C90.5967 41.002 90.6107 41.1914 90.6563 41.383C90.6905 41.5267 90.726 41.6429 90.7627 41.7315C90.803 41.8192 90.8353 41.8894 90.8596 41.9421L89.751 42.4864C89.6967 42.4059 89.6342 42.2904 89.5633 42.1398C89.4887 41.9901 89.4224 41.7937 89.3645 41.5505C89.2768 41.182 89.27 40.802 89.3442 40.4106C89.4193 40.0228 89.5913 39.6742 89.8603 39.3648C90.1301 39.0591 90.5119 38.8475 91.0057 38.7299L99.4513 36.7185ZM89.8212 46.829C89.7687 46.0428 89.9098 45.3406 90.2444 44.7222C90.5792 44.1077 91.0719 43.6116 91.7224 43.2341C92.3732 42.8604 93.1484 42.6435 94.0479 42.5835C94.9549 42.523 95.7577 42.6345 96.4562 42.9182C97.1549 43.2056 97.711 43.6317 98.1246 44.1963C98.5383 44.7647 98.7714 45.442 98.8239 46.2281C98.8764 47.0142 98.7352 47.7146 98.4004 48.3291C98.0658 48.9475 97.5713 49.4436 96.9167 49.8176C96.2624 50.1954 95.4817 50.4145 94.5746 50.475C93.6751 50.5351 92.8778 50.4213 92.1829 50.1336C91.4882 49.8497 90.934 49.4235 90.5202 48.8551C90.1067 48.2905 89.8737 47.6151 89.8212 46.829ZM91.0231 46.7487C91.0629 47.3459 91.2488 47.827 91.5807 48.1921C91.9125 48.5572 92.3341 48.8156 92.8453 48.9675C93.3566 49.1194 93.9032 49.176 94.4853 49.1371C95.0673 49.0983 95.6035 48.9695 96.0938 48.7507C96.5841 48.532 96.9714 48.2195 97.2555 47.8133C97.5397 47.4071 97.6619 46.9055 97.622 46.3083C97.5822 45.7111 97.3944 45.2302 97.0588 44.8653C96.7231 44.5005 96.2978 44.2423 95.7828 44.0906C95.2677 43.939 94.7192 43.8826 94.1372 43.9214C93.5551 43.9603 93.0208 44.089 92.5343 44.3075C92.0478 44.5259 91.6643 44.8382 91.3839 45.2441C91.1035 45.65 90.9832 46.1516 91.0231 46.7487ZM90.2083 51.7696L98.8851 52.7063L98.7461 53.9943L97.4355 53.8528L97.4258 53.9432C97.838 54.1477 98.1555 54.4715 98.3781 54.9147C98.6008 55.3578 98.6841 55.8392 98.628 56.3589C98.6174 56.4568 98.6023 56.579 98.5827 56.7255C98.563 56.872 98.5454 56.9825 98.5297 57.057L97.174 56.9106C97.1902 56.8666 97.2183 56.7649 97.2584 56.6054C97.3018 56.4501 97.3331 56.2839 97.3522 56.1069C97.3977 55.6851 97.3499 55.2989 97.2086 54.9484C97.0708 54.6021 96.8578 54.3162 96.5697 54.0908C96.285 53.8696 95.9468 53.7378 95.5552 53.6955L90.0643 53.1028L90.2083 51.7696ZM86.1409 56.8888C86.2028 56.6701 86.2761 56.4802 86.361 56.3192C86.4423 56.1572 86.5086 56.048 86.5599 55.9917L87.6044 56.6413C87.4355 56.9321 87.328 57.2009 87.2819 57.4476C87.2357 57.6944 87.2829 57.938 87.4236 58.1786C87.5595 58.4217 87.8185 58.6819 88.2007 58.9593L88.7887 59.3854L98.1086 58.6672L97.7128 60.0669L90.3651 60.4925L90.3404 60.58L96.3769 64.7907L95.981 66.1903L87.3666 59.9043C86.9782 59.6213 86.6753 59.3211 86.458 59.0038C86.2371 58.6854 86.1017 58.3499 86.0518 57.9973C86.0009 57.6483 86.0306 57.2788 86.1409 56.8888ZM77.086 78.8337L76.1753 77.9775L81.1566 72.6786L82.0674 73.5348L77.086 78.8337ZM72.0479 82.5931L71.2876 81.6009L77.0603 77.1773L77.8206 78.1695L72.0479 82.5931ZM66.4624 85.5194L65.8688 84.4194L72.2692 80.9656L72.8628 82.0657L66.4624 85.5194ZM60.4889 87.512L60.0786 86.3313L66.9484 83.944L67.3587 85.1248L60.4889 87.512ZM54.2917 88.4915L54.0804 87.2595L61.2484 86.0298L61.4597 87.2618L54.2917 88.4915ZM47.988 88.4803L47.9749 87.2304L55.2472 87.1539L55.2603 88.4039L47.988 88.4803ZM41.7525 87.4811L41.9355 86.2446L49.1299 87.3092L48.9469 88.5458L41.7525 87.4811ZM35.7943 85.4877L36.1756 84.2973L43.1018 86.5156L42.7205 87.7061L35.7943 85.4877ZM30.2417 82.5521L30.8115 81.4395L37.2845 84.7552L36.7146 85.8677L30.2417 82.5521ZM25.2109 78.7607L25.9508 77.7532L31.8127 82.0579L31.0728 83.0654L25.2109 78.7607ZM20.8407 74.2178L21.7308 73.3402L26.8369 78.519L25.9468 79.3966L20.8407 74.2178Z" fill="black"/>
</svg>
